SplineFontDB: 3.0
FontName: TriodionUnicode
FullName: Triodion Unicode
FamilyName: Triodion Unicode
Weight: Normal
Copyright: Copyright 2019 Aleksandr Andreev (Slavonic Computing Initiative). Licensed under the SIL OFL. Based on Tridion UCS Copyright 2003 by Vladislav V. Dorosh, Calmius Software.
Version: 1.1
ItalicAngle: 0
UnderlinePosition: -45
UnderlineWidth: 7
Ascent: 800
Descent: 200
InvalidEm: 0
LayerCount: 2
Layer: 0 0 "Back" 1
Layer: 1 0 "Fore" 0
UniqueID: 4777033
FSType: 0
OS2Version: 0
OS2_WeightWidthSlopeOnly: 0
OS2_UseTypoMetrics: 0
CreationTime: 1291789194
ModificationTime: 1564772956
PfmFamily: 17
TTFWeight: 400
TTFWidth: 5
LineGap: 90
VLineGap: 0
OS2TypoAscent: 0
OS2TypoAOffset: 1
OS2TypoDescent: 0
OS2TypoDOffset: 1
OS2TypoLinegap: 90
OS2WinAscent: 0
OS2WinAOffset: 1
OS2WinDescent: 0
OS2WinDOffset: 1
HheadAscent: 0
HheadAOffset: 1
HheadDescent: 0
HheadDOffset: 1
OS2Vendor: 'PfEd'
Lookup: 4 0 0 "'ccmp' Precomposed Glyphs for Cyrillic" { "'ccmp' Precomposed Glyphs for Cyrillic-1"  } ['ccmp' ('DFLT' <'dflt' > 'cyrl' <'dflt' > ) ]
Lookup: 4 0 0 "'ccmp' Round 2 of Cyrillic Composition" { "'ccmp' Round 2 of Cyrillic Composition-1"  } ['ccmp' ('DFLT' <'dflt' > 'cyrl' <'dflt' > ) ]
Lookup: 6 0 0 "'ccmp' Substitution of Uppercase Forms" { "'ccmp' Substitution of Uppercase Forms-1"  } ['ccmp' ('DFLT' <'dflt' > 'cyrl' <'dflt' > ) ]
Lookup: 6 0 0 "'ccmp' Wide Titlo Substitution" { "'ccmp' Wide Titlo Substitution-1"  } ['ccmp' ('DFLT' <'dflt' > 'cyrl' <'dflt' > ) ]
Lookup: 1 0 0 "Wide Titlo" { "Wide Titlo-1"  } []
Lookup: 1 0 0 "Uppercase Forms" { "Uppercase Forms-1" ("upper") } []
Lookup: 1 0 0 "'ss01' Hyphen Alternatives" { "Hyphen Replacement-1"  } ['ss01' ('DFLT' <'dflt' > 'cyrl' <'dflt' > ) ]
Lookup: 260 0 0 "'mark' Diacritical Marks" { "'mark' Diacritical Marks-1"  } ['mark' ('DFLT' <'dflt' > 'cyrl' <'dflt' > ) ]
MarkAttachClasses: 1
DEI: 91125
ChainSub2: class "'ccmp' Wide Titlo Substitution-1" 3 3 3 1
  Class: 7 uni0483

StartChar: .notdef
Encoding: 1114112 -1 0
Width: 427
LayerCount: 2
Fore
SplineSet
0 0 m 1
 0 770 l 1
 427 770 l 1
 427 0 l 1
 0 0 l 1
398 748 m 1
 29 748 l 1
 213 398 l 1
 398 748 l 1
405 733 m 1
 221 383 l 1
 405 34 l 1
 405 733 l 1
29 19 m 1
 398 19 l 1
 213 369 l 1
 29 19 l 1
206 383 m 1
 22 733 l 1
 22 34 l 1
 206 383 l 1
EndSplineSet
Validated: 1
EndChar

StartChar: .null
Encoding: 0 0 1
Width: 427
Flags: W
LayerCount: 2
Fore
SplineSet
0 0 m 1
 0 770 l 1
 427 770 l 1
 427 0 l 1
 0 0 l 1
398 748 m 1
 29 748 l 1
 213 398 l 1
 398 748 l 1
405 733 m 1
 221 383 l 1
 405 34 l 1
 405 733 l 1
29 19 m 1
 398 19 l 1
 213 369 l 1
 29 19 l 1
206 383 m 1
 22 733 l 1
 22 34 l 1
 206 383 l 1
EndSplineSet
Validated: 1
EndChar

StartChar: period
Encoding: 46 46 3
Width: 176
Flags: W
LayerCount: 2
Fore
SplineSet
83 140 m 0
 122 140 155 107 155 68 c 0
 155 29 122 -3 83 -3 c 0
 44 -3 11 29 11 68 c 0
 11 107 44 140 83 140 c 0
EndSplineSet
Validated: 1
EndChar

StartChar: slash
Encoding: 47 47 4
Width: 405
Flags: W
LayerCount: 2
Fore
SplineSet
400 768 m 1
 24 -281 l 1
 -35 -281 l 1
 341 768 l 1
 400 768 l 1
EndSplineSet
Validated: 1
EndChar

StartChar: uni0443
Encoding: 1091 1091 5
Width: 484
Flags: W
HStem: 325 119<370.834 438.719> 417 20G<41 126.5>
VStem: 225 50<-181.243 -90.1141>
AnchorPoint: "Yerok" 368 502 basechar 0
AnchorPoint: "Diacritic" 237 502 basechar 0
LayerCount: 2
Fore
SplineSet
122 437 m 2x60
 131 437 139 429 142 423 c 0
 179 343 203 185 214 101 c 1
 223 102 231 102 238 103 c 1
 246 152 252 232 272 314 c 0
 290 388 350 440 416 444 c 0
 443 446 469 442 464 418 c 0
 462 407 446 393 441 376 c 0
 437 360 442 344 439 338 c 0
 433 327 427 325 414 325 c 0xa0
 393 325 388 345 370 344 c 0
 346 343 323 321 319 301 c 0
 288 146 281 -116 275 -300 c 0
 273 -348 260 -389 230 -415 c 0
 192 -448 173 -418 183 -398 c 0
 203 -359 210 -335 213 -294 c 0
 217 -218 222 -78 225 32 c 1
 200 29 172 21 141 10 c 0
 132 7 124 14 123 25 c 0
 112 130 86 306 33 419 c 0
 30 426 37 437 45 437 c 2
 122 437 l 2x60
EndSplineSet
Validated: 33
EndChar

StartChar: acutecomb
Encoding: 769 769 6
Width: 1
Flags: W
HStem: 520 245
VStem: -253 179
AnchorPoint: "Diacritic" -235 514 mark 0
LayerCount: 2
Fore
SplineSet
-209 534 m 2
 -215 524 -229 516 -242 520 c 0
 -255 524 -258 543 -253 555 c 2
 -166 751 l 2
 -162 759 -154 765 -144 765 c 2
 -87 765 l 2
 -79 765 -70 755 -74 748 c 2
 -209 534 l 2
EndSplineSet
Validated: 33
EndChar

StartChar: gravecomb
Encoding: 768 768 7
Width: 1
Flags: W
AnchorPoint: "Diacritic" -145 503 mark 0
LayerCount: 2
Fore
SplineSet
-120 544 m 2
 -114 532 -121 513 -134 509 c 0
 -147 505 -164 510 -171 521 c 2
 -308 735 l 2
 -312 742 -303 752 -295 752 c 2
 -238 752 l 2
 -228 752 -220 746 -216 738 c 2
 -120 544 l 2
EndSplineSet
Validated: 33
EndChar

StartChar: uni0486
Encoding: 1158 1158 8
Width: 1
Flags: W
HStem: 513 29<-209.646 -187.845> 676 70<-235.633 -160.018>
VStem: -285 43<622.609 670.453> -155 69<576.922 670.717>
AnchorPoint: "Diacritic" -195 513 mark 0
LayerCount: 2
Fore
SplineSet
-183 513 m 0
 -205 507 -226 523 -203 542 c 0
 -171 569 -154 595 -155 635 c 0
 -156 657 -172 676 -194 676 c 0
 -222 676 -242 665 -242 623 c 0
 -242 609 -265 615 -271 622 c 0
 -283 635 -285 648 -285 666 c 0
 -285 714 -238 746 -190 746 c 0
 -135 746 -86 704 -86 648 c 0
 -86 582 -140 525 -183 513 c 0
EndSplineSet
Validated: 33
Substitution2: "Uppercase Forms-1" uni0486.upper
EndChar

StartChar: uni04860301
Encoding: 57345 57345 9
Width: 1
GlyphClass: 4
Flags: W
HStem: 533 29<-252.646 -230.845> 696 70<-278.633 -203.018>
VStem: -328 43<642.609 690.453> -198 69<596.922 690.717>
AnchorPoint: "Diacritic" -175 520 mark 0
LayerCount: 2
Fore
SplineSet
-226 533 m 0
 -248 527 -269 543 -246 562 c 0
 -214 589 -197 615 -198 655 c 0
 -199 677 -215 696 -237 696 c 0
 -265 696 -285 685 -285 643 c 0
 -285 629 -308 635 -314 642 c 0
 -326 655 -328 668 -328 686 c 0
 -328 734 -281 766 -233 766 c 0
 -178 766 -129 724 -129 668 c 0
 -129 602 -183 545 -226 533 c 0
-101 534 m 2
 -107 524 -121 516 -134 520 c 0
 -147 524 -150 543 -145 555 c 2
 -58 751 l 2
 -54 759 -46 765 -36 765 c 2
 21 765 l 2
 29 765 38 755 34 748 c 2
 -101 534 l 2
EndSplineSet
Validated: 33
LCarets2: 1 0
Substitution2: "Uppercase Forms-1" uni04860301.upper
Ligature2: "'ccmp' Precomposed Glyphs for Cyrillic-1" uni0486 acutecomb
EndChar

StartChar: uni04860300
Encoding: 57347 57347 10
Width: 1
GlyphClass: 4
Flags: W
HStem: 505 29<-219.646 -197.845> 668 70<-245.633 -170.018>
VStem: -295 43<614.609 662.453> -165 69<568.922 662.717>
DStem2: -175 866 -215 822 0.738332 -0.674438<-24.6999 306.695>
AnchorPoint: "Diacritic" -126 500 mark 0
LayerCount: 2
Fore
SplineSet
-96 640 m 0
 -96 574 -150 517 -193 505 c 0
 -215 499 -236 515 -213 534 c 0
 -181 561 -164 587 -165 627 c 0
 -166 649 -182 668 -204 668 c 0
 -232 668 -252 657 -252 615 c 0
 -252 601 -275 607 -281 614 c 0
 -293 627 -295 640 -295 658 c 0
 -295 706 -248 738 -200 738 c 0
 -145 738 -96 696 -96 640 c 0
33 676 m 2
 62 649 23 605 -7 632 c 2
 -215 822 l 2
 -244 849 -204 893 -175 866 c 2
 33 676 l 2
EndSplineSet
Validated: 33
LCarets2: 1 0
Substitution2: "Uppercase Forms-1" uni04860300.upper
Ligature2: "'ccmp' Precomposed Glyphs for Cyrillic-1" uni0486 gravecomb
EndChar

StartChar: uni0311
Encoding: 785 785 11
Width: 1
Flags: W
HStem: 674 60<-280.118 -163.626>
VStem: -386 60<536 624.107> -118 60<536 622.123>
AnchorPoint: "Diacritic" -225 535 mark 0
LayerCount: 2
Fore
SplineSet
-58 536 m 1
 -118 536 l 1
 -119 610 -156 674 -222 674 c 0
 -285 674 -327 613 -326 536 c 1
 -386 536 l 1
 -387 651 -315 734 -222 734 c 0
 -124 734 -59 646 -58 536 c 1
EndSplineSet
Validated: 33
EndChar

StartChar: uni0483
Encoding: 1155 1155 12
Width: 1
Flags: W
HStem: 625 140<-126 -22> 625 40<-270 -126 -22 6.84277>
VStem: -374 104<536 627> -126 104<663 765>
AnchorPoint: "Diacritic" -185 535 mark 0
LayerCount: 2
Fore
SplineSet
-270 547 m 2x70
 -270 541 -276 536 -282 536 c 2
 -361 536 l 2
 -368 536 -374 542 -374 549 c 2
 -374 633 l 2
 -376 633 -378 634 -380 634 c 0
 -407 637 -401 686 -375 682 c 0
 -328 674 -252 669 -181 665 c 0x70
 -162 664 -144 663 -126 663 c 1
 -126 752 l 2
 -126 759 -120 765 -113 765 c 2
 -34 765 l 2xb0
 -28 765 -22 760 -22 754 c 2
 -22 662 l 1
 -17 662 -12 663 -7 663 c 0
 20 663 20 623 -7 623 c 0
 -71 622 -118 623 -183 625 c 0
 -212 626 -241 626 -270 627 c 1
 -270 547 l 2x70
EndSplineSet
Validated: 33
Substitution2: "Wide Titlo-1" uni0483.long
EndChar

StartChar: uni033E
Encoding: 830 830 13
Width: 1
Flags: W
AnchorPoint: "Yerok" -172 529 mark 0
LayerCount: 2
Fore
SplineSet
-90 739 m 0
 -71 749 -60 724 -75 706 c 0
 -84 695 -103 675 -115 665 c 0
 -117 663 -114 659 -112 657 c 0
 -102 646 -90 633 -78 620 c 0
 -69 610 -69 594 -80 586 c 0
 -111 563 -145 545 -169 531 c 0
 -181 524 -209 541 -196 553 c 0
 -184 564 -172 579 -161 591 c 0
 -159 593 -159 598 -162 601 c 0
 -167 607 -187 630 -195 640 c 0
 -205 652 -202 670 -192 677 c 0
 -160 699 -120 724 -90 739 c 0
EndSplineSet
Validated: 33
EndChar

StartChar: colon
Encoding: 58 58 14
Width: 204
Flags: W
LayerCount: 2
Fore
SplineSet
36 356 m 2
 32 361 32 366 36 371 c 2
 95 444 l 2
 99 449 107 449 111 444 c 2
 173 367 l 2
 176 363 176 357 173 353 c 2
 114 279 l 2
 110 274 102 274 98 279 c 2
 36 356 l 2
36 82 m 2
 32 87 32 92 36 97 c 2
 95 170 l 2
 99 175 107 175 111 170 c 2
 173 93 l 2
 176 89 176 83 173 79 c 2
 114 5 l 2
 110 0 102 0 98 5 c 2
 36 82 l 2
EndSplineSet
Validated: 1
EndChar

StartChar: semicolon
Encoding: 59 59 15
Width: 314
Flags: W
LayerCount: 2
Fore
SplineSet
17 51 m 0
 29 119 111 190 182 190 c 0
 258 190 294 111 294 36 c 0
 294 -47 239 -137 173 -183 c 0
 163 -190 152 -196 142 -189 c 0
 131 -181 138 -161 144 -153 c 0
 176 -107 201 -65 201 -15 c 0
 201 39 181 88 135 88 c 0
 101 88 74 76 53 43 c 0
 48 35 39 24 28 27 c 0
 18 30 15 42 17 51 c 0
149 459 m 0
 188 459 221 426 221 387 c 0
 221 348 188 316 149 316 c 0
 110 316 77 348 77 387 c 0
 77 426 110 459 149 459 c 0
EndSplineSet
Validated: 33
EndChar

StartChar: uni2DEF
Encoding: 11759 11759 16
Width: 1
Flags: W
HStem: 762 95<-24.8499 10.5>
VStem: -412 61<755.009 823.833> -25 54<762.402 819.597>
DStem2: -275 846 -309 817 0.818872 -0.573976<-41.9702 119.938 133.889 270.715>
AnchorPoint: "Diacritic" -185 610 mark 0
LayerCount: 2
Fore
SplineSet
-309 817 m 0
 -315 821 -342 827 -352 825 c 0
 -357 824 -351 792 -351 773 c 0
 -351 759 -362 753 -372 753 c 0
 -389 753 -407 757 -412 772 c 0
 -415 782 -419 800 -410 825 c 0
 -404 840 -380 857 -364 855 c 0
 -333 855 -279 849 -275 846 c 0
 -238 823 -181 787 -138 756 c 0
 -112 736 -81 712 -61 696 c 0
 -21 666 29 640 37 630 c 0
 40 625 37 614 30 615 c 0
 2 620 -34 619 -61 616 c 0
 -89 613 -90 650 -112 669 c 0
 -136 693 -169 717 -190 734 c 0
 -227 760 -266 787 -309 817 c 0
-308 619 m 0
 -313 614 -368 608 -362 614 c 0
 -344 631 -181 772 -179 774 c 0
 -156 796 -136 813 -127 824 c 0
 -109 846 -63 857 -38 857 c 0
 4 857 27 821 29 795 c 0
 30 777 27 762 4 762 c 0
 -6 762 -22 764 -25 779 c 0
 -28 794 -22 811 -35 817 c 0
 -44 823 -57 821 -64 815 c 0
 -88 798 -115 780 -140 760 c 0
 -194 717 -291 634 -308 619 c 0
EndSplineSet
Validated: 37
EndChar

StartChar: uni2DE90487
Encoding: 62697 62697 17
Width: 1
GlyphClass: 4
Flags: W
HStem: 663 54<126.887 215.023> 834 61<-258.484 -128.852>
VStem: -400 81<674 782.439>
AnchorPoint: "Diacritic" -156 506 mark 0
LayerCount: 2
Fore
SplineSet
-281 725 m 1
 -281 507 l 1
 -210 507 l 1
 -210 602 l 1
 -114 602 l 1
 -114 507 l 1
 -49 507 l 1
 -49 728 l 1
 -114 728 l 1
 -114 643 l 1
 -210 643 l 1
 -210 725 l 1
 -281 725 l 1
-400 685 m 0
 -400 701 -396 725 -395 752 c 0
 -395 756 -394 759 -392 763 c 0
 -382 788 -372 809 -356 827 c 0
 -353 831 -351 832 -346 834 c 0
 -307 853 -271 869 -229 885 c 0
 -226 886 -224 887 -220 888 c 0
 -204 891 -191 895 -168 895 c 0
 -86 895 -43 845 25 800 c 0
 79 764 133 725 201 717 c 0
 230 714 222 686 206 676 c 0
 188 665 174 663 150 663 c 0
 77 663 17 706 -46 754 c 0
 -103 797 -141 833 -214 834 c 0
 -228 834 -241 830 -256 822 c 0
 -280 809 -294 802 -309 783 c 0
 -318 771 -318 761 -319 746 c 0
 -320 722 -319 707 -319 686 c 0
 -319 681 -323 674 -329 674 c 2
 -391 674 l 2
 -396 674 -400 680 -400 685 c 0
EndSplineSet
Validated: 41
LCarets2: 1 0
Ligature2: "'ccmp' Precomposed Glyphs for Cyrillic-1" uni2DE9 uni0487
EndChar

StartChar: uni2DEC0487
Encoding: 62700 62700 18
Width: 1
GlyphClass: 4
Flags: W
HStem: 663 54<126.887 215.023> 711 24<-190.714 -145.932> 834 61<-258.484 -128.852>
VStem: -400 81<674 782.439> -266 61<550.444 629 644.534 706.092> -258 62<506.062 606.556 641.592 679.431>
AnchorPoint: "Diacritic" -165 500 mark 0
LayerCount: 2
Fore
SplineSet
-266 492 m 1x78
 -262 506 -258 516 -258 546 c 0x74
 -258 585 -266 648 -266 681 c 0
 -266 721 -208 735 -168 735 c 0
 -126 735 -75 714 -77 671 c 0
 -78 630 -131 609 -168 615 c 0
 -184 616 -192 619 -205 629 c 1x78
 -196 528 l 2x74
 -195 504 -266 492 -266 492 c 1x78
-201 671 m 0
 -196 654 -187 641 -168 641 c 0
 -152 641 -139 654 -136 671 c 0
 -135 690 -150 711 -168 711 c 0
 -188 710 -203 690 -201 671 c 0
-400 685 m 0
 -400 701 -396 725 -395 752 c 0
 -395 756 -394 759 -392 763 c 0
 -382 788 -372 809 -356 827 c 0
 -353 831 -351 832 -346 834 c 0
 -307 853 -271 869 -229 885 c 0
 -226 886 -224 887 -220 888 c 0
 -204 891 -191 895 -168 895 c 0
 -86 895 -43 845 25 800 c 0
 79 764 133 725 201 717 c 0
 230 714 222 686 206 676 c 0
 188 665 174 663 150 663 c 0xb0
 77 663 17 706 -46 754 c 0
 -103 797 -141 833 -214 834 c 0
 -228 834 -241 830 -256 822 c 0
 -280 809 -294 802 -309 783 c 0
 -318 771 -318 761 -319 746 c 0
 -320 722 -319 707 -319 686 c 0
 -319 681 -323 674 -329 674 c 2
 -391 674 l 2
 -396 674 -400 680 -400 685 c 0
EndSplineSet
Validated: 33
LCarets2: 1 0
Ligature2: "'ccmp' Precomposed Glyphs for Cyrillic-1" uni2DEC uni0487
EndChar

StartChar: uni2DF10487
Encoding: 62705 62705 19
Width: 1
GlyphClass: 4
Flags: W
HStem: 663 54<126.887 215.023> 834 61<-258.484 -128.852>
VStem: -400 81<674 782.439>
AnchorPoint: "Diacritic" -157 505 mark 0
LayerCount: 2
Fore
SplineSet
-284 723 m 1
 -278 669 -266 638 -220 614 c 0
 -189 597 -120 597 -120 597 c 1
 -120 504 l 1
 -54 504 l 1
 -54 723 l 1
 -120 723 l 1
 -120 630 l 1
 -120 630 -167 630 -189 646 c 0
 -214 666 -204 723 -204 723 c 1
 -284 723 l 1
-400 685 m 0
 -400 701 -396 725 -395 752 c 0
 -395 756 -394 759 -392 763 c 0
 -382 788 -372 809 -356 827 c 0
 -353 831 -351 832 -346 834 c 0
 -307 853 -271 869 -229 885 c 0
 -226 886 -224 887 -220 888 c 0
 -204 891 -191 895 -168 895 c 0
 -86 895 -43 845 25 800 c 0
 79 764 133 725 201 717 c 0
 230 714 222 686 206 676 c 0
 188 665 174 663 150 663 c 0
 77 663 17 706 -46 754 c 0
 -103 797 -141 833 -214 834 c 0
 -228 834 -241 830 -256 822 c 0
 -280 809 -294 802 -309 783 c 0
 -318 771 -318 761 -319 746 c 0
 -320 722 -319 707 -319 686 c 0
 -319 681 -323 674 -329 674 c 2
 -391 674 l 2
 -396 674 -400 680 -400 685 c 0
EndSplineSet
Validated: 41
LCarets2: 1 0
Ligature2: "'ccmp' Precomposed Glyphs for Cyrillic-1" uni2DF1 uni0487
EndChar

StartChar: uni2DED0487
Encoding: 62701 62701 20
Width: 1
GlyphClass: 4
Flags: W
HStem: 519 46<-268.333 -218.563> 675 67<-272.877 -216.38> 678 57<3.56836 76.6973> 850 63<-351.122 -220.244>
VStem: -516 89<674 788.516> -349 70<576.472 672.227>
AnchorPoint: "Diacritic" -261 518 mark 0
LayerCount: 2
Fore
SplineSet
-516 685 m 0xbc
 -516 701 -512 725 -511 752 c 0
 -511 756 -510 759 -508 763 c 0
 -498 788 -470 825 -454 843 c 0
 -451 847 -449 848 -444 850 c 0
 -405 869 -368 885 -326 901 c 0
 -323 902 -322 905 -318 906 c 0
 -302 909 -283 913 -260 913 c 0
 -178 913 -133 873 -74 818 c 0
 -30 777 0 748 63 735 c 0
 92 729 83 700 67 690 c 0
 49 679 34 678 10 678 c 0
 -63 678 -90 717 -144 770 c 0
 -195 820 -239 849 -312 850 c 0
 -326 850 -339 846 -354 838 c 0
 -378 825 -400 807 -417 783 c 0
 -426 771 -426 761 -427 746 c 0
 -428 722 -427 707 -427 686 c 0
 -427 681 -431 674 -437 674 c 2
 -507 674 l 2
 -512 674 -516 680 -516 685 c 0xbc
-216 721 m 0
 -208 708 -210 683 -218 675 c 0
 -227 665 -240 676 -249 675 c 0
 -269 673 -280 649 -279 616 c 0
 -278 584 -251 564 -224 565 c 0
 -213 565 -210 541 -218 533 c 0
 -230 522 -243 519 -261 519 c 0
 -314 519 -349 569 -349 621 c 0
 -349 685 -303 742 -261 742 c 0xdc
 -239 742 -224 735 -216 721 c 0
EndSplineSet
Validated: 33
LCarets2: 1 0
Ligature2: "'ccmp' Precomposed Glyphs for Cyrillic-1" uni2DED uni0487
EndChar

StartChar: uni0450
Encoding: 1104 1104 21
Width: 280
Flags: W
HStem: -2 21G<65.5 132> 184 98<156.453 234.179> 352 89<171.262 239.972>
VStem: 47 90<95.4314 163.249 258 321.16>
AnchorPoint: "Yerok" 140 801 basechar 0
AnchorPoint: "Diacritic" 142 799 basechar 0
LayerCount: 2
Fore
SplineSet
226 441 m 0
 237 442 238 437 239 429 c 0
 241 412 243 385 239 363 c 0
 238 355 237 353 227 352 c 0
 175 345 136 315 137 277 c 2
 137 258 l 1
 147 261 158 265 166 268 c 0
 180 273 202 281 217 282 c 0
 234 283 233 275 234 267 c 0
 236 252 235 218 234 202 c 0
 233 190 233 187 221 184 c 0
 194 178 160 166 138 152 c 1
 139 126 140 104 141 95 c 1
 163 100 187 114 209 121 c 0
 227 127 225 114 225 94 c 0
 225 58 192 -2 72 -2 c 0
 59 -2 51 1 51 13 c 0
 55 113 51 164 47 269 c 0
 43 380 124 433 226 441 c 0
158 544 m 2
 164 532 157 513 144 509 c 0
 131 505 114 510 107 521 c 2
 -30 735 l 2
 -34 742 -25 752 -17 752 c 2
 40 752 l 2
 50 752 58 746 62 738 c 2
 158 544 l 2
EndSplineSet
Validated: 33
LCarets2: 1 0
Ligature2: "'ccmp' Precomposed Glyphs for Cyrillic-1" afii10070 gravecomb
EndChar

StartChar: uni0472
Encoding: 1138 1138 22
Width: 861
Flags: W
HStem: 214 40<2 39 140 226 350 533 652 731.284>
VStem: 39 101<-12 214> 213 118<255.688 461.952> 533 108<167.82 214> 544 115<254.844 434.896> 734 24<11.2257 60.1323>
AnchorPoint: "Yerok" 600 754 basechar 0
AnchorPoint: "Diacritic" 430 754 basechar 0
LayerCount: 2
Fore
SplineSet
39 214 m 1xf4
 2 214 l 1
 2 254 l 1
 226 254 l 1
 216 288 211 325 213 366 c 0
 218 528 376 688 512 680 c 1
 515 649 521 611 540 588 c 0
 584 536 664 443 659 310 c 0xec
 658 290 655 272 652 254 c 1
 861 254 l 2
 877 254 872 226 861 214 c 0
 827 179 801 132 779 82 c 0
 769 60 762 41 758 19 c 0
 756 7 737 6 734 21 c 0
 727 59 725 97 729 154 c 0
 731 178 738 214 715 214 c 2
 641 214 l 1
 593 75 458 -5 363 -3 c 1
 359 22 350 51 331 74 c 0
 292 121 261 166 241 214 c 1
 140 214 l 1
 140 -12 l 1
 39 -12 l 1
 39 214 l 1xf4
544 309 m 0
 547 416 525 484 496 561 c 0
 486 587 480 606 476 635 c 1
 393 616 336 519 331 374 c 0
 329 326 332 290 340 254 c 1
 539 254 l 1
 541 272 543 290 544 309 c 0
391 42 m 1
 472 61 514 128 533 214 c 1xf4
 350 214 l 1
 356 192 363 168 372 140 c 0
 383 104 389 74 391 42 c 1
EndSplineSet
Validated: 33
EndChar

StartChar: uni047A
Encoding: 1146 1146 23
Width: 1036
Flags: W
HStem: -66 171<461.647 574.353> 571 171<460.815 573.76>
VStem: 31 134<226.303 449.583> 871 134<226.303 449.583>
AnchorPoint: "Yerok" 900 754 basechar 0
AnchorPoint: "Diacritic" 520 800 basechar 0
LayerCount: 2
Fore
SplineSet
518 742 m 0
 555 742 588 717 599 683 c 1
 822 666 1005 577 1005 338 c 0
 1005 99 822 9 600 -7 c 1
 589 -41 556 -66 518 -66 c 0
 480 -66 447 -41 436 -7 c 1
 213 9 31 99 31 338 c 0
 31 577 213 666 436 683 c 1
 448 717 480 742 518 742 c 0
518 105 m 0
 555 105 588 80 599 46 c 1
 755 71 871 170 871 338 c 0
 871 506 755 604 599 629 c 1
 588 595 556 571 518 571 c 0
 480 571 448 595 436 629 c 1
 280 604 165 506 165 338 c 0
 165 170 280 71 436 46 c 1
 448 80 480 105 518 105 c 0
EndSplineSet
Validated: 1
EndChar

StartChar: uni0470
Encoding: 1136 1136 24
Width: 850
Flags: W
HStem: 0 40<298 380 476 548> 660 20G<17 173.5>
VStem: 17 120<560 680> 205 93<40 254.213> 379 111<410.5 1045.09> 380 96<-131.308 0 40 304.643> 548 44<51.8496 393.802>
AnchorPoint: "Yerok" 690 754 basechar 0
AnchorPoint: "Diacritic" 640 754 basechar 0
LayerCount: 2
Fore
SplineSet
474 -100 m 1xf6
 491 -132 518 -156 537 -170 c 0
 542 -174 542 -184 537 -186 c 0
 502 -205 466 -227 435 -253 c 0
 430 -257 424 -257 419 -253 c 0
 388 -227 352 -205 317 -186 c 0
 312 -184 312 -174 317 -170 c 0
 336 -156 363 -132 380 -100 c 1
 380 0 l 1
 205 0 l 1
 208 69 210 191 191 310 c 0
 166 466 92 602 17 680 c 1
 137 680 l 1
 210 601 258 477 285 336 c 0
 305 230 302 99 298 40 c 1
 380 40 l 1xf6
 379 782 l 2
 378 929 376 1012 356 1049 c 0
 351 1059 334 1084 352 1088 c 2
 510 1126 l 2
 528 1130 524 1103 516 1092 c 0
 485 1048 493 925 490 781 c 2xfa
 476 40 l 1
 548 40 l 1
 545 85 545 180 549 264 c 0
 553 364 577 466 615 539 c 0
 650 607 713 659 769 676 c 0
 809 688 871 693 918 705 c 0
 925 707 935 698 930 692 c 0
 908 665 878 594 869 545 c 0
 868 537 854 535 849 540 c 0
 829 560 798 581 763 580 c 0
 726 579 681 550 658 506 c 0
 623 439 596 356 592 262 c 0
 588 169 589 73 594 35 c 0
 596 21 597 11 600 0 c 1
 476 0 l 1
 474 -100 l 1xf6
EndSplineSet
Validated: 33
EndChar

StartChar: uni047C
Encoding: 1148 1148 25
Width: 870
Flags: W
HStem: -4 97<173.967 323.82 517.395 696.672> 338 89<575.677 704.685> 350 83<157.937 280.449> 467 49<782.322 847.795> 578 77<394.95 475.286> 716 54<337.042 505.562>
VStem: 24 91<150.587 305.292> 142 117<544 627.796> 299 88<284.128 329.948> 317 61<440.708 560.698> 485 74<470.18 570.153> 755 88<147.563 287.383>
AnchorPoint: "Yerok" 428 844 basechar 0
AnchorPoint: "Diacritic" 430 844 basechar 0
LayerCount: 2
Fore
SplineSet
486 138 m 0xbfb0
 512 115 544 92 602 92 c 0
 687 92 755 132 755 216 c 0
 755 285 710 338 629 338 c 0
 594 338 575 320 555 291 c 0
 542 272 516 271 498 277 c 0
 480 283 470 317 477 338 c 0
 496 395 559 427 629 427 c 0xdfb0
 753 427 843 344 843 210 c 0
 843 81 742 -2 601 -3 c 0
 523 -4 461 49 423 78 c 1
 381 46 311 -4 222 -4 c 0
 102 -4 24 106 24 222 c 0
 24 332 103 433 213 433 c 0
 296 433 387 399 387 319 c 0
 387 294 370 281 352 279 c 0
 333 277 308 285 299 304 c 0
 282 340 253 350 217 350 c 0
 153 350 115 292 115 230 c 0
 115 150 163 91 255 93 c 0
 301 94 347 99 392 129 c 0
 410 141 432 163 454 166 c 0
 459 167 473 149 486 138 c 0xbfb0
147 544 m 2
 143 544 142 550 142 554 c 0
 147 601 164 645 203 674 c 0
 204 675 207 676 210 678 c 0
 233 693 318 740 349 755 c 2
 357 759 l 2
 380 768 400 770 428 770 c 0
 537 770 624 746 685 653 c 0
 726 590 753 538 831 516 c 0
 840 514 848 503 848 492 c 0
 848 480 841 468 829 467 c 0
 796 464 739 474 708 497 c 0
 668 527 634 568 591 619 c 0
 541 678 497 717 420 716 c 0
 394 716 373 713 355 708 c 0
 354 708 349 705 347 703 c 0
 338 696 298 662 290 654 c 0
 288 652 286 649 285 648 c 0
 266 620 259 577 259 550 c 0
 259 546 255 544 251 544 c 2
 147 544 l 2
500 430 m 0
 493 426 476 422 468 425 c 0
 458 429 456 439 459 448 c 0
 469 473 485 485 485 517 c 0
 485 547 471 578 439 578 c 0
 401 578 378 543 378 507 c 0
 378 480 384 476 384 451 c 0
 384 441 378 432 371 430 c 0
 360 427 346 432 340 439 c 0
 325 457 317 482 317 511 c 0x9f70
 317 583 360 655 432 655 c 0
 494 655 559 615 559 550 c 0
 559 495 531 449 500 430 c 0
EndSplineSet
Validated: 33
LCarets2: 1 0
Ligature2: "'ccmp' Round 2 of Cyrillic Composition-1" uniA64C uni04860311
EndChar

StartChar: uni047E
Encoding: 1150 1150 26
Width: 987
Flags: W
HStem: -6 40<277.475 429.745 555.898 709.525> 302 31<396.766 422.568 562.828 589.234> 440 158<346.736 416.027 571.26 639.868> 641 42<259.714 393.585 593.415 727.286> 713 160<434 552> 833 40<330 434 552 658>
VStem: 36 128<196.182 484.51> 321 158<465.736 572.538> 394 198<118.918 196.745> 434 118<713 833> 508 158<466.132 572.538> 823 128<196.182 484.51>
AnchorPoint: "Yerok" 870 754 basechar 0
AnchorPoint: "Diacritic" 870 754 basechar 0
LayerCount: 2
Fore
SplineSet
592 158 m 0xf290
 592 131 569 108 524 101 c 0
 523 99 522 96 521 94 c 0
 537 59 575 34 625 34 c 0
 781 34 823 171 823 344 c 0
 823 470 791 641 659 641 c 0
 622 641 590 625 570 597 c 1
 576 598 581 598 587 598 c 0
 631 598 666 562 666 519 c 0
 666 476 630 440 587 440 c 0
 544 440 508 475 508 519 c 0
 508 612 554 683 674 683 c 0
 842 683 951 529 951 360 c 0
 951 109 841 -6 621 -6 c 0
 571 -6 525 18 493 54 c 1
 460 18 411 -6 366 -6 c 0
 146 -6 36 109 36 360 c 0
 36 529 145 683 313 683 c 0
 433 683 479 612 479 519 c 0
 479 475 444 440 400 440 c 0
 356 440 321 476 321 519 c 0xf330
 321 562 356 598 400 598 c 0
 406 598 411 598 417 597 c 1
 397 625 365 641 328 641 c 0
 196 641 164 470 164 344 c 0
 164 171 206 34 362 34 c 0
 412 34 449 59 466 95 c 1
 463 101 l 1
 417 108 394 130 394 158 c 0
 394 185 417 209 462 216 c 1
 452 256 431 287 400 302 c 0
 389 307 394 333 406 333 c 0
 443 332 459 330 493 330 c 0
 527 330 543 332 580 333 c 0
 592 333 597 307 586 302 c 0
 554 287 533 255 523 215 c 1
 568 208 592 185 592 158 c 0xf290
194 873 m 2xf650
 795 873 l 2
 812 873 809 846 789 830 c 0
 750 798 731 780 696 734 c 0
 686 720 658 715 658 734 c 2
 658 833 l 1
 552 833 l 1xf650
 552 713 l 1
 434 713 l 1xfa50
 434 833 l 1
 330 833 l 1
 330 734 l 2
 330 715 302 720 292 734 c 0
 256 781 238 798 199 830 c 0
 179 846 176 873 194 873 c 2xf650
EndSplineSet
Validated: 33
EndChar

StartChar: uni0478
Encoding: 1144 1144 27
Width: 1042
Flags: W
HStem: -5 46<245.78 311.954> 325 119<933.834 1001.72> 417 20G<604 689.5> 636 46<265.456 330.483>
VStem: 37 121<246.318 454.968> 425 113<215.038 424.445> 788 50<-181.243 -90.1141>
AnchorPoint: "Yerok" 928 502 basechar 0
AnchorPoint: "Diacritic" 817 502 basechar 0
LayerCount: 2
Fore
SplineSet
365 682 m 1x9e
 370 652 381 616 402 592 c 0
 449 537 538 451 538 318 c 0
 538 121 338 -5 218 -5 c 1
 212 20 199 46 177 71 c 0
 95 164 37 241 37 358 c 0
 37 520 212 682 365 682 c 1x9e
249 41 m 1
 375 42 426 185 425 313 c 0
 424 420 389 487 351 563 c 0
 338 589 331 607 326 636 c 1
 216 636 158 515 158 370 c 0
 158 277 186 232 223 138 c 0
 237 102 245 73 249 41 c 1
685 437 m 2xbe
 694 437 702 429 705 423 c 0
 742 343 766 185 777 101 c 1
 786 102 794 102 801 103 c 1
 809 152 815 232 835 314 c 0
 853 388 913 440 979 444 c 0
 1006 446 1032 442 1027 418 c 0
 1025 407 1009 393 1004 376 c 0
 1000 360 1005 344 1002 338 c 0
 996 327 990 325 977 325 c 0xde
 956 325 951 345 933 344 c 0
 909 343 886 321 882 301 c 0
 851 146 844 -116 838 -300 c 0
 836 -348 823 -389 793 -415 c 0
 755 -448 736 -418 746 -398 c 0
 766 -359 773 -335 776 -294 c 0
 780 -218 785 -78 788 32 c 1
 763 29 735 21 704 10 c 0
 695 7 687 14 686 25 c 0
 675 130 649 306 596 419 c 0
 593 426 600 437 608 437 c 2
 685 437 l 2xbe
EndSplineSet
Validated: 33
EndChar

StartChar: uni0474
Encoding: 1140 1140 28
Width: 616
Flags: W
HStem: 0 40<88 146 261 329 369 420> 636 40<27 81>
DStem2: 198 676 81 636 0.0985742 -0.99513<28.272 627.777> 329 40 369 40 0.0836388 0.996496<3.34555 497.081>
AnchorPoint: "Yerok" 490 754 basechar 0
AnchorPoint: "Diacritic" 310 754 basechar 0
LayerCount: 2
Fore
SplineSet
420 0 m 1
 88 0 l 1
 88 40 l 1
 146 40 l 1
 81 636 l 1
 27 636 l 1
 27 676 l 1
 198 676 l 1
 261 40 l 1
 329 40 l 1
 364 457 l 2
 369 520 395 578 418 605 c 0
 431 621 461 652 496 659 c 0
 538 667 566 677 593 682 c 0
 600 683 606 676 604 669 c 0
 596 637 593 588 594 537 c 0
 594 530 586 522 580 525 c 0
 538 546 523 554 483 554 c 0
 434 554 409 516 404 454 c 2
 369 40 l 1
 420 40 l 1
 420 0 l 1
EndSplineSet
Validated: 33
EndChar

StartChar: uni0460
Encoding: 1120 1120 29
Width: 972
Flags: W
HStem: 662 20G<169.5 189.5>
VStem: 38 123<301.44 613.464> 396 132<257.735 529.694> 823 116<344.945 550.37>
AnchorPoint: "Yerok" 820 754 basechar 0
AnchorPoint: "Diacritic" 490 754 basechar 0
LayerCount: 2
Fore
SplineSet
82 662 m 0
 112 672 152 680 187 682 c 0
 192 682 201 677 199 672 c 0
 183 623 161 538 161 450 c 0
 161 297 227 150 322 90 c 1
 343 107 401 163 438 202 c 1
 411 262 396 328 396 396 c 0
 396 500 414 592 438 660 c 0
 441 668 448 674 456 676 c 0
 494 687 562 699 604 702 c 0
 612 703 621 690 616 682 c 0
 573 616 528 498 528 380 c 0
 528 245 589 144 686 90 c 1
 755 141 823 265 823 390 c 0
 823 482 807 557 771 623 c 0
 768 628 771 636 775 639 c 0
 808 660 851 682 895 693 c 0
 900 694 903 688 905 683 c 0
 918 644 939 579 939 512 c 0
 939 284 824 77 654 -4 c 0
 646 -8 640 -8 632 -4 c 0
 561 28 502 86 460 158 c 1
 410 105 323 19 295 -4 c 0
 290 -8 282 -6 279 -4 c 0
 108 97 38 272 38 482 c 0
 38 542 50 604 70 652 c 0
 72 657 76 660 82 662 c 0
EndSplineSet
Validated: 1
EndChar

StartChar: uni046E
Encoding: 1134 1134 30
Width: 597
Flags: W
HStem: -310 62<178.602 301.687> -6 70<202.362 417.303> 105 40<33 67 187 221> 331 47<253.407 385.683> 425 40<41 75 189 223> 800 82<418.033 504>
VStem: 51 103<-223.733 -80.8577> 67 120<145 243.422> 75 114<465 558.34> 441 115<435.62 582.596> 455 114<107.26 265.971>
DStem2: 339 730 178 871 0.438157 -0.898899<-178.255 0>
AnchorPoint: "Yerok" 490 964 basechar 0
AnchorPoint: "Diacritic" 330 964 basechar 0
LayerCount: 2
Fore
SplineSet
189 465 m 1xfcc0
 223 465 l 1
 223 425 l 1
 41 425 l 1
 41 465 l 1
 75 465 l 1
 75 571 149 667 271 679 c 1
 178 871 l 2
 176 876 179 881 183 881 c 2
 260 881 l 2
 264 881 267 878 269 874 c 2
 339 730 l 1
 366 816 l 2
 375 843 387 863 411 876 c 0
 415 878 419 882 425 882 c 2
 525 882 l 2
 538 882 551 854 531 840 c 2
 477 803 l 2
 473 800 472 801 467 800 c 0
 464 799 418 788 418 788 c 2
 413 787 412 783 410 779 c 2
 364 679 l 1
 366 675 l 1
 472 660 556 608 556 504 c 0xfcc0
 556 422 483 371 437 358 c 1
 513 330 569 269 569 175 c 0xfc20
 569 50 457 -6 322 -6 c 0
 294 -6 245 -3 220 -12 c 0
 217 -13 216 -14 214 -16 c 0
 187 -39 154 -84 154 -151 c 0
 154 -209 172 -248 244 -248 c 0
 314 -248 346 -214 390 -172 c 0
 393 -169 395 -167 399 -166 c 0
 412 -164 439 -159 457 -161 c 1
 494 -201 514 -215 555 -249 c 0
 560 -253 562 -260 556 -266 c 0
 536 -284 498 -299 476 -297 c 0
 472 -297 468 -293 466 -291 c 0
 436 -265 421 -246 400 -218 c 1
 354 -259 296 -310 205 -310 c 0
 112 -310 51 -241 51 -157 c 0xfe40
 51 -55 162 22 206 49 c 0
 208 50 211 53 214 54 c 0
 264 76 303 64 358 64 c 0
 428 64 454 124 455 188 c 0
 456 269 417 331 323 331 c 0
 223 331 187 237 187 145 c 1
 221 145 l 1
 221 105 l 1
 33 105 l 1
 33 145 l 1
 67 145 l 1xfd20
 67 292 183 378 323 378 c 0
 332 378 340 377 349 377 c 0
 388 395 441 433 441 513 c 0
 441 582 389 635 313 635 c 0
 214 635 188 555 189 465 c 1xfcc0
EndSplineSet
Validated: 33
EndChar

StartChar: uni0476
Encoding: 1142 1142 31
Width: 619
Flags: W
HStem: 0 40<88 146 261 329 369 420> 636 40<27 81> 741 135<215.734 257.266 341.734 383.266>
DStem2: 198 676 81 636 0.0985742 -0.99513<28.272 627.777> 284 754 189 863 0.257111 -0.966382<-132.056 2.30449> 410 754 315 863 0.257111 -0.966382<-132.064 2.30449> 329 40 369 40 0.0836388 0.996496<3.34555 497.081>
AnchorPoint: "Yerok" 510 754 basechar 0
AnchorPoint: "Diacritic" 290 934 basechar 0
LayerCount: 2
Fore
SplineSet
420 0 m 1
 88 0 l 1
 88 40 l 1
 146 40 l 1
 81 636 l 1
 27 636 l 1
 27 676 l 1
 198 676 l 1
 261 40 l 1
 329 40 l 1
 364 457 l 2
 369 520 395 578 418 605 c 0
 431 621 461 652 496 659 c 0
 538 667 566 677 593 682 c 0
 600 683 606 676 604 669 c 0
 596 637 593 588 594 537 c 0
 594 530 586 522 580 525 c 0
 538 546 523 554 483 554 c 0
 434 554 409 516 404 454 c 2
 369 40 l 1
 420 40 l 1
 420 0 l 1
315 863 m 2
 313 869 317 876 324 876 c 2
 370 876 l 2
 375 876 380 868 381 863 c 2
 410 754 l 2
 412 748 406 741 399 741 c 2
 357 741 l 2
 352 741 345 749 344 754 c 2
 315 863 l 2
189 863 m 2
 187 869 191 876 198 876 c 2
 242 876 l 2
 247 876 254 868 255 863 c 2
 284 754 l 2
 286 748 280 741 273 741 c 2
 231 741 l 2
 226 741 219 749 218 754 c 2
 189 863 l 2
EndSplineSet
Validated: 33
LCarets2: 1 0
Ligature2: "'ccmp' Precomposed Glyphs for Cyrillic-1" uni0474 uni030F
EndChar

StartChar: uni0466
Encoding: 1126 1126 32
Width: 859
Flags: W
HStem: 0 40<22 76 185.155 247 314 368 486 540 605 662.314 783 837> 390 40<327 368 486 521> 636 40<272 334.041 505 559>
VStem: 72 104<40.5778 229.391> 368 118<40 390> 663 130<40.9635 233.12>
DStem2: 520 597 414 566 0.617031 -0.786939<-39.3363 132.036 182.641 343.069>
AnchorPoint: "Yerok" 690 754 basechar 0
AnchorPoint: "Diacritic" 410 754 basechar 0
LayerCount: 2
Fore
SplineSet
837 0 m 1
 605 0 l 1
 605 40 l 1
 659 40 l 1
 664 59 663 76 663 99 c 0
 663 220 620 299 552 390 c 1
 486 390 l 1
 486 40 l 1
 540 40 l 1
 540 0 l 1
 314 0 l 1
 314 40 l 1
 368 40 l 1
 368 390 l 1
 297 390 l 1
 283 372 269 353 254 334 c 0
 201 264 176 206 176 119 c 0
 176 88 185 54 193 40 c 1
 247 40 l 1
 247 0 l 1
 22 0 l 1
 22 40 l 1
 76 40 l 1
 75 50 72 82 72 114 c 0
 72 223 120 300 193 379 c 0
 259 451 320 491 332 588 c 0
 334 606 335 620 333 636 c 1
 272 636 l 1
 272 676 l 1
 559 676 l 1
 559 636 l 1
 505 636 l 1
 507 621 511 610 520 597 c 0
 554 550 598 506 646 446 c 0
 722 351 793 253 793 127 c 0
 793 93 787 62 783 40 c 1
 837 40 l 1
 837 0 l 1
414 566 m 0
 407 575 400 584 395 593 c 1
 384 525 359 476 327 430 c 1
 521 430 l 1
 478 486 452 517 414 566 c 0
EndSplineSet
Validated: 33
EndChar

StartChar: bracketleft
Encoding: 91 91 33
Width: 304
Flags: W
LayerCount: 2
Fore
SplineSet
304 -240 m 1
 56 -240 l 1
 56 800 l 1
 304 800 l 1
 304 760 l 1
 138 760 l 1
 138 -200 l 1
 304 -200 l 1
 304 -240 l 1
EndSplineSet
Validated: 1
EndChar

StartChar: bracketright
Encoding: 93 93 34
Width: 304
Flags: W
LayerCount: 2
Fore
SplineSet
0 800 m 1
 248 800 l 1
 248 -240 l 1
 0 -240 l 1
 0 -200 l 1
 166 -200 l 1
 166 760 l 1
 0 760 l 1
 0 800 l 1
EndSplineSet
Validated: 1
EndChar

StartChar: uni2E2F
Encoding: 11823 11823 35
Width: 210
Flags: W
HStem: 756 203
LayerCount: 2
Fore
SplineSet
145 959 m 0
 164 969 190 949 175 931 c 0
 166 920 147 900 135 890 c 0
 133 888 136 884 138 882 c 0
 148 871 160 858 172 845 c 0
 181 835 181 819 170 811 c 0
 139 788 105 770 81 756 c 0
 69 749 26 761 39 773 c 0
 51 784 63 799 74 811 c 0
 76 813 76 818 73 821 c 0
 68 827 48 850 40 860 c 0
 30 872 33 890 43 897 c 0
 75 919 115 944 145 959 c 0
EndSplineSet
Validated: 33
EndChar

StartChar: grave
Encoding: 96 96 36
Width: 235
Flags: W
LayerCount: 2
Fore
SplineSet
47 567 m 0
 67 517 112 474 148 453 c 0
 153 450 161 453 152 463 c 0
 103 526 67 597 105 646 c 0
 124 668 173 652 197 619 c 0
 202 613 211 617 207 625 c 0
 177 689 115 747 74 730 c 0
 32 712 21 637 47 567 c 0
EndSplineSet
Validated: 41
EndChar

StartChar: uni2DE3
Encoding: 11747 11747 37
Width: 1
Flags: W
HStem: 558 40<-259.549 -205.336 -174 -80 -10.1719 8.66762>
DStem2: -105 780 -149 715 0.504181 -0.863598<-17.0685 42.0523 74.2594 169.779>
AnchorPoint: "Diacritic" -132 500 mark 0
LayerCount: 2
Fore
SplineSet
84 598 m 2
 101 598 93 574 83 565 c 0
 63 547 46 524 33 503 c 0
 31 499 23 499 22 503 c 0
 19 521 9 540 -4 558 c 1
 -248 558 l 1
 -260 541 -267 523 -272 504 c 0
 -273 499 -284 499 -288 504 c 0
 -307 530 -322 549 -341 565 c 0
 -351 574 -354 598 -337 598 c 2
 -212 598 l 1
 -206 617 -199 635 -188 657 c 0
 -176 680 -163 699 -149 715 c 1
 -165 742 -178 765 -181 771 c 1
 -196 775 l 1
 -208 744 -227 710 -247 684 c 0
 -251 678 -255 674 -263 674 c 2
 -326 674 l 2
 -334 674 -332 688 -326 694 c 0
 -292 729 -268 775 -248 815 c 0
 -243 825 -230 822 -219 819 c 0
 -185 808 -143 798 -117 793 c 0
 -110 792 -108 784 -105 780 c 0
 -96 765 -21 634 0 598 c 1
 84 598 l 2
-80 598 m 1
 -89 613 -109 646 -129 680 c 1
 -138 668 -147 655 -155 640 c 0
 -164 625 -169 611 -174 598 c 1
 -80 598 l 1
EndSplineSet
Validated: 33
EndChar

StartChar: uni0473
Encoding: 1139 1139 38
Width: 714
Flags: W
HStem: 0 40<155 250 445 551>
VStem: 54 101<-158 -0.299973> 241 61<41.2909 217.961> 393 61<41.2444 213.305>
AnchorPoint: "Yerok" 548 502 basechar 0
AnchorPoint: "Diacritic" 345 502 basechar 0
LayerCount: 2
Fore
SplineSet
54 -19 m 2
 54 -3 47 -8 37 10 c 0
 30 22 32 40 46 40 c 2
 250 40 l 1
 244 71 241 102 241 132 c 0
 241 225 298 392 337 436 c 0
 342 442 352 442 357 436 c 0
 397 390 454 220 454 126 c 0
 454 99 451 69 445 40 c 1
 677 40 l 2
 691 40 698 14 685 3 c 0
 660 -18 609 -98 598 -121 c 0
 594 -128 587 -141 576 -141 c 0
 566 -141 559 -141 557 -130 c 0
 551 -100 549 -21 551 0 c 1
 436 0 l 1
 420 -60 393 -115 358 -147 c 0
 351 -153 342 -152 336 -147 c 0
 302 -116 275 -61 259 0 c 1
 164 0 l 2
 159 0 155 -5 155 -10 c 2
 155 -142 l 2
 155 -150 151 -158 143 -158 c 2
 68 -158 l 2
 60 -158 54 -150 54 -142 c 2
 54 -19 l 2
345 252 m 1
 316 219 302 165 302 120 c 0
 302 93 304 64 316 40 c 1
 378 40 l 1
 389 64 393 93 393 119 c 0
 393 164 372 228 345 252 c 1
EndSplineSet
Validated: 33
EndChar

StartChar: uni2DE20487
Encoding: 62690 62690 39
Width: 1
GlyphClass: 4
Flags: W
HStem: 663 54<126.887 215.023> 686 40<-211 -132.732> 834 61<-258.484 -128.852>
VStem: -400 81<674 782.439> -281 70<506 686>
AnchorPoint: "Diacritic" -176 505 mark 0
LayerCount: 2
Fore
SplineSet
-400 685 m 0x78
 -400 701 -396 725 -395 752 c 0
 -395 756 -394 759 -392 763 c 0
 -382 788 -372 809 -356 827 c 0
 -353 831 -351 832 -346 834 c 0
 -307 853 -271 869 -229 885 c 0
 -226 886 -224 887 -220 888 c 0
 -204 891 -191 895 -168 895 c 0
 -86 895 -43 845 25 800 c 0
 79 764 133 725 201 717 c 0
 230 714 222 686 206 676 c 0
 188 665 174 663 150 663 c 0xb8
 77 663 17 706 -46 754 c 0
 -103 797 -141 833 -214 834 c 0
 -228 834 -241 830 -256 822 c 0
 -280 809 -294 802 -309 783 c 0
 -318 771 -318 761 -319 746 c 0
 -320 722 -319 707 -319 686 c 0
 -319 681 -323 674 -329 674 c 2
 -391 674 l 2
 -396 674 -400 680 -400 685 c 0x78
-51 694 m 0
 -68 677 -89 643 -98 624 c 0
 -101 619 -105 607 -112 607 c 0
 -117 607 -120 616 -122 623 c 0
 -127 641 -134 671 -137 686 c 1
 -206 686 l 2
 -209 686 -211 681 -211 678 c 2
 -211 514 l 2
 -211 510 -212 506 -216 506 c 2
 -275 506 l 2
 -279 506 -281 510 -281 514 c 2
 -281 715 l 2
 -281 719 -279 726 -275 726 c 2
 -58 726 l 2x78
 -38 726 -44 701 -51 694 c 0
EndSplineSet
Validated: 33
LCarets2: 1 0
Ligature2: "'ccmp' Precomposed Glyphs for Cyrillic-1" uni2DE2 uni0487
EndChar

StartChar: uni047B
Encoding: 1147 1147 40
Width: 722
Flags: W
HStem: -43 114<315.635 404.061> 366 114<315.199 403.673>
VStem: 46 107<118.056 317.741> 567 107<118.056 317.741>
AnchorPoint: "Yerok" 598 502 basechar 0
AnchorPoint: "Diacritic" 357 524 basechar 0
LayerCount: 2
Fore
SplineSet
46 218 m 0
 46 375 160 431 306 442 c 1
 314 464 335 480 360 480 c 0
 384 480 405 464 413 442 c 1
 560 431 674 375 674 218 c 0
 674 60 560 5 413 -5 c 1
 405 -27 384 -43 360 -43 c 0
 335 -43 314 -27 306 -5 c 1
 160 5 46 60 46 218 c 0
567 218 m 0
 567 328 508 389 414 405 c 1
 406 382 385 366 360 366 c 0
 335 366 313 382 306 405 c 1
 212 389 153 328 153 218 c 0
 153 108 212 47 305 31 c 1
 313 54 335 71 360 71 c 0
 385 71 407 54 414 31 c 1
 508 47 567 108 567 218 c 0
EndSplineSet
Validated: 1
EndChar

StartChar: uni0471
Encoding: 1137 1137 41
Width: 853
Flags: W
HStem: -497 51<437.936 508.01> 10 49<451 477.921>
VStem: 371 78<-227.4 8 59 298.218>
AnchorPoint: "Yerok" 668 532 basechar 0
AnchorPoint: "Diacritic" 417 892 basechar 0
LayerCount: 2
Fore
SplineSet
258 -7 m 0
 250 -8 243 -1 241 6 c 0
 201 178 109 335 28 437 c 0
 24 442 31 457 39 458 c 0
 61 461 122 460 141 458 c 0
 149 457 153 450 157 444 c 0
 216 350 309 157 348 53 c 1
 355 54 362 55 370 56 c 1
 369 65 369 73 369 82 c 0
 366 313 359 535 341 710 c 0
 340 724 329 727 313 739 c 0
 302 747 304 773 319 774 c 0
 395 779 432 778 493 794 c 0
 508 798 518 758 510 746 c 0
 500 732 499 731 497 708 c 0
 485 552 470 322 452 70 c 0
 451 66 451 62 451 59 c 1
 459 59 467 58 475 58 c 1
 504 234 602 466 763 482 c 0
 791 485 812 466 827 440 c 0
 830 435 827 429 826 424 c 0
 818 394 776 331 747 313 c 0
 744 311 736 314 733 317 c 0
 711 337 694 356 677 377 c 1
 626 327 562 227 550 120 c 0
 545 79 548 47 555 19 c 0
 557 11 549 2 541 3 c 0
 508 7 478 9 449 10 c 1
 446 -100 437 -309 425 -422 c 0
 424 -430 430 -445 437 -447 c 0
 457 -452 475 -445 494 -446 c 0
 530 -448 529 -484 496 -497 c 0
 467 -509 438 -511 404 -511 c 0
 373 -511 343 -475 346 -444 c 0
 360 -304 371 -94 371 8 c 1
 335 6 299 0 258 -7 c 0
EndSplineSet
Validated: 33
EndChar

StartChar: uni047D
Encoding: 1149 1149 42
Width: 870
Flags: W
HStem: -4 97<173.967 323.82 517.395 696.672> 338 89<575.677 704.685> 350 83<157.937 280.449> 467 49<782.322 847.795> 578 77<394.95 475.286> 716 54<337.042 505.562>
VStem: 24 91<150.587 305.292> 142 117<544 627.796> 299 88<284.128 329.948> 317 61<440.708 560.698> 485 74<470.18 570.153> 755 88<147.563 287.383>
AnchorPoint: "Yerok" 424 824 basechar 0
AnchorPoint: "Diacritic" 425 824 basechar 0
LayerCount: 2
Fore
SplineSet
486 138 m 0xbfb0
 512 115 544 92 602 92 c 0
 687 92 755 132 755 216 c 0
 755 285 710 338 629 338 c 0
 594 338 575 320 555 291 c 0
 542 272 516 271 498 277 c 0
 480 283 470 317 477 338 c 0
 496 395 559 427 629 427 c 0xdfb0
 753 427 843 344 843 210 c 0
 843 81 742 -2 601 -3 c 0
 523 -4 461 49 423 78 c 1
 381 46 311 -4 222 -4 c 0
 102 -4 24 106 24 222 c 0
 24 332 103 433 213 433 c 0
 296 433 387 399 387 319 c 0
 387 294 370 281 352 279 c 0
 333 277 308 285 299 304 c 0
 282 340 253 350 217 350 c 0
 153 350 115 292 115 230 c 0
 115 150 163 91 255 93 c 0
 301 94 347 99 392 129 c 0
 410 141 432 163 454 166 c 0
 459 167 473 149 486 138 c 0xbfb0
147 544 m 2
 143 544 142 550 142 554 c 0
 147 601 164 645 203 674 c 0
 204 675 207 676 210 678 c 0
 233 693 318 740 349 755 c 2
 357 759 l 2
 380 768 400 770 428 770 c 0
 537 770 624 746 685 653 c 0
 726 590 753 538 831 516 c 0
 840 514 848 503 848 492 c 0
 848 480 841 468 829 467 c 0
 796 464 739 474 708 497 c 0
 668 527 634 568 591 619 c 0
 541 678 497 717 420 716 c 0
 394 716 373 713 355 708 c 0
 354 708 349 705 347 703 c 0
 338 696 298 662 290 654 c 0
 288 652 286 649 285 648 c 0
 266 620 259 577 259 550 c 0
 259 546 255 544 251 544 c 2
 147 544 l 2
500 430 m 0
 493 426 476 422 468 425 c 0
 458 429 456 439 459 448 c 0
 469 473 485 485 485 517 c 0
 485 547 471 578 439 578 c 0
 401 578 378 543 378 507 c 0
 378 480 384 476 384 451 c 0
 384 441 378 432 371 430 c 0
 360 427 346 432 340 439 c 0
 325 457 317 482 317 511 c 0x9f70
 317 583 360 655 432 655 c 0
 494 655 559 615 559 550 c 0
 559 495 531 449 500 430 c 0
EndSplineSet
Validated: 33
LCarets2: 1 0
Ligature2: "'ccmp' Round 2 of Cyrillic Composition-1" uniA64D uni04860311
EndChar

StartChar: uni047F
Encoding: 1151 1151 43
Width: 699
Flags: W
HStem: 573 164<58 167> 590 147<289 399> 697 40<167 289 399 506.757>
VStem: 58 109<573 696.7> 281 103<166.064 343.572> 289 110<590 697> 563 96<186.251 326.017>
AnchorPoint: "Yerok" 338 802 basechar 0
AnchorPoint: "Diacritic" 337 802 basechar 0
LayerCount: 2
Fore
SplineSet
49 389 m 0x1a
 51 403 59 414 72 418 c 0
 109 429 142 436 182 439 c 0
 193 440 200 422 194 413 c 0
 183 396 163 383 147 369 c 0
 145 367 141 362 141 359 c 0
 130 248 159 140 221 84 c 1
 258 98 284 131 304 163 c 1
 280 228 277 317 281 384 c 0
 281 394 288 415 299 417 c 0
 334 422 384 431 430 447 c 0
 439 450 450 438 445 429 c 0
 415 376 384 306 384 222 c 0
 384 154 427 93 488 71 c 1
 535 87 564 156 563 214 c 0
 562 279 550 333 507 370 c 0
 500 376 500 392 507 394 c 0
 545 404 579 422 614 443 c 0
 622 448 639 438 642 429 c 0
 651 404 659 347 659 309 c 0
 659 217 612 58 489 -4 c 0
 483 -7 479 -6 472 -4 c 0
 418 16 374 51 335 105 c 1
 299 58 254 21 204 -4 c 0
 199 -7 195 -6 189 -4 c 0
 156 9 124 47 98 89 c 0
 43 178 38 303 49 389 c 0x1a
58 678 m 2
 58 694 51 689 41 707 c 0
 34 719 36 737 50 737 c 2
 642 737 l 2
 656 737 659 715 650 707 c 0
 626 687 594 646 584 622 c 0
 581 614 573 602 562 602 c 0
 552 602 544 615 538 625 c 0
 519 656 507 680 494 697 c 1
 409 697 l 2x36
 403 697 399 690 399 684 c 2
 399 606 l 2
 399 598 395 590 387 590 c 2
 303 590 l 2x56
 295 590 289 598 289 606 c 2
 289 684 l 2
 289 690 285 697 279 697 c 2
 176 697 l 2x36
 171 697 167 692 167 687 c 2
 167 589 l 2
 167 581 163 573 155 573 c 2
 72 573 l 2x96
 64 573 58 581 58 589 c 2
 58 678 l 2
EndSplineSet
Validated: 33
EndChar

StartChar: uni0479
Encoding: 1145 1145 44
Width: 738
Flags: W
HStem: 325 119<629.834 697.719> 417 20G<300 385.5>
VStem: 30 60<145.854 313.251> 184 60<146.761 309.447> 484 50<-181.243 -90.1141>
AnchorPoint: "Yerok" 628 502 basechar 0
AnchorPoint: "Diacritic" 497 502 basechar 0
LayerCount: 2
Fore
SplineSet
381 437 m 2x78
 390 437 398 429 401 423 c 0
 438 343 462 185 473 101 c 1
 482 102 490 102 497 103 c 1
 505 152 511 232 531 314 c 0
 549 388 609 440 675 444 c 0
 702 446 728 442 723 418 c 0
 721 407 705 393 700 376 c 0
 696 360 701 344 698 338 c 0
 692 327 686 325 673 325 c 0xb8
 652 325 647 345 629 344 c 0
 605 343 582 321 578 301 c 0
 547 146 540 -116 534 -300 c 0
 532 -348 519 -389 489 -415 c 0
 451 -448 432 -418 442 -398 c 0
 462 -359 469 -335 472 -294 c 0
 476 -218 481 -78 484 32 c 1
 459 29 431 21 400 10 c 0
 391 7 383 14 382 25 c 0
 371 130 345 306 292 419 c 0
 289 426 296 437 304 437 c 2
 381 437 l 2x78
150 446 m 0
 208 413 244 320 244 226 c 0
 244 130 210 40 145 0 c 0
 137 -5 129 -6 123 0 c 0
 69 53 30 129 30 232 c 0
 30 325 77 413 130 446 c 0
 137 450 143 450 150 446 c 0
135 347 m 1
 106 314 90 275 90 230 c 0
 90 188 104 141 138 114 c 1
 168 141 184 188 184 229 c 0
 184 274 162 323 135 347 c 1
EndSplineSet
Validated: 33
LCarets2: 1 0
Ligature2: "'ccmp' Precomposed Glyphs for Cyrillic-1" uni1C82 uni0443
EndChar

StartChar: uni0475
Encoding: 1141 1141 45
Width: 537
Flags: W
HStem: 0 21G<182 306> 310 132<428.932 491.697>
VStem: 273 40<150.692 194.533>
AnchorPoint: "Yerok" 338 502 basechar 0
AnchorPoint: "Diacritic" 337 502 basechar 0
LayerCount: 2
Fore
SplineSet
175 13 m 0
 176 32 178 59 175 85 c 0
 163 190 105 300 36 393 c 0
 29 402 27 410 27 420 c 0
 27 428 33 437 41 437 c 2
 136 437 l 2
 148 437 151 428 154 423 c 0
 205 321 252 180 258 108 c 0
 258 104 273 104 273 108 c 0
 279 206 351 442 472 442 c 0
 485 442 496 442 506 436 c 0
 511 433 513 428 512 424 c 0
 503 389 493 345 490 316 c 0
 490 312 481 308 477 310 c 0
 460 319 448 330 428 327 c 0
 410 324 391 317 380 300 c 0
 332 229 317 144 313 80 c 0
 312 55 313 25 313 13 c 0
 313 7 309 0 303 0 c 2
 185 0 l 2
 179 0 175 8 175 13 c 0
EndSplineSet
Validated: 33
EndChar

StartChar: uni0461
Encoding: 1121 1121 46
Width: 699
Flags: W
VStem: 281 103<166.064 343.572> 563 96<186.251 326.017>
AnchorPoint: "Yerok" 568 502 basechar 0
AnchorPoint: "Diacritic" 463 516 basechar 0
LayerCount: 2
Back
SplineSet
49 389 m 4
 51 403 59 414 72 418 c 4
 109 429 142 436 182 439 c 4
 193 440 200 422 194 413 c 4
 183 396 163 383 147 369 c 4
 145 367 141 362 141 359 c 4
 130 248 159 140 221 84 c 5
 258 98 284 131 304 163 c 5
 280 228 277 317 281 384 c 4
 281 394 288 415 299 417 c 4
 334 422 384 431 430 447 c 4
 439 450 450 438 445 429 c 4
 415 376 384 306 384 222 c 4
 384 154 427 93 488 71 c 5
 535 87 564 156 563 214 c 4
 562 279 550 333 507 370 c 4
 500 376 500 392 507 394 c 4
 545 404 579 422 614 443 c 4
 622 448 639 438 642 429 c 4
 651 404 659 347 659 309 c 4
 659 217 612 58 489 -4 c 4
 483 -7 479 -6 472 -4 c 4
 418 16 374 51 335 105 c 5
 299 58 254 21 204 -4 c 4
 199 -7 195 -6 189 -4 c 4
 156 9 124 47 98 89 c 4
 43 178 38 303 49 389 c 4
489 532 m 6
 483 522 469 514 456 518 c 4
 443 522 440 541 445 553 c 6
 532 749 l 6
 536 757 544 763 554 763 c 6
 611 763 l 6
 619 763 628 753 624 746 c 6
 489 532 l 6
EndSplineSet
Fore
SplineSet
49 389 m 0
 51 403 59 414 72 418 c 0
 109 429 142 436 182 439 c 0
 193 440 200 422 194 413 c 0
 183 396 163 383 147 369 c 0
 145 367 141 362 141 359 c 0
 130 248 159 140 221 84 c 1
 258 98 284 131 304 163 c 1
 280 228 277 317 281 384 c 0
 281 394 288 415 299 417 c 0
 334 422 384 431 430 447 c 0
 439 450 450 438 445 429 c 0
 415 376 384 306 384 222 c 0
 384 154 427 93 488 71 c 1
 535 87 564 156 563 214 c 0
 562 279 550 333 507 370 c 0
 500 376 500 392 507 394 c 0
 545 404 579 422 614 443 c 0
 622 448 639 438 642 429 c 0
 651 404 659 347 659 309 c 0
 659 217 612 58 489 -4 c 0
 483 -7 479 -6 472 -4 c 0
 418 16 374 51 335 105 c 1
 299 58 254 21 204 -4 c 0
 199 -7 195 -6 189 -4 c 0
 156 9 124 47 98 89 c 0
 43 178 38 303 49 389 c 0
EndSplineSet
Validated: 33
EndChar

StartChar: uni046F
Encoding: 1135 1135 47
Width: 547
Flags: W
HStem: -287 65<110.647 240.314> -234 56<265.42 429.184> -94 54<207.74 380.041> -87 47<136.23 341.849> 167 52<238 351.968>
VStem: 16 85<-210.698 -125.748> 65 109<255 353.466> 69 122<35 106.196> 325 126<575.851 633.145> 392 93<244.038 371.099> 402 97<-19.3511 124.588> 435 67<-296.912 -243.311>
DStem2: 284 509 116 611 0.565231 -0.824932<-158.762 0>
AnchorPoint: "Yerok" 277 725 basechar 0
AnchorPoint: "Diacritic" 277 723 basechar 0
LayerCount: 2
Fore
SplineSet
214 611 m 2x9a40
 284 509 l 1
 296 542 309 573 325 607 c 0
 337 633 368 651 397 651 c 0
 423 651 450 639 451 617 c 0x9a80
 452 599 445 584 433 577 c 0
 387 552 347 511 318 460 c 1
 323 453 l 1
 403 443 485 395 485 317 c 0x9840
 485 258 448 218 410 191 c 1
 463 163 499 115 499 46 c 0
 499 -42 437 -94 348 -94 c 0x2820
 286 -94 244 -86 187 -87 c 0
 145 -88 101 -130 101 -180 c 0
 101 -202 133 -222 155 -222 c 0x9c20
 233 -221 285 -178 366 -178 c 0
 430 -178 489 -200 502 -262 c 0
 506 -282 495 -305 475 -306 c 0
 453 -307 450 -279 435 -261 c 0
 417 -239 394 -234 367 -234 c 0x4c10
 275 -234 229 -287 141 -287 c 0
 77 -287 16 -265 16 -198 c 0x8c10
 16 -117 84 -59 178 -40 c 0
 197 -36 320 -42 343 -39 c 0
 385 -34 403 9 402 51 c 0
 401 107 368 166 312 167 c 0
 246 168 194 133 191 53 c 0
 191 44 186 35 177 35 c 2
 79 35 l 2
 71 35 67 46 69 53 c 0x9920
 94 155 182 219 285 219 c 0
 308 219 331 216 353 211 c 1
 384 235 392 266 392 310 c 0
 392 366 346 411 289 411 c 0
 209 411 172 325 174 273 c 0
 174 265 169 255 160 255 c 2
 76 255 l 2
 68 255 65 265 65 273 c 0
 70 371 129 432 227 449 c 1
 116 611 l 2
 113 615 114 628 125 628 c 2
 190 628 l 2
 203 628 210 617 214 611 c 2x9a40
EndSplineSet
Validated: 33
EndChar

StartChar: uni0477
Encoding: 1143 1143 48
Width: 537
Flags: W
HStem: 0 21G<182 306> 310 132<428.932 491.697> 501 135<246.734 293.266 372.734 419.266>
VStem: 273 40<150.692 194.533>
DStem2: 320 514 220 623 0.257111 -0.966382<-131.93 0.879898> 446 514 346 623 0.257111 -0.966382<-131.93 0.879898>
AnchorPoint: "Yerok" 308 692 basechar 0
AnchorPoint: "Diacritic" 307 692 basechar 0
LayerCount: 2
Fore
SplineSet
175 13 m 0
 176 32 178 59 175 85 c 0
 163 190 105 300 36 393 c 0
 29 402 27 410 27 420 c 0
 27 428 33 437 41 437 c 2
 136 437 l 2
 148 437 151 428 154 423 c 0
 205 321 252 180 258 108 c 0
 258 104 273 104 273 108 c 0
 279 206 351 442 472 442 c 0
 485 442 496 442 506 436 c 0
 511 433 513 428 512 424 c 0
 503 389 493 345 490 316 c 0
 490 312 481 308 477 310 c 0
 460 319 448 330 428 327 c 0
 410 324 391 317 380 300 c 0
 332 229 317 144 313 80 c 0
 312 55 313 25 313 13 c 0
 313 7 309 0 303 0 c 2
 185 0 l 2
 179 0 175 8 175 13 c 0
346 623 m 2
 344 629 348 636 355 636 c 2
 404 636 l 2
 409 636 416 628 417 623 c 2
 446 514 l 2
 448 508 442 501 435 501 c 2
 388 501 l 2
 383 501 376 509 375 514 c 2
 346 623 l 2
220 623 m 2
 218 629 222 636 229 636 c 2
 278 636 l 2
 283 636 290 628 291 623 c 2
 320 514 l 2
 322 508 316 501 309 501 c 2
 262 501 l 2
 257 501 250 509 249 514 c 2
 220 623 l 2
EndSplineSet
Validated: 33
LCarets2: 1 0
Ligature2: "'ccmp' Precomposed Glyphs for Cyrillic-1" uni0475 uni030F
EndChar

StartChar: uni0467
Encoding: 1127 1127 49
Width: 665
Flags: W
HStem: 0 21G<49.5 131 280 367.5 499 601> 417 20G<246.5 404>
VStem: 45 100<-0.0292969 37.8565> 269 109<2.99991e-07 151.993>
AnchorPoint: "Yerok" 488 502 basechar 0
AnchorPoint: "Diacritic" 327 502 basechar 0
LayerCount: 2
Back
SplineSet
614 25 m 4
 612 13 607 0 595 0 c 6
 508 0 l 6
 490 0 487 10 486 22 c 4
 485 33 489 41 498 47 c 5
 497 56 493 64 487 74 c 4
 476 91 449 120 419 154 c 5
 404 154 390 152 390 152 c 6
 382 152 378 143 378 135 c 6
 378 19 l 6
 378 10 372 0 363 0 c 6
 285 0 l 6
 275 0 269 10 269 21 c 6
 269 142 l 6
 269 150 265 158 257 158 c 6
 257 158 246 160 234 160 c 5
 223 148 210 136 196 122 c 4
 167 94 138 65 133 38 c 5
 141 35 145 28 145 19 c 4
 145 10 140 0 131 0 c 6
 57 -1 l 6
 42 -1 41 21 45 34 c 4
 64 87 99 125 147 166 c 4
 190 203 225 227 256 279 c 4
 267 298 271 317 272 339 c 5
 262 355 253 372 245 390 c 4
 241 399 237 406 237 417 c 4
 237 426 242 437 251 437 c 6
 399 437 l 6
 409 437 414 424 414 414 c 4
 414 405 409 396 401 393 c 5
 401 393 400 372 402 360 c 4
 411 309 429 280 461 240 c 4
 512 177 556 152 594 81 c 4
 600 70 605 63 609 51 c 4
 612 41 616 35 614 25 c 4
488 544 m 6
 494 532 487 513 474 509 c 4
 461 505 444 510 437 521 c 6
 300 735 l 6
 296 742 305 752 313 752 c 6
 370 752 l 6
 380 752 388 746 392 738 c 6
 488 544 l 6
380 198 m 5
 358 224 333 253 309 286 c 5
 307 277 304 268 300 260 c 4
 288 235 277 216 265 199 c 5
 309 191 339 191 380 198 c 5
EndSplineSet
Fore
SplineSet
614 25 m 0
 612 13 607 0 595 0 c 2
 508 0 l 2
 490 0 487 10 486 22 c 0
 485 33 489 41 498 47 c 1
 497 56 493 64 487 74 c 0
 476 91 449 120 419 154 c 1
 404 154 390 152 390 152 c 2
 382 152 378 143 378 135 c 2
 378 19 l 2
 378 10 372 0 363 0 c 2
 285 0 l 2
 275 0 269 10 269 21 c 2
 269 142 l 2
 269 150 265 158 257 158 c 2
 257 158 246 160 234 160 c 1
 223 148 210 136 196 122 c 0
 167 94 138 65 133 38 c 1
 141 35 145 28 145 19 c 0
 145 10 140 0 131 0 c 2
 57 -1 l 2
 42 -1 41 21 45 34 c 0
 64 87 99 125 147 166 c 0
 190 203 225 227 256 279 c 0
 267 298 271 317 272 339 c 1
 262 355 253 372 245 390 c 0
 241 399 237 406 237 417 c 0
 237 426 242 437 251 437 c 2
 399 437 l 2
 409 437 414 424 414 414 c 0
 414 405 409 396 401 393 c 1
 401 393 400 372 402 360 c 0
 411 309 429 280 461 240 c 0
 512 177 556 152 594 81 c 0
 600 70 605 63 609 51 c 0
 612 41 616 35 614 25 c 0
380 198 m 1
 358 224 333 253 309 286 c 1
 307 277 304 268 300 260 c 0
 288 235 277 216 265 199 c 1
 309 191 339 191 380 198 c 1
EndSplineSet
Validated: 33
EndChar

StartChar: uniE8E5
Encoding: 59621 59621 50
Width: 381
Flags: W
HStem: 0 60<134.566 227.676> 559 49<191.549 244.954>
VStem: 16 102<408.883 545.246> 51 66<77.8229 182.657> 144 43<512 556.663> 248 91<80.6732 183.75> 249 43<512 556.663>
DStem2: 132 262 142 186 0.655828 0.75491<-108.737 0 98.563 285.473>
AnchorPoint: "Yerok" 157 702 basechar 0
AnchorPoint: "Diacritic" 157 702 basechar 0
LayerCount: 2
Fore
SplineSet
242 297 m 1xe8
 261 282 279 265 293 250 c 0
 324 218 340 184 339 132 c 0
 338 52 267 0 187 0 c 0
 115 0 51 48 51 124 c 0xdc
 51 158 62 190 81 209 c 0
 98 226 115 244 132 262 c 1
 60 324 16 398 16 506 c 0
 16 520 46 565 89 588 c 0
 106 597 128 589 130 575 c 0
 131 566 118 527 118 518 c 0
 118 438 143 381 197 333 c 1
 211 349 224 365 237 380 c 0
 296 449 336 542 348 712 c 1
 331 701 309 682 301 675 c 0
 291 666 256 689 265 701 c 0
 288 733 313 765 347 796 c 0
 355 803 386 803 394 798 c 0
 400 794 404 774 404 752 c 0
 404 559 354 439 281 346 c 0
 268 330 255 314 242 297 c 1xe8
179 225 m 1
 167 212 154 198 142 186 c 0
 128 172 117 151 117 130 c 0
 117 92 140 60 191 60 c 0
 217 60 248 96 248 132 c 0
 248 157 239 172 225 186 c 0
 213 199 198 211 179 225 c 1
292 512 m 1xca
 249 512 l 1
 249 540 239 559 218 559 c 0
 198 559 187 540 187 512 c 1
 144 512 l 1
 144 572 172 608 218 608 c 0
 266 608 292 572 292 512 c 1xca
EndSplineSet
Validated: 33
LCarets2: 1 0
Ligature2: "'ccmp' Precomposed Glyphs for Cyrillic-1" uniA64B uni0311
EndChar

StartChar: quotesinglbase
Encoding: 8218 8218 51
Width: 245
Flags: W
LayerCount: 2
Fore
SplineSet
37 15 m 0
 36 61 92 125 137 125 c 0
 191 125 219 66 219 12 c 0
 219 -48 179 -114 131 -147 c 0
 123 -152 115 -157 108 -152 c 0
 100 -146 105 -131 110 -125 c 0
 133 -92 150 -61 151 -25 c 0
 152 12 141 45 110 45 c 0
 91 45 74 28 66 10 c 0
 63 4 54 -4 47 -2 c 0
 40 -1 37 9 37 15 c 0
EndSplineSet
Validated: 33
EndChar

StartChar: quotedblbase
Encoding: 8222 8222 52
Width: 457
Flags: W
LayerCount: 2
Fore
SplineSet
37 15 m 0
 36 61 92 125 137 125 c 0
 191 125 219 66 219 12 c 0
 219 -48 179 -114 131 -147 c 0
 123 -152 115 -157 108 -152 c 0
 100 -146 105 -131 110 -125 c 0
 133 -92 150 -61 151 -25 c 0
 152 12 141 45 110 45 c 0
 91 45 74 28 66 10 c 0
 63 4 54 -4 47 -2 c 0
 40 -1 37 9 37 15 c 0
252 15 m 0
 251 61 307 125 352 125 c 0
 406 125 434 66 434 12 c 0
 434 -48 394 -114 346 -147 c 0
 338 -152 330 -157 323 -152 c 0
 315 -146 320 -131 325 -125 c 0
 348 -92 365 -61 366 -25 c 0
 367 12 356 45 325 45 c 0
 306 45 289 28 281 10 c 0
 278 4 269 -4 262 -2 c 0
 255 -1 252 9 252 15 c 0
EndSplineSet
Validated: 33
EndChar

StartChar: quoteleft
Encoding: 8216 8216 53
Width: 225
Flags: W
LayerCount: 2
Fore
SplineSet
205 632 m 0
 206 586 150 522 104 522 c 0
 50 522 23 581 23 635 c 0
 23 695 63 761 111 795 c 0
 118 800 126 804 134 799 c 0
 142 793 137 779 132 773 c 0
 109 739 91 708 91 672 c 0
 90 636 101 602 131 602 c 0
 151 602 168 619 176 638 c 0
 179 644 188 651 194 649 c 0
 202 648 205 638 205 632 c 0
EndSplineSet
Validated: 33
EndChar

StartChar: quoteright
Encoding: 8217 8217 54
Width: 225
Flags: W
LayerCount: 2
Fore
SplineSet
207 687 m 0
 207 627 167 561 119 527 c 0
 112 522 104 518 96 523 c 0
 88 529 93 543 98 549 c 0
 121 583 139 614 139 650 c 0
 140 686 129 720 99 720 c 0
 79 720 62 703 54 684 c 0
 51 678 42 671 36 673 c 0
 28 674 25 684 25 690 c 0
 24 736 80 800 126 800 c 0
 180 800 207 741 207 687 c 0
EndSplineSet
Validated: 33
EndChar

StartChar: quotedblleft
Encoding: 8220 8220 55
Width: 436
Flags: W
LayerCount: 2
Fore
SplineSet
205 632 m 0
 206 586 150 522 104 522 c 0
 50 522 23 581 23 635 c 0
 23 695 63 761 111 795 c 0
 118 800 126 804 134 799 c 0
 142 793 137 779 132 773 c 0
 109 739 91 708 91 672 c 0
 90 636 101 602 131 602 c 0
 151 602 168 619 176 638 c 0
 179 644 188 651 194 649 c 0
 202 648 205 638 205 632 c 0
415 632 m 0
 416 586 360 522 314 522 c 0
 260 522 233 581 233 635 c 0
 233 695 273 761 321 795 c 0
 328 800 336 804 344 799 c 0
 352 793 347 779 342 773 c 0
 319 739 301 708 301 672 c 0
 300 636 311 602 341 602 c 0
 361 602 378 619 386 638 c 0
 389 644 398 651 404 649 c 0
 412 648 415 638 415 632 c 0
EndSplineSet
Validated: 33
EndChar

StartChar: quotedblright
Encoding: 8221 8221 56
Width: 436
Flags: W
LayerCount: 2
Fore
SplineSet
412 684 m 0
 412 624 372 558 324 524 c 0
 317 519 309 515 301 520 c 0
 293 526 298 540 303 546 c 0
 326 580 344 611 344 647 c 0
 345 683 334 717 304 717 c 0
 284 717 267 700 259 681 c 0
 256 675 247 668 241 670 c 0
 233 671 230 681 230 687 c 0
 229 733 285 797 331 797 c 0
 385 797 412 738 412 684 c 0
202 684 m 0
 202 624 162 558 114 524 c 0
 107 519 99 515 91 520 c 0
 83 526 88 540 93 546 c 0
 116 580 134 611 134 647 c 0
 135 683 124 717 94 717 c 0
 74 717 57 700 49 681 c 0
 46 675 37 668 31 670 c 0
 23 671 20 681 20 687 c 0
 19 733 75 797 121 797 c 0
 175 797 202 738 202 684 c 0
EndSplineSet
Validated: 33
EndChar

StartChar: uni2DE4
Encoding: 11748 11748 57
Width: 1
Flags: W
HStem: 498 272
VStem: -59 41<642.973 681.947>
AnchorPoint: "Diacritic" -205 500 mark 0
LayerCount: 2
Fore
SplineSet
-227 572 m 1
 -248 550 -277 530 -299 517 c 0
 -321 503 -332 524 -318 535 c 0
 -290 553 -268 576 -251 604 c 1
 -278 632 -311 708 -358 718 c 1
 -336 733 -323 757 -294 762 c 1
 -274 749 -255 740 -235 727 c 1
 -212 739 -195 746 -169 770 c 0
 -166 774 -148 770 -148 765 c 0
 -146 745 -144 728 -133 715 c 1
 -105 737 -58 768 -15 747 c 0
 4 737 19 733 17 722 c 0
 15 710 -8 655 -18 641 c 0
 -27 629 -59 640 -59 653 c 0
 -59 674 -41 696 -51 699 c 0
 -82 706 -156 662 -179 632 c 1
 -167 573 -115 552 -92 528 c 0
 -72 508 -117 492 -132 498 c 0
 -168 513 -199 539 -227 572 c 1
EndSplineSet
Validated: 33
EndChar

StartChar: endash
Encoding: 8211 8211 58
Width: 465
Flags: W
LayerCount: 2
Fore
SplineSet
436 165 m 1
 25 165 l 1
 25 235 l 1
 436 235 l 1
 436 165 l 1
EndSplineSet
Validated: 1
EndChar

StartChar: emdash
Encoding: 8212 8212 59
Width: 641
Flags: W
LayerCount: 2
Fore
SplineSet
618 165 m 1
 30 165 l 1
 30 235 l 1
 618 235 l 1
 618 165 l 1
EndSplineSet
Validated: 1
EndChar

StartChar: uniE8E3
Encoding: 59619 59619 61
Width: 381
Flags: W
HStem: 0 60<134.566 227.676>
VStem: 16 102<408.883 545.246> 51 66<77.8229 182.657> 248 91<80.6732 183.75>
DStem2: 132 262 142 186 0.655828 0.75491<-108.737 0 98.563 285.473>
AnchorPoint: "Yerok" 57 702 basechar 0
AnchorPoint: "Diacritic" 57 702 basechar 0
LayerCount: 2
Fore
SplineSet
242 297 m 1xd0
 261 282 279 265 293 250 c 0
 324 218 340 184 339 132 c 0
 338 52 267 0 187 0 c 0
 115 0 51 48 51 124 c 0xb0
 51 158 62 190 81 209 c 0
 98 226 115 244 132 262 c 1
 60 324 16 398 16 506 c 0
 16 520 46 565 89 588 c 0
 106 597 128 589 130 575 c 0
 131 566 118 527 118 518 c 0
 118 438 143 381 197 333 c 1
 211 349 224 365 237 380 c 0
 296 449 336 542 348 712 c 1
 331 701 309 682 301 675 c 0
 291 666 256 689 265 701 c 0
 288 733 313 765 347 796 c 0
 355 803 386 803 394 798 c 0
 400 794 404 774 404 752 c 0
 404 559 354 439 281 346 c 0
 268 330 255 314 242 297 c 1xd0
224 646 m 2
 228 633 225 617 212 611 c 0
 200 605 183 613 177 625 c 2
 64 845 l 2
 60 853 69 862 77 862 c 2
 134 862 l 2
 144 862 153 857 156 848 c 2
 224 646 l 2
179 225 m 1
 167 212 154 198 142 186 c 0
 128 172 117 151 117 130 c 0
 117 92 140 60 191 60 c 0
 217 60 248 96 248 132 c 0
 248 157 239 172 225 186 c 0
 213 199 198 211 179 225 c 1
EndSplineSet
Validated: 33
LCarets2: 1 0
Ligature2: "'ccmp' Precomposed Glyphs for Cyrillic-1" uniA64B gravecomb
EndChar

StartChar: uniE8E1
Encoding: 59617 59617 62
Width: 381
Flags: W
HStem: 0 60<134.566 227.676>
VStem: 16 102<408.883 545.246> 51 66<77.8229 182.657> 248 91<80.6732 183.75>
DStem2: 132 262 142 186 0.655828 0.75491<-108.737 0 98.563 285.473>
AnchorPoint: "Yerok" 57 702 basechar 0
AnchorPoint: "Diacritic" 57 702 basechar 0
LayerCount: 2
Fore
SplineSet
242 297 m 1xd0
 261 282 279 265 293 250 c 0
 324 218 340 184 339 132 c 0
 338 52 267 0 187 0 c 0
 115 0 51 48 51 124 c 0xb0
 51 158 62 190 81 209 c 0
 98 226 115 244 132 262 c 1
 60 324 16 398 16 506 c 0
 16 520 46 565 89 588 c 0
 106 597 128 589 130 575 c 0
 131 566 118 527 118 518 c 0
 118 438 143 381 197 333 c 1
 211 349 224 365 237 380 c 0
 296 449 336 542 348 712 c 1
 324 695 307 676 296 660 c 0
 289 650 253 673 261 686 c 0
 288 731 313 763 347 796 c 0
 355 804 386 803 394 798 c 0
 400 794 404 774 404 752 c 0
 404 559 354 439 281 346 c 0
 268 330 255 314 242 297 c 1xd0
192 615 m 2
 186 605 172 597 159 601 c 0
 146 605 143 624 148 636 c 2
 235 832 l 2
 239 840 247 846 257 846 c 2
 314 846 l 2
 322 846 331 836 327 829 c 2
 192 615 l 2
179 225 m 1
 167 212 154 198 142 186 c 0
 128 172 117 151 117 130 c 0
 117 92 140 60 191 60 c 0
 217 60 248 96 248 132 c 0
 248 157 239 172 225 186 c 0
 213 199 198 211 179 225 c 1
EndSplineSet
Validated: 33
LCarets2: 1 0
Ligature2: "'ccmp' Precomposed Glyphs for Cyrillic-1" uniA64B acutecomb
EndChar

StartChar: afii10057
Encoding: 1032 1032 63
Width: 427
Flags: W
HStem: 0 19<29 398> 748 22<29 398>
VStem: 0 22<34 733> 405 22<34 733>
DStem2: 29 748 22 733 0.465951 -0.884811<10.0105 395.419 421.078 806.952> 22 34 29 19 0.465951 0.884811<0 385.408 411.068 796.942>
LayerCount: 2
Fore
SplineSet
0 0 m 1
 0 770 l 1
 427 770 l 1
 427 0 l 1
 0 0 l 1
398 748 m 1
 29 748 l 1
 213 398 l 1
 398 748 l 1
405 733 m 1
 221 383 l 1
 405 34 l 1
 405 733 l 1
29 19 m 1
 398 19 l 1
 213 369 l 1
 29 19 l 1
206 383 m 1
 22 733 l 1
 22 34 l 1
 206 383 l 1
EndSplineSet
Validated: 1
EndChar

StartChar: uni0482
Encoding: 1154 1154 64
Width: 307
Flags: W
LayerCount: 2
Fore
SplineSet
49 -184 m 1
 217 279 l 1
 273 258 l 1
 105 -204 l 1
 49 -184 l 1
219 -126 m 1
 12 -50 l 1
 33 6 l 1
 240 -69 l 1
 219 -126 l 1
274 27 m 1
 68 102 l 1
 88 158 l 1
 295 83 l 1
 274 27 l 1
EndSplineSet
Validated: 5
EndChar

StartChar: uniE903
Encoding: 59651 59651 65
Width: 597
Flags: W
HStem: 0 40<338 423> 397 40<141 242 342 427.206>
VStem: 41 100<188 397> 244 94<40 158 196 397 437 692.723>
AnchorPoint: "Yerok" 107 702 basechar 0
AnchorPoint: "Diacritic" 107 702 basechar 0
LayerCount: 2
Fore
SplineSet
56 437 m 2
 242 437 l 1
 244 585 253 723 258 767 c 0
 259 779 271 784 282 787 c 0
 312 796 328 802 355 800 c 0
 364 799 373 798 369 781 c 0
 359 736 347 590 342 437 c 1
 527 437 l 2
 541 437 540 419 535 407 c 0
 522 377 511 329 502 303 c 0
 499 294 493 282 480 282 c 0
 470 282 463 294 458 305 c 0
 443 336 429 380 416 397 c 1
 341 397 l 1
 340 331 339 259 339 196 c 1
 359 202 375 208 400 215 c 0
 418 220 434 230 444 215 c 0
 484 155 520 87 548 21 c 0
 553 9 545 0 531 0 c 2
 270 0 l 2
 259 0 244 1 244 13 c 0
 241 84 241 240 242 397 c 1
 154 397 l 2
 148 397 141 393 141 387 c 2
 141 202 l 2
 141 196 138 188 132 188 c 2
 49 188 l 2
 44 188 41 194 41 199 c 2
 41 416 l 2
 41 426 46 437 56 437 c 2
575 544 m 2
 581 532 574 513 561 509 c 0
 548 505 531 510 524 521 c 2
 387 735 l 2
 383 742 392 752 400 752 c 2
 457 752 l 2
 467 752 475 746 479 738 c 2
 575 544 l 2
425 50 m 0
 413 87 390 126 338 158 c 1
 338 40 l 1
 423 40 l 2
 427 40 426 46 425 50 c 0
EndSplineSet
Validated: 33
LCarets2: 1 0
Ligature2: "'ccmp' Precomposed Glyphs for Cyrillic-1" uni0463 gravecomb
EndChar

StartChar: guillemotleft
Encoding: 171 171 66
Width: 510
Flags: W
LayerCount: 2
Fore
SplineSet
497 -5 m 1
 439 -5 l 1
 255 218 l 1
 439 437 l 1
 497 437 l 1
 384 218 l 1
 497 -5 l 1
285 -5 m 1
 229 -5 l 1
 48 218 l 1
 229 437 l 1
 285 437 l 1
 171 218 l 1
 285 -5 l 1
EndSplineSet
Validated: 1
EndChar

StartChar: logicalnot
Encoding: 172 172 67
Width: 466
Flags: W
LayerCount: 2
Fore
SplineSet
440 66 m 1
 380 66 l 1
 380 166 l 1
 25 165 l 1
 25 235 l 1
 440 235 l 1
 440 66 l 1
EndSplineSet
Validated: 1
EndChar

StartChar: afii10056
Encoding: 1031 1031 68
Width: 270
Flags: W
HStem: 0 40<22 76 194 248> 636 40<22 76 194 248> 741 135<35.7344 77.2656 161.734 203.266>
VStem: 76 118<40 636>
DStem2: 104 754 9 863 0.257111 -0.966382<-132.056 2.30449> 230 754 135 863 0.257111 -0.966382<-132.064 2.30449>
AnchorPoint: "Yerok" 119 934 basechar 0
AnchorPoint: "Diacritic" 120 934 basechar 0
LayerCount: 2
Fore
SplineSet
248 0 m 1
 22 0 l 1
 22 40 l 1
 76 40 l 1
 76 636 l 1
 22 636 l 1
 22 676 l 1
 248 676 l 1
 248 636 l 1
 194 636 l 1
 194 40 l 1
 248 40 l 1
 248 0 l 1
135 863 m 2
 133 869 137 876 144 876 c 2
 190 876 l 2
 195 876 200 868 201 863 c 2
 230 754 l 2
 232 748 226 741 219 741 c 2
 177 741 l 2
 172 741 165 749 164 754 c 2
 135 863 l 2
9 863 m 2
 7 869 11 876 18 876 c 2
 62 876 l 2
 67 876 74 868 75 863 c 2
 104 754 l 2
 106 748 100 741 93 741 c 2
 51 741 l 2
 46 741 39 749 38 754 c 2
 9 863 l 2
EndSplineSet
Validated: 1
LCarets2: 1 0
Ligature2: "'ccmp' Precomposed Glyphs for Cyrillic-1" afii10055 uni0308
EndChar

StartChar: uniA67E
Encoding: 42622 42622 69
Width: 362
Flags: W
LayerCount: 2
Fore
SplineSet
349 708 m 1
 348 598 283 510 185 510 c 0
 92 510 20 593 21 708 c 1
 81 708 l 1
 80 631 122 570 185 570 c 0
 251 570 288 634 289 708 c 1
 349 708 l 1
EndSplineSet
Validated: 33
EndChar

StartChar: afii10055
Encoding: 1030 1030 70
Width: 270
Flags: W
HStem: 0 40<22 76 194 248> 636 40<22 76 194 248>
VStem: 76 118<40 636>
AnchorPoint: "Yerok" 150 754 basechar 0
AnchorPoint: "Diacritic" 150 754 basechar 0
LayerCount: 2
Back
SplineSet
248 0 m 1
 22 0 l 1
 22 40 l 1
 76 40 l 1
 76 636 l 1
 22 636 l 1
 22 676 l 1
 248 676 l 1
 248 636 l 1
 194 636 l 1
 194 40 l 1
 248 40 l 1
 248 0 l 1
203 908 m 0
 203 843 172 799 119 762 c 0
 109 755 97 752 89 761 c 0
 81 769 87 779 94 787 c 0
 110 805 123 835 123 871 c 0
 123 898 103 941 73 941 c 0
 34 941 1 913 -11 861 c 0
 -17 835 -15 809 -6 790 c 0
 -2 781 -3 766 -12 760 c 0
 -23 753 -36 766 -42 775 c 0
 -63 806 -69 829 -69 868 c 0
 -69 954 -13 1031 77 1031 c 0
 142 1031 203 972 203 908 c 0
195 761 m 2
 295 1028 l 2
 297 1033 300 1035 305 1035 c 2
 366 1035 l 2
 370 1035 374 1030 373 1026 c 2
 268 759 l 2
 266 754 263 752 258 752 c 2
 202 752 l 2
 198 752 193 757 195 761 c 2
EndSplineSet
Fore
SplineSet
248 0 m 1
 22 0 l 1
 22 40 l 1
 76 40 l 1
 76 636 l 1
 22 636 l 1
 22 676 l 1
 248 676 l 1
 248 636 l 1
 194 636 l 1
 194 40 l 1
 248 40 l 1
 248 0 l 1
EndSplineSet
Validated: 1
EndChar

StartChar: afii10103
Encoding: 1110 1110 71
Width: 230
Flags: W
HStem: 0 21G<78 161.5> 417 20G<77.5 159.5>
VStem: 67 105<0 437>
AnchorPoint: "Yerok" 117 502 basechar 0
AnchorPoint: "Diacritic" 117 502 basechar 0
LayerCount: 2
Fore
SplineSet
172 414 m 0
 167 307 165 131 172 50 c 0
 173 38 179 25 172 13 c 0
 168 7 165 0 158 0 c 2
 82 0 l 2
 74 0 67 9 67 16 c 0
 62 116 63 310 69 424 c 0
 69 430 74 437 81 437 c 2
 155 437 l 2
 164 437 173 426 172 414 c 0
EndSplineSet
Validated: 33
EndChar

StartChar: paragraph
Encoding: 182 182 72
Width: 614
Flags: W
LayerCount: 2
Fore
SplineSet
235 -277 m 1
 235 273 l 1
 177 274 131 293 96 329 c 0
 63 365 43 404 35 447 c 0
 35 457 32 496 35 491 c 1
 36 536 55 578 89 616 c 0
 124 654 172 674 235 678 c 1
 315 678 l 1
 315 -277 l 1
 235 -277 l 1
396 -277 m 1
 396 678 l 1
 477 678 l 1
 477 -277 l 1
 396 -277 l 1
EndSplineSet
Validated: 33
EndChar

StartChar: uniE901
Encoding: 59649 59649 73
Width: 597
Flags: W
HStem: 0 40<338 423> 397 40<141 242 342 427.206>
VStem: 41 100<188 397> 244 94<40 158 196 397 437 692.723>
AnchorPoint: "Yerok" 117 702 basechar 0
AnchorPoint: "Diacritic" 117 702 basechar 0
LayerCount: 2
Fore
SplineSet
56 437 m 2
 242 437 l 1
 244 585 253 723 258 767 c 0
 259 779 271 784 282 787 c 0
 312 796 328 802 355 800 c 0
 364 799 373 798 369 781 c 0
 359 736 347 590 342 437 c 1
 527 437 l 2
 541 437 540 419 535 407 c 0
 522 377 511 329 502 303 c 0
 499 294 493 282 480 282 c 0
 470 282 463 294 458 305 c 0
 443 336 429 380 416 397 c 1
 341 397 l 1
 340 331 339 259 339 196 c 1
 359 202 375 208 400 215 c 0
 418 220 434 230 444 215 c 0
 484 155 520 87 548 21 c 0
 553 9 545 0 531 0 c 2
 270 0 l 2
 259 0 244 1 244 13 c 0
 241 84 241 240 242 397 c 1
 154 397 l 2
 148 397 141 393 141 387 c 2
 141 202 l 2
 141 196 138 188 132 188 c 2
 49 188 l 2
 44 188 41 194 41 199 c 2
 41 416 l 2
 41 426 46 437 56 437 c 2
453 534 m 2
 447 524 433 516 420 520 c 0
 407 524 404 543 409 555 c 2
 496 751 l 2
 500 759 508 765 518 765 c 2
 575 765 l 2
 583 765 592 755 588 748 c 2
 453 534 l 2
425 50 m 0
 413 87 390 126 338 158 c 1
 338 40 l 1
 423 40 l 2
 427 40 426 46 425 50 c 0
EndSplineSet
Validated: 33
LCarets2: 1 0
Ligature2: "'ccmp' Precomposed Glyphs for Cyrillic-1" uni0463 acutecomb
EndChar

StartChar: afii10101
Encoding: 1108 1108 74
Width: 464
Flags: W
HStem: 326 74<304.032 388.809>
AnchorPoint: "Yerok" 338 502 basechar 0
AnchorPoint: "Diacritic" 241 502 basechar 0
LayerCount: 2
Fore
SplineSet
59 92 m 0
 50 202 58 251 85 331 c 1
 134 385 173 424 240 440 c 0
 248 442 253 444 260 440 c 0
 301 420 340 409 390 400 c 0
 406 397 417 378 409 368 c 0
 385 336 362 334 332 326 c 0
 319 323 310 322 298 326 c 0
 258 339 229 362 198 368 c 1
 185 355 168 324 162 310 c 1
 156 267 156 223 159 172 c 1
 177 178 194 187 217 199 c 0
 241 212 259 226 279 241 c 0
 286 246 298 248 305 241 c 0
 336 209 358 170 396 132 c 0
 402 126 405 113 396 110 c 0
 376 103 344 93 326 81 c 0
 315 74 306 77 299 84 c 0
 273 110 248 131 237 143 c 0
 232 148 223 149 217 146 c 0
 202 139 181 127 163 118 c 1
 168 53 174 -1 199 -51 c 1
 223 -46 248 -37 265 -22 c 1
 304 -26 329 -27 367 -28 c 0
 378 -28 389 -40 383 -50 c 0
 354 -101 271 -155 234 -162 c 0
 227 -163 226 -164 221 -162 c 0
 123 -119 68 -16 59 92 c 0
EndSplineSet
Validated: 33
EndChar

StartChar: guillemotright
Encoding: 187 187 75
Width: 510
Flags: W
LayerCount: 2
Fore
SplineSet
13 437 m 1
 71 437 l 1
 255 216 l 1
 71 -5 l 1
 13 -5 l 1
 126 216 l 1
 13 437 l 1
225 437 m 1
 281 437 l 1
 462 216 l 1
 281 -5 l 1
 225 -5 l 1
 339 216 l 1
 225 437 l 1
EndSplineSet
Validated: 1
EndChar

StartChar: afii10054
Encoding: 1029 1029 76
Width: 560
Flags: W
HStem: -17 106<36.9969 114.198> -8 51<218.61 402> 282 39<274.774 345.797> 382 40<226.686 287.086> 646 36<237.321 344.824>
VStem: 25 97<-8.98486 35.0669> 76 116<456.953 597.796> 388 130<78.9723 236.277> 389 51<542.206 605.617 636 665.724>
DStem2: 138 246 166 216 0.731786 0.681535<-19.0211 113.007 147.23 204.501 238.277 337.482>
AnchorPoint: "Yerok" 440 754 basechar 0
AnchorPoint: "Diacritic" 270 754 basechar 0
LayerCount: 2
Fore
SplineSet
399 433 m 2x7a80
 274 316 l 2
 281 319 288 321 296 321 c 0
 415 321 518 272 518 157 c 0
 518 45 448 -8 356 -8 c 0
 286 -8 221 10 160 34 c 0
 146 40 130 35 122 17 c 0x7d
 114 -1 99 -17 76 -17 c 0xba
 48 -17 25 1 25 32 c 0
 25 65 50 89 82 89 c 0xbc
 115 89 137 81 167 69 c 0
 205 54 239 43 279 43 c 0
 353 43 388 86 388 149 c 0x7d
 388 232 355 282 286 282 c 0
 248 282 206 248 175 224 c 2
 166 216 l 2
 146 197 118 227 138 246 c 2
 288 385 l 1
 272 382 255 382 234 382 c 0
 153 382 76 435 76 523 c 0
 76 622 172 682 271 682 c 0
 320 682 374 652 389 636 c 1
 389 653 l 2
 389 679 440 680 440 653 c 2
 440 556 l 2
 440 526 389 528 389 556 c 1
 379 600 349 646 298 646 c 0
 233 646 192 603 192 530 c 0
 192 468 225 422 283 422 c 0
 311 422 337 435 355 448 c 2
 371 463 l 2
 391 482 419 452 399 433 c 2x7a80
EndSplineSet
Validated: 33
EndChar

StartChar: afii10102
Encoding: 1109 1109 77
Width: 566
Flags: W
HStem: -4 21G<287 371> 21 85<105.276 220.858> 401 43<192.231 292.276>
VStem: 49 111<263.5 369.069> 415 106<77.4736 189.143>
AnchorPoint: "Yerok" 458 502 basechar 0
AnchorPoint: "Diacritic" 207 502 basechar 0
LayerCount: 2
Fore
SplineSet
323 -4 m 0
 251 -4 230 19 167 21 c 0
 126 22 105 9 64 -8 c 0
 56 -11 40 5 43 13 c 0
 52 36 59 45 68 60 c 0
 70 63 71 64 74 66 c 0
 94 80 126 97 159 106 c 0
 162 107 165 106 168 106 c 0
 189 103 204 97 231 78 c 0
 260 58 281 35 319 37 c 0
 372 40 415 85 415 139 c 0
 415 185 371 215 327 222 c 0
 323 223 322 224 318 222 c 0
 274 204 230 178 171 164 c 0
 166 163 162 163 157 164 c 0
 88 182 49 244 49 303 c 0
 49 385 123 444 204 444 c 0
 243 444 271 434 300 419 c 0
 305 417 309 416 314 418 c 0
 338 429 364 437 386 444 c 0
 390 445 397 446 406 441 c 0
 413 437 434 427 429 420 c 0
 405 388 376 364 347 345 c 0
 343 342 336 343 334 345 c 0
 298 374 287 401 243 401 c 0
 201 401 160 356 160 318 c 0
 160 282 179 257 213 240 c 0
 217 238 218 240 222 240 c 0
 278 245 312 280 366 295 c 0
 372 297 375 296 381 295 c 0
 461 276 521 216 521 136 c 0
 521 17 419 -4 323 -4 c 0
EndSplineSet
Validated: 33
EndChar

StartChar: afii10104
Encoding: 1111 1111 78
Width: 230
Flags: W
HStem: 0 21G<78 161.5> 417 20G<77.5 159.5> 501 135<26.7344 68.2656 152.734 194.266>
VStem: 67 105<0 437>
DStem2: 95 514 0 623 0.257111 -0.966382<-132.056 2.30449> 221 514 126 623 0.257111 -0.966382<-132.064 2.30449>
AnchorPoint: "Yerok" 109 702 basechar 0
AnchorPoint: "Diacritic" 107 702 basechar 0
LayerCount: 2
Fore
SplineSet
172 414 m 0
 167 307 165 131 172 50 c 0
 173 38 179 25 172 13 c 0
 168 7 165 0 158 0 c 2
 82 0 l 2
 74 0 67 9 67 16 c 0
 62 116 63 310 69 424 c 0
 69 430 74 437 81 437 c 2
 155 437 l 2
 164 437 173 426 172 414 c 0
126 623 m 2
 124 629 128 636 135 636 c 2
 181 636 l 2
 186 636 191 628 192 623 c 2
 221 514 l 2
 223 508 217 501 210 501 c 2
 168 501 l 2
 163 501 156 509 155 514 c 2
 126 623 l 2
0 623 m 2
 -2 629 2 636 9 636 c 2
 53 636 l 2
 58 636 65 628 66 623 c 2
 95 514 l 2
 97 508 91 501 84 501 c 2
 42 501 l 2
 37 501 30 509 29 514 c 2
 0 623 l 2
EndSplineSet
Validated: 33
LCarets2: 1 0
Ligature2: "'ccmp' Precomposed Glyphs for Cyrillic-1" afii10103 uni0308
EndChar

StartChar: afii10017
Encoding: 1040 1040 79
Width: 521
Flags: W
HStem: 0 40<273 327 446 500> 636 40<273 327 446 500>
VStem: 91 55<72.1156 161.863> 327 119<40 447 586.659 636>
AnchorPoint: "Yerok" 420 754 basechar 0
AnchorPoint: "Diacritic" 390 754 basechar 0
LayerCount: 2
Fore
SplineSet
36 0 m 2
 14 0 18 32 31 40 c 0
 71 66 91 93 91 120 c 2
 91 168 l 1
 54 184 32 217 40 256 c 0
 44 283 62 303 85 314 c 1
 69 340 79 397 112 419 c 0
 162 452 178 463 220 497 c 0
 269 537 297 564 327 624 c 1
 327 636 l 1
 273 636 l 1
 273 676 l 1
 500 676 l 1
 500 636 l 1
 446 636 l 1
 446 40 l 1
 500 40 l 1
 500 0 l 1
 273 0 l 1
 273 40 l 1
 327 40 l 1
 327 447 l 1
 315 425 301 402 286 383 c 0
 261 352 236 330 204 310 c 0
 199 307 194 304 188 302 c 1
 214 284 228 256 222 224 c 0
 215 185 184 161 146 158 c 1
 146 120 l 2
 146 94 166 63 205 42 c 0
 219 34 223 0 200 0 c 2
 36 0 l 2
265 428 m 0
 285 454 302 480 315 510 c 1
 300 491 282 474 258 452 c 0
 234 430 197 399 174 382 c 0
 162 373 154 363 159 356 c 0
 163 350 180 353 185 355 c 0
 209 367 246 403 265 428 c 0
EndSplineSet
Validated: 33
EndChar

StartChar: afii10018
Encoding: 1041 1041 80
Width: 547
Flags: W
HStem: 0 40<22 76 194 363 481 525> 312 40<481 505> 636 40<22 76 194 292.119 408.235 430.476>
VStem: 76 118<40 395 429.358 636> 340 28<494.034 555.062> 363 118<40 312>
AnchorPoint: "Yerok" 420 754 basechar 0
AnchorPoint: "Diacritic" 280 754 basechar 0
LayerCount: 2
Fore
SplineSet
241 636 m 2xf8
 194 636 l 1
 194 438 l 1
 255 414 375 366 375 366 c 2
 401 356 425 352 454 352 c 2
 505 352 l 1
 505 312 l 1
 481 312 l 1
 481 40 l 1xf4
 525 40 l 1
 525 0 l 1
 22 0 l 1
 22 40 l 1
 76 40 l 1
 76 636 l 1
 22 636 l 1
 22 676 l 1
 419 676 l 2
 450 676 443 648 425 639 c 0
 411 632 376 555 368 501 c 0
 366 489 342 490 340 502 c 0
 333 547 323 574 293 615 c 0
 284 627 262 636 241 636 c 2xf8
360 328 m 2
 360 328 257 370 194 395 c 1
 194 40 l 1
 363 40 l 1
 363 327 l 2
 362 327 361 327 360 328 c 2
EndSplineSet
Validated: 33
EndChar

StartChar: afii10019
Encoding: 1042 1042 81
Width: 539
Flags: W
HStem: 0 40<22 76 194 352 470 514> 276 40<470 495> 315 35<220 269.07> 408 46<289.985 399.602> 636 44<223.683 333.928>
VStem: 76 118<40 306 385 581.87> 352 118<40 276> 363 100<459.958 606>
DStem2: 194 385 220 350 0.508729 0.860927<0 85.31>
AnchorPoint: "Yerok" 420 754 basechar 0
AnchorPoint: "Diacritic" 280 754 basechar 0
LayerCount: 2
Fore
SplineSet
495 276 m 1xdd
 470 276 l 1
 470 40 l 1xde
 514 40 l 1
 514 0 l 1
 22 0 l 1
 22 40 l 1
 76 40 l 1
 76 507 l 2
 76 603 177 680 282 680 c 0
 413 680 463 619 463 528 c 0
 463 465 443 408 354 408 c 0
 315 408 285 422 272 438 c 1
 220 350 l 1xbd
 251 342 278 336 312 331 c 0
 370 320 418 316 495 316 c 1
 495 276 l 1xdd
352 40 m 1
 352 284 l 1
 336 286 321 288 305 291 c 0
 264 298 235 305 199 315 c 1xbe
 194 306 l 1
 194 40 l 1
 352 40 l 1
194 536 m 2
 194 385 l 1
 251 481 l 2
 258 493 277 495 287 480 c 0
 296 467 305 454 323 454 c 0
 363 454 364 499 363 534 c 0x9d
 361 590 336 636 282 636 c 0
 227 636 194 597 194 536 c 2
EndSplineSet
Validated: 33
EndChar

StartChar: afii10020
Encoding: 1043 1043 82
Width: 490
Flags: W
HStem: 0 40<22 76 194 248> 636 40<22 76 194 341.698>
VStem: 76 118<40 636>
AnchorPoint: "Yerok" 410 754 basechar 0
AnchorPoint: "Diacritic" 260 754 basechar 0
LayerCount: 2
Fore
SplineSet
304 636 m 2
 194 636 l 1
 194 40 l 1
 248 40 l 1
 248 0 l 1
 22 0 l 1
 22 40 l 1
 76 40 l 1
 76 636 l 1
 22 636 l 1
 22 676 l 1
 464 676 l 2
 481 676 478 648 465 641 c 0
 457 637 453 621 451 615 c 0
 443 585 438 547 436 517 c 0
 435 505 415 506 410 517 c 0
 390 559 368 586 339 620 c 0
 331 629 319 636 304 636 c 2
EndSplineSet
Validated: 33
EndChar

StartChar: afii10021
Encoding: 1044 1044 83
Width: 570
Flags: W
HStem: 0 40<209.725 368> 439 136<237.978 336.976> 636 40<314 368 486 540>
VStem: 68 31<-148.024 -66.2289> 105 102<40.798 198.968> 110 104<40 94.0632> 355 131<418.138 486.765> 368 118<40 393 533 636> 484 31<-148.024 -76.5625>
AnchorPoint: "Yerok" 420 754 basechar 0
AnchorPoint: "Diacritic" 420 754 basechar 0
LayerCount: 2
Fore
SplineSet
353 487 m 1xfa
 344 460 317 439 287 439 c 0
 250 439 219 470 219 507 c 0
 219 544 250 575 287 575 c 0
 296 575 305 574 314 570 c 0
 331 562 352 549 368 533 c 1
 368 636 l 1
 314 636 l 1
 314 676 l 1
 540 676 l 1
 540 636 l 1
 486 636 l 1
 486 40 l 1xf1
 534 40 l 2
 560 40 561 11 549 -5 c 0
 511 -56 531 -102 515 -140 c 0
 508 -156 488 -153 484 -139 c 0
 471 -97 460 0 427 0 c 2
 149 0 l 2
 116 0 112 -97 99 -139 c 0
 95 -153 75 -156 68 -140 c 0
 52 -102 64 -55 24 -5 c 0
 11 11 13 40 39 40 c 2
 110 40 l 1xf480
 107 56 105 75 105 95 c 0
 105 225 189 299 284 375 c 0
 319 403 354 427 355 469 c 0
 355 476 354 482 353 487 c 1xfa
214 40 m 1xf4
 368 40 l 1
 368 393 l 1
 353 376 334 360 315 341 c 0
 248 276 207 203 207 100 c 0xf9
 207 76 209 58 214 40 c 1xf4
EndSplineSet
Validated: 33
EndChar

StartChar: afii10022
Encoding: 1045 1045 84
Width: 540
Flags: W
HStem: -2 47<206 290.844> 384 53<247.406 347.276> 491 40<346 380 489 513> 645 39<223.858 340.834>
VStem: 40 112<334.127 519.545> 150 56<45 112.085> 374 114<264 355.241 531 602.047>
AnchorPoint: "Yerok" 420 754 basechar 0
AnchorPoint: "Diacritic" 287 754 basechar 0
LayerCount: 2
Fore
SplineSet
97 184 m 0xf6
 61 260 40 309 40 397 c 0
 40 551 134 684 284 684 c 0
 424 684 489 604 489 531 c 1
 513 531 l 1
 513 491 l 1
 346 491 l 1
 346 531 l 1
 380 531 l 1
 380 574 363 645 283 645 c 0
 183 645 152 530 152 430 c 0xfa
 152 393 159 362 168 333 c 1
 201 397 257 437 330 437 c 0
 445 437 493 363 493 264 c 1
 378 264 l 1
 379 326 356 384 297 384 c 0
 251 384 209 327 185 271 c 1
 205 187 207 101 206 45 c 1
 298 45 366 116 374 175 c 1
 488 175 l 1
 472 67 364 -2 150 -2 c 1
 151 70 125 124 97 184 c 0xf6
EndSplineSet
Validated: 33
EndChar

StartChar: afii10024
Encoding: 1046 1046 85
Width: 826
Flags: W
HStem: 0 40<22 76 206 260 300 354 472 526 566 620 750 804> 520 154<70.5655 143.339 682.661 755.435> 636 40<300 354 472 526>
VStem: 76 130<40 154.004> 354 118<40 373 423 636> 620 130<40 153.187>
DStem2: 269 558 237 534 0.523826 -0.851825<-45.6959 159.124> 495 444 526 418 0.525272 0.850934<-29.5526 175.352>
CounterMasks: 1 1c
AnchorPoint: "Yerok" 690 754 basechar 0
AnchorPoint: "Diacritic" 410 754 basechar 0
LayerCount: 2
Fore
SplineSet
90 520 m 0xdc
 80 518 70 527 70 537 c 0
 72 578 68 612 49 646 c 0
 44 655 54 672 66 674 c 0xdc
 117 681 166 665 198 644 c 0
 227 625 248 599 269 558 c 0
 288 521 314 464 331 444 c 0
 338 436 346 428 354 423 c 1
 354 636 l 1
 300 636 l 1
 300 676 l 1
 526 676 l 1
 526 636 l 1
 472 636 l 1xbc
 472 423 l 1
 480 428 488 436 495 444 c 0
 512 464 538 521 557 558 c 0
 578 599 599 625 628 644 c 0
 660 665 709 681 760 674 c 0
 772 672 782 655 777 646 c 0
 758 612 754 578 756 537 c 0
 756 527 746 518 736 520 c 0
 691 531 676 545 643 570 c 0
 637 574 629 576 623 572 c 0
 606 562 608 564 589 534 c 0
 566 498 543 440 526 418 c 0
 520 411 515 406 508 400 c 1
 650 354 750 176 750 40 c 1
 804 40 l 1
 804 0 l 1
 566 0 l 1
 566 40 l 1
 620 40 l 1
 620 176 562 352 472 373 c 1
 472 40 l 1
 526 40 l 1
 526 0 l 1
 300 0 l 1
 300 40 l 1
 354 40 l 1
 354 373 l 1
 263 352 206 176 206 40 c 1
 260 40 l 1
 260 0 l 1
 22 0 l 1
 22 40 l 1
 76 40 l 1
 76 176 175 354 317 400 c 1
 311 406 305 411 300 418 c 0
 283 440 260 498 237 534 c 0
 218 564 220 562 203 572 c 0
 197 576 189 574 183 570 c 0
 150 545 135 531 90 520 c 0xdc
EndSplineSet
Validated: 33
EndChar

StartChar: afii10025
Encoding: 1047 1047 86
Width: 667
Flags: W
HStem: -10 40<329.972 473.58> 29 107<95.3594 257.48> 647 39<267.902 438.7>
VStem: 61 126<496 570.358> 504 95<473.816 593.375> 514 116<70.2492 217.814>
AnchorPoint: "Yerok" 550 754 basechar 0
AnchorPoint: "Diacritic" 340 754 basechar 0
LayerCount: 2
Fore
SplineSet
172 339 m 0xb4
 193 374 239 420 262 435 c 0
 270 440 276 437 285 435 c 0
 310 430 357 409 393 392 c 1
 410 398 430 403 446 404 c 1
 464 426 488 464 496 482 c 0
 502 496 504 515 504 531 c 0
 504 609 425 651 339 647 c 0
 296 645 257 625 225 602 c 0
 223 600 218 596 217 593 c 0
 206 570 195 531 187 496 c 1
 152 492 95 493 61 496 c 1
 73 545 82 586 114 626 c 0
 118 631 129 641 137 645 c 0
 191 670 259 686 340 686 c 0
 452 686 599 662 599 552 c 0xb8
 599 525 587 488 570 461 c 0
 553 434 518 388 500 368 c 1
 519 354 565 313 601 267 c 0
 620 242 630 208 630 174 c 0
 630 46 564 -10 431 -10 c 0xb4
 379 -10 344 -6 295 7 c 0
 251 19 216 27 163 29 c 0
 126 30 103 20 75 -3 c 0
 61 -15 30 4 34 21 c 0
 42 53 54 75 76 104 c 0
 78 107 81 110 84 111 c 0
 131 125 182 138 222 136 c 0x74
 227 136 229 133 233 131 c 0
 297 94 313 30 399 30 c 0
 484 30 514 77 514 144 c 0
 514 175 508 201 486 226 c 0
 460 255 428 294 396 317 c 1
 362 292 324 268 292 253 c 0
 284 249 278 249 270 253 c 0
 236 269 200 295 172 321 c 0
 167 326 168 333 172 339 c 0xb4
EndSplineSet
Validated: 33
EndChar

StartChar: afii10026
Encoding: 1048 1048 87
Width: 542
Flags: W
HStem: 0 40<22 76 194 248 294 348 466 520> 636 40<22 76 194 248 294 348 466 520>
VStem: 76 118<40 295 340 636> 348 118<40 371 416 636>
DStem2: 194 340 194 295 0.896744 0.442549<0 151.818>
AnchorPoint: "Yerok" 420 754 basechar 0
AnchorPoint: "Diacritic" 270 754 basechar 0
LayerCount: 2
Fore
SplineSet
248 0 m 1
 22 0 l 1
 22 40 l 1
 76 40 l 1
 76 636 l 1
 22 636 l 1
 22 676 l 1
 248 676 l 1
 248 636 l 1
 194 636 l 1
 194 340 l 1
 348 416 l 1
 348 636 l 1
 294 636 l 1
 294 676 l 1
 520 676 l 1
 520 636 l 1
 466 636 l 1
 466 40 l 1
 520 40 l 1
 520 0 l 1
 294 0 l 1
 294 40 l 1
 348 40 l 1
 348 371 l 1
 194 295 l 1
 194 40 l 1
 248 40 l 1
 248 0 l 1
EndSplineSet
Validated: 1
EndChar

StartChar: afii10027
Encoding: 1049 1049 88
Width: 542
Flags: W
HStem: 0 40<22 76 194 248 294 348 466 520> 636 40<22 76 194 248 294 348 466 520> 713 74<253.275 344.435>
VStem: 76 118<40 295 340 636> 348 118<40 371 416 636> 408 22<901.104 927.353>
DStem2: 194 340 194 295 0.896744 0.442549<0 151.818>
AnchorPoint: "Yerok" 309 1004 basechar 0
AnchorPoint: "Diacritic" 308 1003 basechar 0
LayerCount: 2
Fore
SplineSet
248 0 m 1xf8
 22 0 l 1
 22 40 l 1
 76 40 l 1
 76 636 l 1
 22 636 l 1
 22 676 l 1
 248 676 l 1
 248 636 l 1
 194 636 l 1
 194 340 l 1
 348 416 l 1
 348 636 l 1
 294 636 l 1
 294 676 l 1
 520 676 l 1
 520 636 l 1
 466 636 l 1
 466 40 l 1
 520 40 l 1
 520 0 l 1
 294 0 l 1
 294 40 l 1
 348 40 l 1
 348 371 l 1
 194 295 l 1
 194 40 l 1
 248 40 l 1
 248 0 l 1xf8
199 765 m 0
 209 737 236 713 276 713 c 0
 335 713 396 762 418 828 c 0
 429 861 433 894 430 921 c 0
 429 928 412 932 408 925 c 0xf4
 397 905 390 878 375 849 c 0
 357 815 334 787 295 787 c 0
 253 787 237 826 249 864 c 0
 259 895 268 912 276 933 c 0
 278 939 262 944 256 940 c 0
 235 924 214 896 200 863 c 0
 190 839 186 802 199 765 c 0
EndSplineSet
Validated: 41
LCarets2: 1 0
Ligature2: "'ccmp' Precomposed Glyphs for Cyrillic-1" afii10026 uni0306
EndChar

StartChar: afii10028
Encoding: 1050 1050 89
Width: 556
Flags: W
HStem: 0 40<22 66 184 228 318 362 489 533> 335 39<184 268.671> 636 40<22 66 184 228 288 332 450 494>
VStem: 66 118<40 335 374 636> 332 118<497.531 636> 362 127<40 209.094>
AnchorPoint: "Yerok" 414 754 basechar 0
AnchorPoint: "Diacritic" 260 754 basechar 0
LayerCount: 2
Fore
SplineSet
460 230 m 0xf8
 483 173 489 127 489 68 c 2
 489 40 l 1
 533 40 l 1
 533 0 l 1
 318 0 l 1
 318 40 l 1
 362 40 l 1
 362 82 l 2xf4
 362 142 360 194 330 257 c 0
 306 307 272 334 217 335 c 2
 215 335 l 1
 184 335 l 1
 184 40 l 1
 228 40 l 1
 228 0 l 1
 22 0 l 1
 22 40 l 1
 66 40 l 1
 66 636 l 1
 22 636 l 1
 22 676 l 1
 228 676 l 1
 228 636 l 1
 184 636 l 1
 184 374 l 1
 212 374 l 1
 216 374 l 2
 270 374 288 409 306 459 c 0
 325 510 332 564 332 603 c 2
 332 636 l 1
 288 636 l 1
 288 676 l 1
 494 676 l 1
 494 636 l 1
 450 636 l 1
 450 612 l 2
 450 555 438 503 402 448 c 0
 376 410 346 380 310 360 c 1
 373 342 431 302 460 230 c 0xf8
EndSplineSet
Validated: 1
EndChar

StartChar: afii10029
Encoding: 1051 1051 90
Width: 537
Flags: W
HStem: 0 40<22 66 196 240 289 343 461 515> 636 40<289 343 461 515>
VStem: 66 130<40 161.426> 343 118<40 421 475.029 636>
AnchorPoint: "Yerok" 450 754 basechar 0
AnchorPoint: "Diacritic" 400 754 basechar 0
LayerCount: 2
Fore
SplineSet
196 40 m 1
 240 40 l 1
 240 0 l 1
 22 0 l 1
 22 40 l 1
 66 40 l 1
 66 128 97 197 137 256 c 0
 176 313 211 338 256 389 c 0
 296 434 329 475 343 529 c 1
 343 636 l 1
 289 636 l 1
 289 676 l 1
 515 676 l 1
 515 636 l 1
 461 636 l 1
 461 40 l 1
 515 40 l 1
 515 0 l 1
 289 0 l 1
 289 40 l 1
 343 40 l 1
 343 421 l 1
 331 399 314 379 300 354 c 0
 273 306 258 279 237 227 c 0
 209 159 195 119 196 40 c 1
EndSplineSet
Validated: 33
EndChar

StartChar: afii10030
Encoding: 1052 1052 91
Width: 838
Flags: W
HStem: 0 40<22 66 196 240 307 361 479 533 590 644 762 816> 636 40<307 361 479 533 590 644 762 816>
VStem: 66 130<40 169.398> 361 118<40 209 265 413 453.571 636> 644 118<40 374 430 636>
DStem2: 479 265 479 209 0.707107 0.707107<0 193.747>
AnchorPoint: "Yerok" 720 754 basechar 0
AnchorPoint: "Diacritic" 564 754 basechar 0
LayerCount: 2
Fore
SplineSet
196 40 m 1
 240 40 l 1
 240 0 l 1
 22 0 l 1
 22 40 l 1
 66 40 l 1
 66 108 80 176 126 246 c 0
 171 315 212 347 270 395 c 0
 301 421 337 450 361 473 c 1
 361 636 l 1
 307 636 l 1
 307 676 l 1
 533 676 l 1
 533 636 l 1
 479 636 l 1
 479 265 l 1
 644 430 l 1
 644 636 l 1
 590 636 l 1
 590 676 l 1
 816 676 l 1
 816 636 l 1
 762 636 l 1
 762 40 l 1
 816 40 l 1
 816 0 l 1
 590 0 l 1
 590 40 l 1
 644 40 l 1
 644 374 l 1
 479 209 l 1
 479 40 l 1
 533 40 l 1
 533 0 l 1
 307 0 l 1
 307 40 l 1
 361 40 l 1
 361 413 l 1
 344 397 322 377 304 358 c 0
 263 316 237 283 219 223 c 0
 198 154 196 91 196 40 c 1
EndSplineSet
Validated: 1
EndChar

StartChar: afii10031
Encoding: 1053 1053 92
Width: 542
Flags: W
HStem: 0 40<22 76 194 248 294 348 466 520> 636 40<22 76 194 248 294 348 466 520>
VStem: 76 118<40 351 396 636> 348 118<40 275 320 636>
DStem2: 194 396 194 351 0.896744 -0.442549<19.9147 171.732>
AnchorPoint: "Yerok" 420 754 basechar 0
AnchorPoint: "Diacritic" 275 754 basechar 0
LayerCount: 2
Fore
SplineSet
248 0 m 1
 22 0 l 1
 22 40 l 1
 76 40 l 1
 76 636 l 1
 22 636 l 1
 22 676 l 1
 248 676 l 1
 248 636 l 1
 194 636 l 1
 194 396 l 1
 348 320 l 1
 348 636 l 1
 294 636 l 1
 294 676 l 1
 520 676 l 1
 520 636 l 1
 466 636 l 1
 466 40 l 1
 520 40 l 1
 520 0 l 1
 294 0 l 1
 294 40 l 1
 348 40 l 1
 348 275 l 1
 194 351 l 1
 194 40 l 1
 248 40 l 1
 248 0 l 1
EndSplineSet
Validated: 1
EndChar

StartChar: afii10032
Encoding: 1054 1054 93
Width: 590
Flags: W
HStem: -5 46<255.78 322.232> 636 46<275.456 340.483>
VStem: 46 122<246.318 454.968> 434 116<215.038 424.445>
AnchorPoint: "Yerok" 480 754 basechar 0
AnchorPoint: "Diacritic" 330 754 basechar 0
LayerCount: 2
Fore
SplineSet
375 682 m 1
 380 652 391 616 412 592 c 0
 459 537 550 451 550 318 c 0
 550 121 348 -5 228 -5 c 1
 222 20 209 46 187 71 c 0
 105 164 46 241 46 358 c 0
 46 520 222 682 375 682 c 1
259 41 m 1
 385 42 435 185 434 313 c 0
 433 420 399 487 361 563 c 0
 348 589 341 607 336 636 c 1
 226 636 168 515 168 370 c 0
 168 277 196 232 233 138 c 0
 247 102 255 73 259 41 c 1
EndSplineSet
Validated: 33
EndChar

StartChar: afii10033
Encoding: 1055 1055 94
Width: 542
Flags: W
HStem: 0 40<22 76 194 248 294 348 466 520> 636 40<22 76 194 348 466 520>
VStem: 76 118<40 636> 348 118<40 636>
AnchorPoint: "Yerok" 420 754 basechar 0
AnchorPoint: "Diacritic" 284 754 basechar 0
LayerCount: 2
Fore
SplineSet
520 676 m 1
 520 636 l 1
 466 636 l 1
 466 40 l 1
 520 40 l 1
 520 0 l 1
 294 0 l 1
 294 40 l 1
 348 40 l 1
 348 636 l 1
 194 636 l 1
 194 40 l 1
 248 40 l 1
 248 0 l 1
 22 0 l 1
 22 40 l 1
 76 40 l 1
 76 636 l 1
 22 636 l 1
 22 676 l 1
 520 676 l 1
EndSplineSet
Validated: 1
EndChar

StartChar: afii10034
Encoding: 1056 1056 95
Width: 566
Flags: W
HStem: 0 40<22 76 194 248> 327 49<344.715 412.923> 636 44<240.996 386.286>
VStem: 76 118<40 214 283 569.611> 430 103<391.658 590.734>
DStem2: 194 283 194 214 0.575125 0.818066<0 145.249>
AnchorPoint: "Yerok" 470 754 basechar 0
AnchorPoint: "Diacritic" 317 754 basechar 0
LayerCount: 2
Fore
SplineSet
248 40 m 1
 248 0 l 1
 22 0 l 1
 22 40 l 1
 76 40 l 1
 76 487 l 2
 76 601 178 680 316 680 c 0
 467 680 533 618 533 504 c 0
 533 399 494 327 407 327 c 0
 345 327 324 360 310 379 c 1
 194 214 l 1
 194 40 l 1
 248 40 l 1
194 536 m 2
 194 283 l 1
 292 422 l 2
 299 434 318 436 328 421 c 0
 338 406 355 376 382 376 c 0
 416 376 430 421 430 484 c 2
 430 516 l 2
 430 605 368 636 316 636 c 0
 251 636 194 597 194 536 c 2
EndSplineSet
Validated: 33
EndChar

StartChar: afii10035
Encoding: 1057 1057 96
Width: 573
Flags: W
HStem: -2 42<213 298.901> 258 40<350 401 508.642 541> 468 40<340 380 490.241 542> 640 45<222.219 317.054>
VStem: 35 118<270.7 486.311> 380 114<508 567.719> 401 110<172.906 258>
AnchorPoint: "Yerok" 440 754 basechar 0
AnchorPoint: "Diacritic" 290 754 basechar 0
LayerCount: 2
Fore
SplineSet
269 640 m 0xfc
 209 640 153 546 153 417 c 0
 153 333 180 254 196 184 c 0
 207 134 213 86 213 40 c 1
 361 40 401 171 401 258 c 1
 350 258 l 1
 350 298 l 1
 541 298 l 1
 541 258 l 1
 511 258 l 1xfa
 487 110 428 -2 160 -2 c 1
 157 18 158 68 136 110 c 0
 87 204 35 248 35 373 c 0
 35 528 155 685 293 685 c 0
 395 685 484 584 494 508 c 1
 542 508 l 1
 542 468 l 1
 340 468 l 1
 340 508 l 1
 380 508 l 1
 376 568 317 640 269 640 c 0xfc
EndSplineSet
Validated: 1
EndChar

StartChar: afii10036
Encoding: 1058 1058 97
Width: 626
Flags: W
HStem: 0 40<196 250 368 422> 636 40<137.661 250 368 487.126>
VStem: 250 118<40 636>
AnchorPoint: "Yerok" 530 754 basechar 0
AnchorPoint: "Diacritic" 310 754 basechar 0
LayerCount: 2
Fore
SplineSet
135 611 m 0
 123 585 102 544 94 520 c 0
 90 508 68 508 64 520 c 0
 50 566 38 591 15 632 c 0
 6 648 5 676 27 676 c 2
 598 676 l 2
 627 676 628 650 617 635 c 0
 590 597 569 549 557 503 c 0
 553 489 532 489 528 503 c 0
 518 539 502 573 489 612 c 0
 485 622 478 636 465 636 c 2
 368 636 l 1
 368 40 l 1
 422 40 l 1
 422 0 l 1
 196 0 l 1
 196 40 l 1
 250 40 l 1
 250 636 l 1
 163 636 l 2
 149 636 141 624 135 611 c 0
EndSplineSet
Validated: 33
EndChar

StartChar: uniA64A
Encoding: 42570 42570 98
Width: 552
Flags: W
HStem: -1 40<194.449 423.551> 107 40<204 293 334 414> 221 40<194.941 297 340 422.411> 332 40<114 168 278.204 303> 636 40<25 87.2461 212 266>
VStem: 108 40<78.2981 182.739> 470 40<78.2981 182.156>
DStem2: 293 147 334 147 0.0550014 0.998486<2.25506 74.108>
AnchorPoint: "Yerok" 446 754 basechar 0
AnchorPoint: "Diacritic" 330 754 basechar 0
LayerCount: 2
Fore
SplineSet
510 130 m 0
 510 36 422 -1 309 -1 c 0
 196 -1 108 36 108 130 c 0
 108 221 191 259 299 261 c 1
 303 332 l 1
 114 332 l 1
 114 372 l 1
 168 372 l 1
 152 457 114 566 79 636 c 1
 25 636 l 1
 25 676 l 1
 266 676 l 1
 266 636 l 1
 212 636 l 1
 238 569 267 457 281 372 c 1
 305 372 l 1
 306 383 l 2
 308 420 316 471 329 507 c 0
 341 541 355 577 381 612 c 0
 417 660 462 687 527 676 c 0
 537 674 543 663 537 653 c 0
 527 635 519 621 513 599 c 0
 507 576 505 560 506 538 c 0
 506 530 501 522 492 526 c 0
 469 536 459 537 436 537 c 0
 409 537 387 519 375 491 c 0
 360 456 348 414 346 381 c 2
 340 260 l 1
 437 253 510 215 510 130 c 0
414 107 m 1
 204 107 l 1
 204 147 l 1
 293 147 l 1
 297 221 l 1
 215 219 148 199 148 130 c 0
 148 58 222 39 309 39 c 0
 396 39 470 58 470 130 c 0
 470 194 412 216 338 220 c 1
 334 147 l 1
 414 147 l 1
 414 107 l 1
EndSplineSet
Validated: 33
EndChar

StartChar: afii10038
Encoding: 1060 1060 99
Width: 728
Flags: W
HStem: 0 40<252 306 424 478> 102 44<171.178 292.982 436.236 558.822> 636 40<262 306 424 468>
VStem: 25 121<194.002 366.99> 306 118<40 132 158.437 524 550.85 636> 584 121<194.002 366.99>
CounterMasks: 1 1c
AnchorPoint: "Yerok" 620 754 basechar 0
AnchorPoint: "Diacritic" 370 754 basechar 0
LayerCount: 2
Fore
SplineSet
478 0 m 1
 252 0 l 1
 252 40 l 1
 306 40 l 1
 306 132 l 1
 289 120 258 102 221 102 c 0
 124 102 25 148 25 297 c 0
 25 409 141 461 226 513 c 0
 258 532 289 552 306 570 c 1
 306 636 l 1
 262 636 l 1
 262 676 l 1
 468 676 l 1
 468 636 l 1
 424 636 l 1
 424 570 l 1
 441 552 472 532 504 513 c 0
 589 461 705 409 705 297 c 0
 705 148 606 102 509 102 c 0
 471 102 440 120 424 132 c 1
 424 40 l 1
 478 40 l 1
 478 0 l 1
477 469 m 0
 456 488 436 507 424 524 c 1
 424 172 l 1
 448 155 465 146 504 146 c 0
 558 146 584 178 584 273 c 0
 584 362 540 409 477 469 c 0
226 146 m 0
 265 146 282 155 306 172 c 1
 306 524 l 1
 293 507 273 488 253 469 c 0
 190 409 146 362 146 273 c 0
 146 178 172 146 226 146 c 0
EndSplineSet
Validated: 1
EndChar

StartChar: afii10039
Encoding: 1061 1061 100
Width: 522
Flags: W
HStem: 0 40<19 73 118 172 274 328 446 500> 636 40<34 88 206 260>
DStem2: 73 40 118 40 0.429568 0.903034<19.3306 283.697 470.562 614.558> 206 636 88 636 0.373536 -0.927616<0 184.396 239.175 285.718 340.497 598.43>
AnchorPoint: "Yerok" 430 754 basechar 0
AnchorPoint: "Diacritic" 300 754 basechar 0
LayerCount: 2
Fore
SplineSet
359 548 m 2
 295 414 l 1
 446 40 l 1
 500 40 l 1
 500 0 l 1
 274 0 l 1
 274 40 l 1
 328 40 l 1
 231 279 l 1
 118 40 l 1
 172 40 l 1
 172 0 l 1
 19 0 l 1
 19 40 l 1
 73 40 l 1
 211 330 l 1
 88 636 l 1
 34 636 l 1
 34 676 l 1
 260 676 l 1
 260 636 l 1
 206 636 l 1
 275 465 l 1
 347 616 l 2
 356 635 382 661 406 667 c 0
 429 673 476 679 494 680 c 0
 504 681 515 671 512 661 c 0
 498 619 494 577 494 529 c 0
 494 517 485 509 475 514 c 0
 448 527 434 542 405 564 c 0
 390 576 368 566 359 548 c 2
EndSplineSet
Validated: 33
EndChar

StartChar: afii10040
Encoding: 1062 1062 101
Width: 549
Flags: W
HStem: 0 40<22 80 198 352> 636 40<26 80 198 252 298 352 470 524>
VStem: 80 118<40 636> 352 118<40 636> 422 105<-125 0>
AnchorPoint: "Yerok" 420 754 basechar 0
AnchorPoint: "Diacritic" 278 754 basechar 0
LayerCount: 2
Fore
SplineSet
422 0 m 1xe8
 22 0 l 1
 22 40 l 1
 80 40 l 1
 80 636 l 1
 26 636 l 1
 26 676 l 1
 252 676 l 1
 252 636 l 1
 198 636 l 1
 198 40 l 1
 352 40 l 1
 352 636 l 1
 298 636 l 1
 298 676 l 1
 524 676 l 1
 524 636 l 1
 470 636 l 1
 470 40 l 1xf0
 527 40 l 1
 527 -125 l 1
 334 -261 l 1
 287 -261 l 1
 122 -173 l 1
 66 -221 l 2
 45 -238 13 -207 30 -190 c 2
 141 -80 l 1
 206 -80 l 1
 385 -176 l 1
 422 -150 l 1
 422 0 l 1xe8
EndSplineSet
Validated: 33
EndChar

StartChar: afii10041
Encoding: 1063 1063 102
Width: 532
Flags: W
HStem: 0 40<284 338 456 510> 636 40<22 66 184 228 294 338 456 500>
VStem: 66 118<352.425 636> 338 118<40 281.061 317 636>
DStem2: 245 345 236 306 0.949561 -0.313583<-60.4381 97.0895>
AnchorPoint: "Yerok" 420 754 basechar 0
AnchorPoint: "Diacritic" 260 754 basechar 0
LayerCount: 2
Fore
SplineSet
228 636 m 1
 184 636 l 1
 184 356 l 1
 204 353 224 349 245 345 c 0
 278 337 306 328 338 317 c 1
 338 636 l 1
 294 636 l 1
 294 676 l 1
 500 676 l 1
 500 636 l 1
 456 636 l 1
 456 40 l 1
 510 40 l 1
 510 0 l 1
 284 0 l 1
 284 40 l 1
 338 40 l 1
 338 273 l 1
 302 287 273 297 236 306 c 0
 180 319 131 323 66 323 c 1
 66 636 l 1
 22 636 l 1
 22 676 l 1
 228 676 l 1
 228 636 l 1
EndSplineSet
Validated: 1
EndChar

StartChar: afii10042
Encoding: 1064 1064 103
Width: 870
Flags: W
HStem: 0 40<22 76 194 376 494 676 794 848> 636 40<22 76 194 248 322 376 494 548 622 676 794 848>
VStem: 76 118<40 636> 376 118<40 636> 676 118<40 636>
CounterMasks: 1 38
AnchorPoint: "Yerok" 730 754 basechar 0
AnchorPoint: "Diacritic" 430 754 basechar 0
LayerCount: 2
Fore
SplineSet
676 40 m 1
 676 636 l 1
 622 636 l 1
 622 676 l 1
 848 676 l 1
 848 636 l 1
 794 636 l 1
 794 40 l 1
 848 40 l 1
 848 0 l 1
 22 0 l 1
 22 40 l 1
 76 40 l 1
 76 636 l 1
 22 636 l 1
 22 676 l 1
 248 676 l 1
 248 636 l 1
 194 636 l 1
 194 40 l 1
 376 40 l 1
 376 636 l 1
 322 636 l 1
 322 676 l 1
 548 676 l 1
 548 636 l 1
 494 636 l 1
 494 40 l 1
 676 40 l 1
EndSplineSet
Validated: 1
EndChar

StartChar: afii10043
Encoding: 1065 1065 104
Width: 870
Flags: W
HStem: 0 40<22 76 194 376 494 676 794 848> 636 40<22 76 194 248 322 376 494 548 622 676 794 848>
VStem: 76 118<40 636> 376 118<-89.7942 0 40 636> 676 118<40 636>
CounterMasks: 1 38
AnchorPoint: "Yerok" 729 754 basechar 0
AnchorPoint: "Diacritic" 440 754 basechar 0
LayerCount: 2
Fore
SplineSet
494 -30 m 2
 494 -65 523 -112 557 -130 c 0
 561 -132 560 -144 557 -146 c 0
 524 -167 464 -217 442 -263 c 0
 440 -268 429 -268 427 -263 c 0
 405 -217 346 -167 313 -146 c 0
 310 -144 309 -132 313 -130 c 0
 347 -112 376 -65 376 -30 c 2
 376 0 l 1
 22 0 l 1
 22 40 l 1
 76 40 l 1
 76 636 l 1
 22 636 l 1
 22 676 l 1
 248 676 l 1
 248 636 l 1
 194 636 l 1
 194 40 l 1
 376 40 l 1
 376 636 l 1
 322 636 l 1
 322 676 l 1
 548 676 l 1
 548 636 l 1
 494 636 l 1
 494 40 l 1
 676 40 l 1
 676 636 l 1
 622 636 l 1
 622 676 l 1
 848 676 l 1
 848 636 l 1
 794 636 l 1
 794 40 l 1
 848 40 l 1
 848 0 l 1
 494 0 l 1
 494 -30 l 2
EndSplineSet
Validated: 1
EndChar

StartChar: afii10044
Encoding: 1066 1066 105
Width: 547
Flags: W
HStem: 0 40<181 372> 272 40<401 433> 636 40<182.898 299 428 472>
DStem2: 52 40 181 40 0.382854 0.923809<49.3881 294.157 343.544 645.155> 401 272 275 266 0.395829 -0.918324<0 201.572>
AnchorPoint: "Yerok" 420 754 basechar 0
AnchorPoint: "Diacritic" 310 754 basechar 0
LayerCount: 2
Fore
SplineSet
40 638 m 0
 32 652 23 676 38 676 c 2
 472 676 l 1
 472 636 l 1
 428 636 l 1
 293 312 l 1
 433 312 l 1
 433 272 l 1
 401 272 l 1
 501 40 l 1
 501 0 l 1
 52 0 l 1
 52 40 l 1
 299 636 l 1
 195 636 l 1
 167 597 133 533 117 473 c 0
 115 464 102 463 100 473 c 0
 86 538 68 593 40 638 c 0
372 40 m 1
 275 266 l 1
 181 40 l 1
 372 40 l 1
EndSplineSet
Validated: 33
EndChar

StartChar: afii10045
Encoding: 1067 1067 106
Width: 784
Flags: W
HStem: 0 40<22 76 194 318 436 480 536 590 708 762> 294 40<436 461> 325 41<194 296.723> 636 40<22 76 194 248 546 590 708 752>
VStem: 76 118<40 325 360.808 636> 318 118<40 294> 590 118<40 636>
AnchorPoint: "Yerok" 640 754 basechar 0
AnchorPoint: "Diacritic" 400 754 basechar 0
LayerCount: 2
Fore
SplineSet
194 636 m 1xde
 194 366 l 1xbe
 221 359 247 354 278 349 c 0
 336 338 384 334 461 334 c 1
 461 294 l 1
 436 294 l 1
 436 40 l 1
 480 40 l 1
 480 0 l 1
 22 0 l 1
 22 40 l 1
 76 40 l 1
 76 636 l 1
 22 636 l 1
 22 676 l 1
 248 676 l 1
 248 636 l 1
 194 636 l 1xde
762 0 m 1
 536 0 l 1
 536 40 l 1
 590 40 l 1
 590 636 l 1
 546 636 l 1
 546 676 l 1
 752 676 l 1
 752 636 l 1
 708 636 l 1
 708 40 l 1
 762 40 l 1
 762 0 l 1
271 309 m 0
 242 314 218 319 194 325 c 1
 194 40 l 1
 318 40 l 1
 318 302 l 1
 302 304 287 306 271 309 c 0
EndSplineSet
Validated: 1
EndChar

StartChar: afii10046
Encoding: 1068 1068 107
Width: 540
Flags: W
HStem: 0 40<22 76 194 356 474 518> 294 40<474 499> 335 42<194 274.471> 636 40<22 76 194 248>
VStem: 76 118<40 335 370.923 636> 356 118<40 294>
AnchorPoint: "Yerok" 420 754 basechar 0
AnchorPoint: "Diacritic" 300 754 basechar 0
LayerCount: 2
Fore
SplineSet
194 636 m 1
 194 377 l 1
 239 363 271 356 316 349 c 0
 374 338 422 334 499 334 c 1
 499 294 l 1
 474 294 l 1
 474 40 l 1
 518 40 l 1
 518 0 l 1
 22 0 l 1
 22 40 l 1
 76 40 l 1
 76 636 l 1
 22 636 l 1
 22 676 l 1
 248 676 l 1
 248 636 l 1
 194 636 l 1
309 309 m 0
 265 317 234 323 194 335 c 1
 194 40 l 1
 356 40 l 1
 356 302 l 1
 340 304 325 306 309 309 c 0
EndSplineSet
Validated: 1
EndChar

StartChar: uni0462
Encoding: 1122 1122 108
Width: 744
Flags: W
HStem: 0 40<226 280 398 560 678 722> 294 40<678 703> 335 42<398 478.471> 535 40<3 57 163 280 398 522.175> 636 40<226 280 398 452>
VStem: 57 106<315 535> 280 118<40 335 370.923 535 575 636> 560 118<40 294>
AnchorPoint: "Yerok" 580 754 basechar 0
AnchorPoint: "Diacritic" 340 754 basechar 0
LayerCount: 2
Fore
SplineSet
398 636 m 1
 398 575 l 1
 641 575 l 2
 657 575 655 544 641 535 c 0
 616 519 592 478 576 444 c 0
 575 441 565 441 564 444 c 0
 552 473 530 517 500 535 c 1
 398 535 l 1
 398 377 l 1
 443 363 475 356 520 349 c 0
 578 338 626 334 703 334 c 1
 703 294 l 1
 678 294 l 1
 678 40 l 1
 722 40 l 1
 722 0 l 1
 226 0 l 1
 226 40 l 1
 280 40 l 1
 280 535 l 1
 163 535 l 1
 163 315 l 1
 57 315 l 1
 57 535 l 1
 3 535 l 1
 3 575 l 1
 280 575 l 1
 280 636 l 1
 226 636 l 1
 226 676 l 1
 452 676 l 1
 452 636 l 1
 398 636 l 1
513 309 m 0
 469 317 438 323 398 335 c 1
 398 40 l 1
 560 40 l 1
 560 302 l 1
 544 304 529 306 513 309 c 0
EndSplineSet
Validated: 33
EndChar

StartChar: afii10048
Encoding: 1070 1070 109
Width: 791
Flags: W
HStem: 0 40<22 76 194 248> 636 40<22 76 194 248>
VStem: 76 118<40 296 341 636> 287 111<268.389 342>
DStem2: 194 341 194 296 0.892579 0.450891<0 83.4608>
AnchorPoint: "Yerok" 660 754 basechar 0
AnchorPoint: "Diacritic" 380 754 basechar 0
LayerCount: 2
Fore
SplineSet
248 0 m 1
 22 0 l 1
 22 40 l 1
 76 40 l 1
 76 636 l 1
 22 636 l 1
 22 676 l 1
 248 676 l 1
 248 636 l 1
 194 636 l 1
 194 341 l 1
 291 390 l 1
 315 526 431 663 520 679 c 1
 532 652 561 624 583 605 c 0
 630 565 744 460 759 365 c 0
 787 192 632 34 506 -9 c 1
 496 12 469 37 444 57 c 0
 353 127 287 232 287 342 c 1
 194 296 l 1
 194 40 l 1
 248 40 l 1
 248 0 l 1
658 315 m 0
 654 415 590 491 540 555 c 0
 523 576 507 604 499 629 c 1
 430 571 398 524 398 390 c 0
 398 298 435 211 489 133 c 0
 509 104 525 78 532 49 c 1
 608 95 663 198 658 315 c 0
EndSplineSet
Validated: 33
EndChar

StartChar: uniA656
Encoding: 42582 42582 110
Width: 777
Flags: W
HStem: 0 40<22 76 194 248 549 583 701 755> 446 122<284.803 379.544> 487 40<194 284.803 379.544 540> 636 40<22 76 194 248 529 583 701 755>
VStem: 76 118<40 487 527 636> 386 55<71.5392 181.397> 583 118<40 444 527 636>
AnchorPoint: "Yerok" 620 754 basechar 0
AnchorPoint: "Diacritic" 380 754 basechar 0
LayerCount: 2
Fore
SplineSet
248 0 m 1xbe
 22 0 l 1
 22 40 l 1
 76 40 l 1
 76 636 l 1
 22 636 l 1
 22 676 l 1
 248 676 l 1
 248 636 l 1
 194 636 l 1
 194 527 l 1
 274 527 l 1xbe
 282 551 305 568 332 568 c 0xde
 359 568 382 551 391 527 c 1
 583 527 l 1
 583 636 l 1
 529 636 l 1
 529 676 l 1
 755 676 l 1
 755 636 l 1
 701 636 l 1
 701 40 l 1
 755 40 l 1
 755 0 l 1
 549 0 l 1
 549 40 l 1
 583 40 l 1
 583 444 l 1
 559 421 523 395 497 359 c 0
 482 339 477 319 474 295 c 1
 493 277 502 251 495 224 c 0
 487 197 466 179 441 173 c 1
 441 120 l 2
 441 94 461 63 500 42 c 0
 514 34 518 0 495 0 c 2
 332 0 l 2
 310 0 314 32 327 40 c 0
 367 66 386 93 386 120 c 2
 386 176 l 1
 342 190 313 227 325 270 c 0
 331 294 349 311 371 318 c 1
 365 326 361 335 361 344 c 0
 361 377 371 408 402 428 c 0
 441 453 492 465 519 477 c 0
 527 481 534 484 540 487 c 2
 391 487 l 1xbe
 382 463 359 446 332 446 c 0xde
 305 446 282 463 274 487 c 1
 194 487 l 1
 194 40 l 1
 248 40 l 1
 248 0 l 1xbe
473 378 m 0
 493 402 517 423 535 436 c 1
 516 426 476 412 447 390 c 0
 433 379 430 372 424 352 c 0
 423 348 421 336 425 330 c 0
 426 328 440 322 442 323 c 0
 447 326 449 333 451 338 c 0
 457 354 460 363 473 378 c 0
EndSplineSet
Validated: 33
EndChar

StartChar: afii10065
Encoding: 1072 1072 111
Width: 407
Flags: W
HStem: 0 21G<268.5 350.5> 417 20G<212 301.5>
VStem: 201 109<304.703 437> 255 106<0 107.375>
AnchorPoint: "Yerok" 310 502 basechar 0
AnchorPoint: "Diacritic" 257 502 basechar 0
LayerCount: 2
Fore
SplineSet
297 437 m 2xe0
 306 437 310 428 310 419 c 0xe0
 310 386 313 285 324 199 c 0
 332 134 345 74 361 36 c 0
 365 28 364 21 360 13 c 0
 357 7 354 0 347 0 c 2
 273 0 l 2
 264 0 258 9 255 17 c 0xd0
 250 30 242 73 234 117 c 1
 201 69 169 33 133 14 c 0
 115 4 69 -8 43 7 c 0
 32 14 32 44 36 58 c 0
 55 121 70 137 99 186 c 0
 122 225 145 243 168 283 c 0
 185 313 194 338 201 367 c 1
 200 387 200 405 201 419 c 0
 201 427 208 437 216 437 c 2
 297 437 l 2xe0
222 201 m 1
 219 225 214 263 212 273 c 1
 193 236 174 210 148 170 c 0
 131 144 106 99 117 90 c 0
 131 78 160 110 179 133 c 0
 198 156 212 178 222 201 c 1
EndSplineSet
Validated: 33
EndChar

StartChar: afii10066
Encoding: 1073 1073 112
Width: 442
Flags: W
HStem: 0 40<164.004 277.045> 402 40<173 262.945>
VStem: 59 108<40 51 51.0489 194 232 278.636> 70 98<173.364 194 232 400>
AnchorPoint: "Yerok" 328 502 basechar 0
AnchorPoint: "Diacritic" 217 502 basechar 0
LayerCount: 2
Fore
SplineSet
168 232 m 1xd0
 171 233 176 234 182 236 c 0
 195 241 229 253 249 256 c 0
 260 258 269 254 275 246 c 0
 299 216 316 188 337 150 c 0
 359 110 373 88 390 45 c 0
 397 26 385 0 365 0 c 2
 84 0 l 2
 68 0 59 17 59 33 c 2xe0
 70 419 l 2
 70 429 79 437 89 437 c 2
 283 442 l 2
 295 442 320 448 336 449 c 0
 349 450 370 445 374 440 c 0
 377 436 374 417 368 407 c 0
 349 374 339 350 329 317 c 0
 326 308 320 298 313 298 c 0
 306 298 302 309 296 320 c 0
 280 351 264 385 250 402 c 1
 173 400 l 1
 171 380 170 306 168 232 c 1xd0
167 194 m 1
 165 118 164 51 164 51 c 2
 164 44 170 40 177 40 c 2
 272 40 l 2
 276 40 278 45 277 47 c 2
 277 47 261 87 247 110 c 0
 229 140 208 171 190 181 c 0
 182 186 173 191 167 194 c 1
EndSplineSet
Validated: 33
EndChar

StartChar: afii10067
Encoding: 1074 1074 113
Width: 416
Flags: W
HStem: 0 40<163 265.09> 397 40<176.766 247>
VStem: 64 99<40 161> 80 92<252 397>
DStem2: 172 252 212 245 0.461025 0.887387<12.2293 163.248> 381 19 265 49 0.360142 -0.932898<-238.197 -68.0806>
AnchorPoint: "Yerok" 308 502 basechar 0
AnchorPoint: "Diacritic" 207 502 basechar 0
LayerCount: 2
Fore
SplineSet
381 19 m 2xd0
 383 13 381 0 368 0 c 2
 81 0 l 2
 71 0 64 6 64 16 c 2xe0
 80 419 l 2
 81 432 90 437 98 437 c 2
 292 437 l 2
 303 437 306 427 301 417 c 2
 212 245 l 1
 281 245 l 2
 289 245 295 241 298 234 c 2
 381 19 l 2xd0
265 49 m 2
 204 206 l 1
 192 206 l 1
 168 161 l 1
 163 40 l 1
 260 40 l 2
 264 40 267 45 265 49 c 2
247 397 m 1
 189 397 l 2
 181 397 177 393 177 385 c 2
 172 252 l 1xd0
 247 397 l 1
EndSplineSet
Validated: 1
EndChar

StartChar: afii10068
Encoding: 1075 1075 114
Width: 379
Flags: W
HStem: 0 21G<72 157> 397 40<164 232.615>
VStem: 64 100<0 397>
AnchorPoint: "Yerok" 298 502 basechar 0
AnchorPoint: "Diacritic" 197 502 basechar 0
LayerCount: 2
Fore
SplineSet
341 407 m 0
 319 377 310 354 301 323 c 0
 298 314 295 302 282 302 c 0
 272 302 265 314 260 325 c 0
 245 356 233 380 220 397 c 1
 174 397 l 2
 168 397 164 390 164 384 c 2
 164 16 l 2
 164 8 161 0 153 0 c 2
 76 0 l 2
 68 0 64 8 64 16 c 2
 64 418 l 2
 64 426 67 437 75 437 c 2
 333 437 l 2
 347 437 349 418 341 407 c 0
EndSplineSet
Validated: 1
EndChar

StartChar: afii10069
Encoding: 1076 1076 115
Width: 473
Flags: W
HStem: 0 40<117.016 132.581 180 276>
VStem: 72 32<-161.247 -82.7307> 198 113<255.244 433.346> 359 31<-164.453 -104.792>
AnchorPoint: "Yerok" 338 502 basechar 0
AnchorPoint: "Diacritic" 337 502 basechar 0
LayerCount: 2
Back
SplineSet
46 40 m 2
 127 40 l 1
 134 68 145 93 160 126 c 0
 182 175 201 209 215 253 c 1
 208 301 206 341 203 392 c 0
 200 399 198 405 198 417 c 0
 198 426 206 437 215 436 c 0
 250 432 266 433 297 437 c 0
 305 438 313 427 314 417 c 0
 315 406 315 399 311 388 c 0
 308 339 311 273 325 204 c 0
 338 139 356 81 380 40 c 1
 446 40 l 2
 464 40 465 12 454 -3 c 0
 435 -28 424 -53 415 -78 c 0
 404 -108 397 -127 390 -152 c 0
 384 -174 362 -175 359 -148 c 0
 352 -89 358 -51 349 0 c 1
 120 0 l 1
 112 -47 104 -105 104 -144 c 0
 104 -165 81 -177 72 -150 c 0
 66 -132 62 -103 55 -78 c 0
 48 -53 37 -34 26 -10 c 0
 13 20 22 40 46 40 c 2
80 669 m 0
 80 685 84 709 85 736 c 0
 85 740 86 743 88 747 c 0
 98 772 126 809 142 827 c 0
 145 831 147 832 152 834 c 0
 191 853 228 869 270 885 c 0
 273 886 274 889 278 890 c 0
 294 893 313 897 336 897 c 0
 418 897 463 857 522 802 c 0
 566 761 596 732 659 719 c 0
 688 713 679 684 663 674 c 0
 645 663 630 662 606 662 c 0
 533 662 506 701 452 754 c 0
 401 804 357 833 284 834 c 0
 270 834 257 830 242 822 c 0
 218 809 196 791 179 767 c 0
 170 755 170 745 169 730 c 0
 168 706 169 691 169 670 c 0
 169 665 165 658 159 658 c 2
 89 658 l 2
 84 658 80 664 80 669 c 0
380 705 m 0
 388 692 386 667 378 659 c 0
 369 649 356 660 347 659 c 0
 327 657 316 633 317 600 c 0
 318 568 345 548 372 549 c 0
 383 549 386 525 378 517 c 0
 366 506 353 503 335 503 c 0
 282 503 247 553 247 605 c 0
 247 669 293 726 335 726 c 0
 357 726 372 719 380 705 c 0
276 40 m 1
 260 75 243 121 230 173 c 1
 218 156 210 137 200 113 c 0
 189 86 183 63 180 40 c 1
 276 40 l 1
EndSplineSet
Fore
SplineSet
46 40 m 2
 127 40 l 1
 134 68 145 93 160 126 c 0
 182 175 201 209 215 253 c 1
 208 301 206 341 203 392 c 0
 200 399 198 405 198 417 c 0
 198 426 206 437 215 436 c 0
 250 432 266 433 297 437 c 0
 305 438 313 427 314 417 c 0
 315 406 315 399 311 388 c 0
 308 339 311 273 325 204 c 0
 338 139 356 81 380 40 c 1
 446 40 l 2
 464 40 465 12 454 -3 c 0
 435 -28 424 -53 415 -78 c 0
 404 -108 397 -127 390 -152 c 0
 384 -174 362 -175 359 -148 c 0
 352 -89 358 -51 349 0 c 1
 120 0 l 1
 112 -47 104 -105 104 -144 c 0
 104 -165 81 -177 72 -150 c 0
 66 -132 62 -103 55 -78 c 0
 48 -53 37 -34 26 -10 c 0
 13 20 22 40 46 40 c 2
276 40 m 1
 260 75 243 121 230 173 c 1
 218 156 210 137 200 113 c 0
 189 86 183 63 180 40 c 1
 276 40 l 1
EndSplineSet
Validated: 33
EndChar

StartChar: afii10070
Encoding: 1077 1077 116
Width: 280
Flags: W
HStem: -2 21G<65.5 132> 184 98<156.453 234.179> 352 89<171.262 239.972>
VStem: 47 90<95.4314 163.249 258 321.16>
AnchorPoint: "Yerok" 198 502 basechar 0
AnchorPoint: "Diacritic" 157 502 basechar 0
LayerCount: 2
Fore
SplineSet
226 441 m 0
 237 442 238 437 239 429 c 0
 241 412 243 385 239 363 c 0
 238 355 237 353 227 352 c 0
 175 345 136 315 137 277 c 2
 137 258 l 1
 147 261 158 265 166 268 c 0
 180 273 202 281 217 282 c 0
 234 283 233 275 234 267 c 0
 236 252 235 218 234 202 c 0
 233 190 233 187 221 184 c 0
 194 178 160 166 138 152 c 1
 139 126 140 104 141 95 c 1
 163 100 187 114 209 121 c 0
 227 127 225 114 225 94 c 0
 225 58 192 -2 72 -2 c 0
 59 -2 51 1 51 13 c 0
 55 113 51 164 47 269 c 0
 43 380 124 433 226 441 c 0
EndSplineSet
Validated: 33
EndChar

StartChar: afii10072
Encoding: 1078 1078 117
Width: 636
Flags: W
HStem: 0 21G<45.5 157.5 274 367.5 477.5 593.5> 309 129<512.024 569.762> 382 55<158 177.763>
VStem: 39 107<6.32921 96.5464> 71 91<246 380.585> 263 114<0 233.217> 268 118<294.026 316.813 376 437> 470 130<0 113.8>
AnchorPoint: "Yerok" 538 502 basechar 0
AnchorPoint: "Diacritic" 328 502 basechar 0
LayerCount: 2
Fore
SplineSet
51 0 m 2xd3
 40 0 39 6 39 18 c 0xd3
 39 41 44 71 55 88 c 0
 109 175 186 246 268 302 c 1
 268 308 l 1
 240 336 206 366 178 381 c 0
 173 383 165 382 158 382 c 1
 156 349 163 289 162 257 c 0
 162 251 157 246 151 246 c 2
 89 246 l 2
 81 246 71 254 71 261 c 0
 72 302 70 357 62 399 c 0
 58 418 80 437 99 437 c 2
 165 437 l 2
 174 437 184 438 189 436 c 0
 215 423 244 399 268 376 c 1xab
 271 424 l 2
 271 430 275 437 282 437 c 2
 377 437 l 2xa5
 384 437 390 429 390 423 c 0
 391 406 391 389 390 373 c 1
 411 383 432 393 453 402 c 0
 490 418 515 437 549 438 c 0
 566 439 602 430 589 404 c 0
 581 389 578 383 574 364 c 0
 571 348 574 337 570 323 c 0
 565 304 555 309 545 309 c 0
 533 309 516 329 503 337 c 0
 483 349 454 347 442 342 c 0
 424 335 405 327 387 317 c 0
 386 313 386 310 386 306 c 0xc3
 465 259 535 197 572 127 c 0
 592 89 600 46 600 16 c 0
 600 4 597 0 590 0 c 2
 482 0 l 2
 473 0 470 3 470 14 c 0
 470 25 472 46 476 59 c 0
 481 75 476 108 468 129 c 0
 456 161 428 200 378 235 c 1
 375 197 371 157 372 114 c 0
 372 77 379 55 377 18 c 0
 376 9 372 0 363 0 c 2
 280 0 l 2
 268 0 264 15 263 27 c 0xc5
 260 62 266 86 267 124 c 0
 268 165 268 202 268 239 c 1
 230 208 194 173 166 140 c 0
 152 123 146 107 146 87 c 0
 146 76 147 69 154 55 c 0
 160 43 167 26 167 12 c 0
 167 2 162 0 153 0 c 2
 51 0 l 2xd3
EndSplineSet
Validated: 33
EndChar

StartChar: afii10073
Encoding: 1079 1079 118
Width: 450
Flags: W
HStem: -137 53<218.678 322.212> 381 58<173.622 288.993>
VStem: 41 110<303.243 358.231> 327 73<230.897 347.002> 330 80<-64.3911 59.4993>
AnchorPoint: "Yerok" 338 502 basechar 0
AnchorPoint: "Diacritic" 217 502 basechar 0
LayerCount: 2
Fore
SplineSet
265 109 m 1xe8
 238 92 212 76 189 62 c 0
 186 60 180 60 175 62 c 0
 146 76 123 92 102 120 c 0
 95 130 95 140 101 150 c 0
 124 190 148 207 182 227 c 0
 186 230 190 229 195 227 c 0
 219 219 243 208 266 195 c 1
 299 218 328 244 327 298 c 0
 326 340 281 379 236 381 c 0
 202 382 169 366 154 337 c 0
 148 325 155 316 151 304 c 0
 148 294 146 289 136 286 c 0
 120 281 76 292 50 303 c 0
 38 308 36 325 41 337 c 0
 71 418 137 439 217 439 c 0
 302 439 398 412 400 301 c 0xf0
 401 240 369 193 326 155 c 1
 376 112 411 57 410 -2 c 0
 409 -79 322 -137 234 -137 c 0
 195 -137 179 -131 147 -113 c 0
 129 -103 114 -80 93 -81 c 0
 76 -82 68 -94 46 -102 c 0
 38 -105 20 -85 31 -74 c 0
 63 -43 106 -23 142 -19 c 0
 189 -14 218 -84 268 -84 c 0
 301 -84 325 -78 330 -41 c 0
 333 -21 325 -9 320 10 c 0
 316 24 318 35 313 48 c 0
 303 77 285 93 265 109 c 1xe8
EndSplineSet
Validated: 33
EndChar

StartChar: afii10074
Encoding: 1080 1080 119
Width: 453
Flags: W
HStem: 0 21G<71 153.5 297 383.5> 417 20G<78.5 162.5 296.5 380.5>
VStem: 60 102<0 196> 70 94<242.415 437> 286 108<0 253 298 437>
DStem2: 164 242 162 196 0.904649 0.426157<0 112.341>
AnchorPoint: "Yerok" 318 502 basechar 0
AnchorPoint: "Diacritic" 227 502 basechar 0
LayerCount: 2
Fore
SplineSet
175 414 m 0xd8
 171 364 167 302 164 242 c 1xd8
 283 298 l 1
 284 344 286 388 288 424 c 0
 288 430 293 437 300 437 c 2
 376 437 l 2
 385 437 394 426 393 414 c 0
 385 302 385 131 394 50 c 0
 395 38 401 25 394 13 c 0
 390 7 387 0 380 0 c 2
 301 0 l 2
 293 0 286 9 286 16 c 0
 283 74 282 165 283 253 c 1
 162 196 l 1
 160 138 159 85 162 49 c 0
 163 37 165 26 162 12 c 0
 160 5 157 0 150 0 c 2
 75 0 l 2
 67 0 60 9 60 16 c 0xe8
 55 116 63 309 70 423 c 0
 70 429 75 437 82 437 c 2
 158 437 l 2
 167 437 176 426 175 414 c 0xd8
EndSplineSet
Validated: 33
EndChar

StartChar: afii10075
Encoding: 1081 1081 120
Width: 453
Flags: W
HStem: 0 21G<71 153.5 297 383.5> 417 20G<78.5 162.5 296.5 380.5>
VStem: 60 102<0 196> 70 94<242.415 437> 286 108<0 253 298 437> 293 54<582.12 685.154>
DStem2: 164 242 162 196 0.904649 0.426157<0 112.341>
AnchorPoint: "Yerok" 249 772 basechar 0
AnchorPoint: "Diacritic" 247 772 basechar 0
LayerCount: 2
Fore
SplineSet
175 414 m 0xd0
 171 364 167 302 164 242 c 1xd0
 283 298 l 1
 284 344 286 388 288 424 c 0
 288 430 293 437 300 437 c 2
 376 437 l 2
 385 437 394 426 393 414 c 0
 385 302 385 131 394 50 c 0
 395 38 401 25 394 13 c 0
 390 7 387 0 380 0 c 2
 301 0 l 2
 293 0 286 9 286 16 c 0
 283 74 282 165 283 253 c 1
 162 196 l 1
 160 138 159 85 162 49 c 0
 163 37 165 26 162 12 c 0
 160 5 157 0 150 0 c 2
 75 0 l 2
 67 0 60 9 60 16 c 0xe8
 55 116 63 309 70 423 c 0
 70 429 75 437 82 437 c 2
 158 437 l 2
 167 437 176 426 175 414 c 0xd0
293 664 m 0xc4
 288 712 343 707 347 666 c 0
 357 558 317 475 218 476 c 0
 115 477 111 610 159 684 c 0
 176 711 222 702 203 661 c 0
 183 618 194 564 229 561 c 0
 279 557 297 626 293 664 c 0xc4
EndSplineSet
Validated: 33
LCarets2: 1 0
Ligature2: "'ccmp' Precomposed Glyphs for Cyrillic-1" afii10074 uni0306
EndChar

StartChar: afii10076
Encoding: 1082 1082 121
Width: 442
Flags: W
HStem: 0 21G<73 158.5 303 390> 352 89<321.934 405.111>
VStem: 289 108<0 47.1429>
DStem2: 225 256 271 266 0.347314 0.937749<-19.1685 130.7>
AnchorPoint: "Yerok" 358 502 basechar 0
AnchorPoint: "Diacritic" 237 502 basechar 0
LayerCount: 2
Fore
SplineSet
181 414 m 0
 173 302 160 131 169 50 c 0
 170 38 176 25 169 13 c 0
 165 7 162 0 155 0 c 2
 77 0 l 2
 69 0 62 9 62 16 c 0
 57 116 64 310 70 424 c 0
 70 430 75 437 82 437 c 2
 164 437 l 2
 173 437 182 426 181 414 c 0
225 256 m 2
 275 391 l 2
 280 403 311 438 365 441 c 0
 384 442 403 438 407 420 c 0
 409 410 410 389 407 379 c 0
 402 362 390 352 373 352 c 0
 356 352 341 360 321 360 c 0
 311 360 303 351 300 342 c 2
 271 266 l 2
 266 252 266 215 278 215 c 2
 332 215 l 2
 342 215 346 204 348 198 c 2
 397 22 l 2
 400 12 395 0 385 0 c 2
 309 0 l 2
 297 0 292 11 289 23 c 2
 259 164 l 2
 256 178 246 185 237 194 c 0
 220 211 215 229 225 256 c 2
EndSplineSet
Validated: 33
EndChar

StartChar: afii10077
Encoding: 1083 1083 122
Width: 418
Flags: W
HStem: 0 21G<39.5 137.5 281 376.5> 417 20G<204 291>
VStem: 26 115<22.5581 78.8594>
AnchorPoint: "Yerok" 318 502 basechar 0
AnchorPoint: "Diacritic" 247 502 basechar 0
LayerCount: 2
Fore
SplineSet
286 437 m 2
 296 437 305 429 306 420 c 0
 320 308 344 154 380 29 c 0
 383 19 382 0 371 0 c 2
 288 0 l 2
 274 0 268 17 266 30 c 0
 255 118 241 193 227 263 c 1
 222 251 217 239 210 226 c 0
 186 182 168 162 148 120 c 0
 137 96 140 65 141 51 c 0
 142 40 149 34 149 22 c 0
 149 11 143 0 132 0 c 2
 45 0 l 2
 34 0 26 11 26 21 c 0
 27 51 58 100 90 141 c 0
 123 184 148 209 179 253 c 0
 196 277 206 305 212 330 c 1
 203 366 l 2
 201 376 190 387 190 402 c 0
 190 417 194 437 214 437 c 2
 286 437 l 2
EndSplineSet
Validated: 33
EndChar

StartChar: afii10078
Encoding: 1084 1084 123
Width: 685
Flags: W
HStem: 0 21G<44.5 154.5 296 393.5 544 642.5> 417 20G<212 303 466 543>
VStem: 198 120<364.749 436.871> 456 102<386.282 437>
DStem2: 366 150 384 78 0.363208 0.931708<0 177.893>
AnchorPoint: "Yerok" 538 502 basechar 0
AnchorPoint: "Diacritic" 387 502 basechar 0
LayerCount: 2
Fore
SplineSet
397 29 m 0
 400 19 399 0 388 0 c 2
 303 0 l 2
 289 0 283 17 281 30 c 0
 266 154 252 211 229 293 c 1
 225 279 219 265 211 247 c 0
 188 196 171 166 157 117 c 0
 149 91 150 64 156 44 c 0
 159 33 168 32 168 21 c 0
 168 10 160 0 149 0 c 2
 50 0 l 2
 39 0 35 15 35 26 c 0
 35 69 47 97 73 130 c 0
 116 184 141 205 174 266 c 0
 193 301 201 332 207 364 c 1
 202 380 198 395 198 402 c 0
 198 417 202 437 222 437 c 2
 298 437 l 2
 308 437 317 429 318 420 c 0
 327 342 344 244 366 150 c 1
 458 386 l 2
 457 392 456 399 456 405 c 0
 455 415 456 437 476 437 c 2
 538 437 l 2
 548 437 557 429 558 420 c 0
 569 309 601 150 646 29 c 0
 649 20 648 0 637 0 c 2
 551 0 l 2
 537 0 534 12 530 26 c 0
 508 108 486 209 471 300 c 1
 384 78 l 1
 388 61 392 45 397 29 c 0
EndSplineSet
Validated: 33
EndChar

StartChar: afii10079
Encoding: 1085 1085 124
Width: 458
Flags: W
HStem: 0 21G<77 158.5 303 382.5> 417 20G<79.5 162.5 302.5 382.5>
VStem: 71 95<221.423 239 284 437> 287 106<0 183 228 437> 294 99<231.328 437>
DStem2: 168 284 166 239 0.90752 -0.420009<17.0854 131.515>
AnchorPoint: "Yerok" 338 502 basechar 0
AnchorPoint: "Diacritic" 237 502 basechar 0
LayerCount: 2
Fore
SplineSet
175 414 m 0xf0
 172 375 169 330 168 284 c 1
 287 228 l 1xf0
 288 299 290 370 294 424 c 0xe8
 294 430 299 437 306 437 c 2
 378 437 l 2
 387 437 396 426 395 414 c 0
 388 302 387 131 393 50 c 0
 394 38 400 25 393 13 c 0
 389 7 386 0 379 0 c 2
 307 0 l 2
 299 0 293 9 292 16 c 0
 288 59 287 119 287 183 c 1
 166 239 l 1
 164 166 165 95 169 50 c 0
 170 38 173 26 169 13 c 0
 167 6 162 0 155 0 c 2
 81 0 l 2
 73 0 66 9 66 16 c 0
 61 116 64 309 71 424 c 0
 71 430 76 437 83 437 c 2
 158 437 l 2
 167 437 176 426 175 414 c 0xf0
EndSplineSet
Validated: 33
EndChar

StartChar: afii10080
Encoding: 1086 1086 125
Width: 442
Flags: W
HStem: 422 20G<167 230>
AnchorPoint: "Yerok" 358 502 basechar 0
AnchorPoint: "Diacritic" 227 512 basechar 0
LayerCount: 2
Fore
SplineSet
248 -7 m 1
 174 6 117 31 69 93 c 0
 17 161 12 240 60 319 c 0
 94 376 140 412 194 442 c 1
 266 434 319 408 369 352 c 0
 418 298 430 190 384 121 c 0
 343 60 296 16 248 -7 c 1
119 324 m 0
 74 276 108 204 154 156 c 0
 200 108 275 67 319 113 c 0
 364 160 336 237 289 286 c 0
 242 335 165 373 119 324 c 0
EndSplineSet
Validated: 33
EndChar

StartChar: afii10081
Encoding: 1087 1087 126
Width: 461
Flags: W
HStem: 0 21G<76 157.5 311 390.5> 397 40<172 298>
VStem: 65 103<0 284.702> 73 99<228.568 397> 300 101<0 397>
AnchorPoint: "Yerok" 348 502 basechar 0
AnchorPoint: "Diacritic" 237 502 basechar 0
LayerCount: 2
Fore
SplineSet
384 437 m 2xd8
 393 437 402 426 401 414 c 0
 394 302 395 131 401 50 c 0
 402 38 408 25 401 13 c 0
 397 7 394 0 387 0 c 2
 315 0 l 2
 307 0 301 9 300 16 c 0
 293 109 292 281 298 397 c 1
 172 397 l 1xd8
 165 285 161 128 168 50 c 0
 169 38 172 27 168 13 c 0
 166 6 161 0 154 0 c 2
 80 0 l 2
 72 0 65 9 65 16 c 0xe8
 60 116 66 309 73 424 c 0
 73 430 78 437 85 437 c 6
 384 437 l 2xd8
EndSplineSet
Validated: 33
EndChar

StartChar: afii10082
Encoding: 1088 1088 127
Width: 352
Flags: W
HStem: -4 78<126 191.094>
VStem: 39 64<76.2191 292.807> 63 88<-365 -26.9771>
AnchorPoint: "Yerok" 268 502 basechar 0
AnchorPoint: "Diacritic" 187 502 basechar 0
LayerCount: 2
Fore
SplineSet
126 -4 m 1xc0
 136 -61 147 -127 151 -226 c 0
 155 -310 137 -383 84 -426 c 0
 70 -437 44 -426 47 -407 c 0
 57 -350 63 -299 63 -230 c 0xa0
 63 -67 39 25 39 188 c 0
 39 348 119 459 261 437 c 0
 272 435 285 426 288 414 c 0
 296 377 307 284 311 217 c 0
 315 157 297 62 260 33 c 0
 234 12 188 -4 126 -4 c 1xc0
112 74 m 1
 242 90 250 151 250 236 c 0
 250 277 243 323 237 344 c 1
 151 347 103 311 103 184 c 0xc0
 103 143 107 108 112 74 c 1
EndSplineSet
Validated: 33
EndChar

StartChar: afii10083
Encoding: 1089 1089 128
Width: 281
Flags: W
HStem: -2 21G<71.5 133.5> 344 97<180.227 235.927>
VStem: 44 93<117 252.922 253 303.325>
AnchorPoint: "Yerok" 198 502 basechar 0
AnchorPoint: "Diacritic" 137 502 basechar 0
LayerCount: 2
Fore
SplineSet
219 441 m 0
 230 442 234 440 235 430 c 0
 237 413 238 374 235 356 c 0
 234 350 234 346 226 344 c 0
 170 329 136 294 137 253 c 2
 137 253 137 146 140 117 c 1
 162 122 201 139 221 145 c 0
 234 149 236 133 236 106 c 0
 236 72 189 -2 78 -2 c 0
 65 -2 47 11 47 23 c 0
 49 123 44 164 44 269 c 0
 45 380 110 432 219 441 c 0
EndSplineSet
Validated: 33
EndChar

StartChar: afii10084
Encoding: 1090 1090 129
Width: 632
Flags: W
HStem: 0 21G<292 389> 397 40<148 282 397 501.615>
VStem: 52 96<197.052 396.802> 282 115<0 397>
AnchorPoint: "Yerok" 538 502 basechar 0
AnchorPoint: "Diacritic" 344 502 basechar 0
LayerCount: 2
Fore
SplineSet
42 407 m 0
 37 419 37 437 51 437 c 2
 595 437 l 2
 609 437 608 419 603 407 c 0
 590 377 582 349 573 323 c 0
 570 314 564 302 551 302 c 0
 541 302 534 314 529 325 c 0
 514 356 502 380 489 397 c 1
 407 397 l 2
 401 397 397 390 397 384 c 2
 397 16 l 2
 397 8 393 0 385 0 c 2
 296 0 l 2
 288 0 282 8 282 16 c 2
 282 384 l 2
 282 390 278 397 272 397 c 2
 157 397 l 2
 152 397 148 392 148 387 c 2
 148 210 l 2
 148 206 146 198 142 197 c 0
 103 185 82 170 63 160 c 0
 58 157 52 165 52 171 c 2
 52 368 l 2
 52 384 49 389 42 407 c 0
EndSplineSet
Validated: 33
EndChar

StartChar: uniA64B
Encoding: 42571 42571 130
Width: 381
Flags: W
HStem: 0 60<134.566 227.676>
VStem: 16 102<408.883 545.246> 51 66<77.8229 182.657> 248 91<80.6732 183.75>
DStem2: 132 262 142 186 0.655828 0.75491<-108.737 0 98.563 276.155>
AnchorPoint: "Yerok" 136 712 basechar 0
AnchorPoint: "Diacritic" 137 712 basechar 0
LayerCount: 2
Fore
SplineSet
242 297 m 1xd0
 261 282 279 265 293 250 c 0
 324 218 340 184 339 132 c 0
 338 52 267 0 187 0 c 0
 115 0 51 48 51 124 c 0xb0
 51 158 62 190 81 209 c 0
 98 226 115 244 132 262 c 1
 60 324 16 398 16 506 c 0
 16 520 46 565 89 588 c 0
 106 597 128 589 130 575 c 0
 131 566 118 527 118 518 c 0
 118 438 143 381 197 333 c 1
 211 349 224 365 237 380 c 0
 296 449 327 542 339 712 c 1
 307 690 293 667 263 645 c 0
 252 637 219 658 227 671 c 0
 262 723 302 760 338 796 c 0
 346 804 377 803 385 798 c 0
 391 794 395 774 395 752 c 0
 395 559 354 439 281 346 c 0
 268 330 255 314 242 297 c 1xd0
179 225 m 1
 167 212 154 198 142 186 c 0
 128 172 117 151 117 130 c 0
 117 92 140 60 191 60 c 0
 217 60 248 96 248 132 c 0
 248 157 239 172 225 186 c 0
 213 199 198 211 179 225 c 1
EndSplineSet
Validated: 33
EndChar

StartChar: afii10086
Encoding: 1092 1092 131
Width: 611
Flags: W
HStem: -3 56<129.5 266.153> 658 38<384.68 412.546>
VStem: 28 101<96.5477 229.161> 264 95<115.348 367> 267 78<-229.394 12 59.6419 296.706> 273 56<-329.998 -103.048> 488 95<106.019 229.943>
AnchorPoint: "Yerok" 498 502 basechar 0
AnchorPoint: "Diacritic" 327 772 basechar 0
LayerCount: 2
Fore
SplineSet
375 622 m 0xea
 370 567 367 512 364 457 c 1
 381 416 397 395 435 361 c 0
 511 291 583 247 583 146 c 0
 583 66 525 -3 435 -3 c 0
 402 -3 370 4 345 14 c 1xea
 341 -93 336 -204 329 -322 c 0
 327 -360 274 -363 273 -323 c 0xe6
 270 -203 268 -92 267 12 c 1
 241 1 208 -3 170 -3 c 0
 89 -3 28 70 28 152 c 0
 28 250 108 287 181 354 c 0
 217 387 242 408 262 444 c 1
 261 494 259 543 257 592 c 0
 256 605 248 617 235 620 c 0
 218 624 214 662 231 664 c 0
 287 669 337 675 399 696 c 0
 413 701 426 667 413 658 c 0
 398 648 377 641 375 622 c 0xea
267 56 m 1
 266 165 266 268 264 367 c 1xf2
 253 354 240 341 223 327 c 0
 162 276 129 238 129 164 c 0
 129 105 173 53 233 53 c 0
 246 53 257 54 267 56 c 1
359 375 m 1
 354 272 351 168 347 60 c 1
 356 59 366 59 378 61 c 0
 445 70 489 108 488 171 c 0
 487 242 459 278 404 327 c 0
 385 344 371 358 359 375 c 1
EndSplineSet
Validated: 33
EndChar

StartChar: afii10087
Encoding: 1093 1093 132
Width: 480
Flags: W
HStem: 315 127<350.074 413.768>
DStem2: 38 -387 75 -407 0.299897 0.953972<-34.1579 414.254 637.949 777.26> 228 222 50 417 0.338072 -0.94112<-236.243 0 70.2277 135.558 203.565 550.246>
AnchorPoint: "Yerok" 378 502 basechar 0
AnchorPoint: "Diacritic" 227 502 basechar 0
LayerCount: 2
Fore
SplineSet
158 419 m 2
 228 222 l 1
 256 309 l 2
 276 374 317 437 396 442 c 0
 420 444 447 433 446 413 c 0
 446 405 426 389 419 370 c 0
 412 351 417 327 414 322 c 0
 409 313 407 315 392 315 c 0
 377 315 362 339 337 339 c 0
 316 339 302 316 296 296 c 2
 252 156 l 1
 417 -302 l 2
 421 -312 410 -323 399 -323 c 2
 331 -323 l 2
 320 -323 313 -313 309 -303 c 2
 201 -4 l 1
 75 -407 l 2
 62 -448 24 -431 38 -387 c 2
 178 60 l 1
 50 417 l 2
 47 426 57 437 67 437 c 2
 134 437 l 2
 144 437 155 428 158 419 c 2
EndSplineSet
Validated: 33
EndChar

StartChar: afii10088
Encoding: 1094 1094 133
Width: 499
Flags: W
HStem: 0 40<166 286> 417 20G<83.5 165.5 301.5 383.5>
VStem: 65 101<40 277.468> 75 103<158.664 437> 286 108<40.1413 408.707> 293 101<258.278 437> 378 39<-371.031 -213.524>
AnchorPoint: "Yerok" 358 502 basechar 0
AnchorPoint: "Diacritic" 237 502 basechar 0
LayerCount: 2
Fore
SplineSet
356 0 m 2xc2
 80 0 l 2
 72 0 65 9 65 16 c 0xe2
 60 116 68 309 75 423 c 0
 75 429 80 437 87 437 c 2
 161 437 l 2
 170 437 179 426 178 414 c 0xd0
 170 302 159 131 165 49 c 0
 165 46 166 43 166 40 c 2
 286 40 l 1xe8
 283 145 287 319 293 424 c 0xc4
 293 430 298 437 305 437 c 2
 379 437 l 2
 388 437 397 426 396 414 c 0
 388 302 385 131 394 50 c 0xc8
 394 47 395 43 396 40 c 2
 458 40 l 2
 484 40 480 9 478 1 c 0
 449 -134 429 -232 417 -356 c 0
 415 -381 378 -388 378 -355 c 2
 378 -43 l 2
 378 -24 369 0 356 0 c 2xc2
EndSplineSet
Validated: 33
EndChar

StartChar: afii10089
Encoding: 1095 1095 134
Width: 401
Flags: W
HStem: 0 21G<247 332.5> 254 49<179.327 234> 417 20G<42.5 135 248.5 330.5>
VStem: 35 106<345.224 437> 236 107<0 254 303 437>
AnchorPoint: "Yerok" 318 502 basechar 0
AnchorPoint: "Diacritic" 197 502 basechar 0
LayerCount: 2
Fore
SplineSet
141 426 m 0
 141 373 168 310 221 304 c 0
 226 303 231 303 235 303 c 0
 236 348 238 389 240 424 c 0
 240 430 245 437 252 437 c 2
 326 437 l 2
 335 437 344 426 343 414 c 0
 335 302 334 131 343 50 c 0
 344 38 350 25 343 13 c 0
 339 7 336 0 329 0 c 2
 251 0 l 2
 243 0 236 9 236 16 c 0
 233 74 233 166 234 254 c 1
 210 252 175 254 148 259 c 0
 82 270 29 334 35 424 c 0
 35 429 38 437 47 437 c 2
 131 437 l 2
 139 437 141 431 141 426 c 0
EndSplineSet
Validated: 33
EndChar

StartChar: afii10090
Encoding: 1096 1096 135
Width: 668
Flags: W
HStem: 0 40<172.191 283 386.191 501> 417 20G<80.5 162.5 294.5 376.5 516.5 598.5>
VStem: 66 107<258.278 437> 283 104<40.1413 136.386 251.935 437> 501 108<40.2633 136.386 251.935 418.937> 508 101<258.278 437>
AnchorPoint: "Yerok" 558 502 basechar 0
AnchorPoint: "Diacritic" 337 502 basechar 0
LayerCount: 2
Fore
SplineSet
81 0 m 2xf4
 73 0 67 9 66 16 c 0
 59 115 66 308 72 424 c 0
 72 430 77 437 84 437 c 2
 158 437 l 2
 167 437 176 426 175 414 c 0
 167 302 164 131 173 50 c 0
 173 47 174 43 175 40 c 2
 283 40 l 1
 279 143 280 317 286 424 c 0
 286 430 291 437 298 437 c 2
 372 437 l 2
 381 437 390 426 389 414 c 0
 381 302 378 131 387 50 c 0
 387 47 387 43 388 40 c 2
 501 40 l 1xf8
 496 144 502 317 508 424 c 0xf4
 508 430 513 437 520 437 c 2
 594 437 l 2
 603 437 612 426 611 414 c 0
 603 302 600 131 609 50 c 0xf8
 610 38 616 25 609 13 c 0
 605 7 602 0 595 0 c 2
 81 0 l 2xf4
EndSplineSet
Validated: 33
EndChar

StartChar: afii10091
Encoding: 1097 1097 136
Width: 668
Flags: W
HStem: 0 40<172.191 283 389 501> 417 20G<80.5 162.5 294.5 376.5 516.5 598.5>
VStem: 66 107<258.278 437> 286 103<-225.273 0 40 437> 501 108<40.2633 136.386 251.935 418.937> 508 101<258.278 437>
AnchorPoint: "Yerok" 548 502 basechar 0
AnchorPoint: "Diacritic" 337 502 basechar 0
LayerCount: 2
Fore
SplineSet
81 0 m 2xf4
 73 0 67 9 66 16 c 0
 59 115 66 308 72 424 c 0
 72 430 77 437 84 437 c 2
 158 437 l 2
 167 437 176 426 175 414 c 0
 167 302 164 131 173 50 c 0
 173 47 174 43 175 40 c 2
 283 40 l 1
 281 144 280 317 286 424 c 0
 286 430 291 437 298 437 c 2
 372 437 l 2
 381 437 390 426 389 414 c 0
 381 298 385 126 389 40 c 1
 501 40 l 1xf8
 496 144 502 317 508 424 c 0xf4
 508 430 513 437 520 437 c 2
 594 437 l 2
 603 437 612 426 611 414 c 0
 603 302 600 131 609 50 c 0xf8
 610 38 616 25 609 13 c 0
 605 7 602 0 595 0 c 2
 389 0 l 1
 391 -82 392 -207 370 -342 c 0
 363 -382 346 -401 317 -409 c 0
 298 -414 273 -395 287 -365 c 0
 294 -350 301 -341 306 -316 c 0
 313 -281 310 -248 307 -217 c 0
 299 -129 291 -58 287 0 c 1
 81 0 l 2xf4
EndSplineSet
Validated: 33
EndChar

StartChar: afii10092
Encoding: 1098 1098 137
Width: 446
Flags: W
HStem: 0 40<169 282> 397 40<157 282>
VStem: 55 102<243 396.766>
DStem2: 55 35 169 40 0.531207 0.847242<64.7938 201.852 254.852 427.286>
AnchorPoint: "Yerok" 338 502 basechar 0
AnchorPoint: "Diacritic" 227 502 basechar 0
LayerCount: 2
Fore
SplineSet
270 201 m 1
 314 201 l 2
 323 201 327 194 330 185 c 2
 386 21 l 2
 389 11 378 0 367 0 c 2
 58 0 l 2
 44 0 47 23 55 35 c 2
 282 397 l 1
 157 397 l 1
 157 259 l 2
 157 250 148 243 139 243 c 2
 73 243 l 2
 63 243 55 254 55 263 c 0
 56 314 61 349 61 382 c 0
 61 400 31 401 31 417 c 0
 31 428 38 437 50 437 c 2
 394 437 l 2
 403 437 411 426 406 418 c 2
 270 201 l 1
242 156 m 1
 169 40 l 1
 282 40 l 1
 242 156 l 1
EndSplineSet
Validated: 33
EndChar

StartChar: afii10093
Encoding: 1099 1099 138
Width: 574
Flags: W
HStem: 0 40<149 262> 417 20G<414.5 496.5>
VStem: 52 97<40 175.125> 68 120<269.881 418.575> 406 103<158.541 437> 415 107<0 284.913>
AnchorPoint: "Yerok" 438 502 basechar 0
AnchorPoint: "Diacritic" 297 502 basechar 0
LayerCount: 2
Fore
SplineSet
163 241 m 1xd0
 181 246 195 252 218 260 c 0
 235 266 252 275 262 260 c 0
 312 187 357 102 390 23 c 0
 395 11 387 0 373 0 c 2
 69 0 l 2
 58 0 52 4 52 15 c 2xe0
 68 381 l 2
 69 393 71 401 79 409 c 0
 101 430 109 436 151 442 c 0
 165 444 192 438 188 421 c 0
 178 376 170 310 163 241 c 1xd0
509 414 m 0xc8
 503 301 511 131 522 50 c 0
 524 38 529 25 522 13 c 0
 518 7 515 0 508 0 c 2
 430 0 l 2
 422 0 416 9 415 16 c 0xc4
 405 115 400 310 406 424 c 0
 406 430 411 437 418 437 c 2
 492 437 l 2
 501 437 510 426 509 414 c 0xc8
159 192 m 1
 154 137 151 83 149 40 c 1xe0
 262 40 l 2
 266 40 265 46 264 50 c 0
 255 87 213 158 159 192 c 1
EndSplineSet
Validated: 33
EndChar

StartChar: afii10094
Encoding: 1100 1100 139
Width: 402
Flags: W
HStem: 0 40<145 240> 417 20G<100 181.5>
DStem2: 82 417 156 174 0.0939643 0.995576<-369.412 -234.972>
AnchorPoint: "Yerok" 308 502 basechar 0
AnchorPoint: "Diacritic" 207 502 basechar 0
LayerCount: 2
Fore
SplineSet
161 218 m 1
 174 221 187 224 204 230 c 0
 221 236 243 245 253 230 c 0
 303 157 332 100 365 21 c 0
 370 9 362 0 348 0 c 2
 76 0 l 2
 65 0 50 1 50 13 c 0
 54 146 71 324 82 417 c 0
 83 429 94 437 106 437 c 2
 177 437 l 2
 186 437 195 435 191 418 c 0
 180 368 169 293 161 218 c 1
156 174 m 1
 151 125 147 78 145 40 c 1
 240 40 l 2
 244 40 243 46 242 50 c 0
 231 86 203 140 156 174 c 1
EndSplineSet
Validated: 33
EndChar

StartChar: uni0463
Encoding: 1123 1123 140
Width: 597
Flags: W
HStem: 0 40<338 423> 397 40<141 242 342 427.206>
VStem: 41 100<188 397> 244 94<40 158 196 397 437 692.723>
AnchorPoint: "Yerok" 458 502 basechar 0
AnchorPoint: "Diacritic" 327 882 basechar 0
LayerCount: 2
Fore
SplineSet
56 437 m 2
 242 437 l 1
 244 585 253 723 258 767 c 0
 259 779 271 784 282 787 c 0
 312 796 328 802 355 800 c 0
 364 799 373 798 369 781 c 0
 359 736 347 590 342 437 c 1
 527 437 l 2
 541 437 540 419 535 407 c 0
 522 377 511 329 502 303 c 0
 499 294 493 282 480 282 c 0
 470 282 463 294 458 305 c 0
 443 336 429 380 416 397 c 1
 341 397 l 1
 340 331 339 259 339 196 c 1
 359 202 375 208 400 215 c 0
 418 220 434 230 444 215 c 0
 484 155 520 87 548 21 c 0
 553 9 545 0 531 0 c 2
 270 0 l 2
 259 0 244 1 244 13 c 0
 241 84 241 240 242 397 c 1
 154 397 l 2
 148 397 141 393 141 387 c 2
 141 202 l 2
 141 196 138 188 132 188 c 2
 49 188 l 2
 44 188 41 194 41 199 c 2
 41 416 l 2
 41 426 46 437 56 437 c 2
425 50 m 0
 413 87 390 126 338 158 c 1
 338 40 l 1
 423 40 l 2
 427 40 426 46 425 50 c 0
EndSplineSet
Validated: 33
EndChar

StartChar: afii10096
Encoding: 1102 1102 141
Width: 506
Flags: W
HStem: 0 21G<70 155.5> 213 43<164 241> 417 20G<75.5 158.5>
VStem: 59 107<0 207.701> 67 96<257.119 437> 241 73<137.844 213 256 285.477> 396 64<132.835 281.981>
AnchorPoint: "Yerok" 398 502 basechar 0
AnchorPoint: "Diacritic" 247 502 basechar 0
LayerCount: 2
Fore
SplineSet
171 414 m 0xee
 167 368 165 312 164 256 c 1
 243 256 l 1
 252 336 297 406 343 438 c 0
 350 443 367 442 374 438 c 0
 432 405 460 314 460 220 c 0
 460 124 429 36 364 -4 c 0
 356 -9 337 -10 331 -4 c 0
 279 46 244 117 241 213 c 1
 163 213 l 1xee
 163 149 163 88 166 50 c 0
 167 38 173 25 166 13 c 0
 162 7 159 0 152 0 c 2
 74 0 l 2
 66 0 59 9 59 16 c 0xf6
 54 116 61 310 67 424 c 0
 67 430 72 437 79 437 c 2
 154 437 l 2
 163 437 172 426 171 414 c 0xee
353 304 m 1
 321 279 314 247 314 208 c 0
 314 172 322 140 356 117 c 1
 387 134 396 172 396 207 c 0
 396 246 385 281 353 304 c 1
EndSplineSet
Validated: 33
EndChar

StartChar: uniA657
Encoding: 42583 42583 142
Width: 580
Flags: W
HStem: 0 21G<74 154.5 439.5 516.5> 314 40<171 385> 417 20G<83.5 163.5 420 499.5>
VStem: 63 100<0 63.8964 171.623 277.468> 75 96<354 437> 216 292<58 419> 406 100<12.8372 119 168.437 268 354 437>
AnchorPoint: "Yerok" 408 502 basechar 0
AnchorPoint: "Diacritic" 287 502 basechar 0
LayerCount: 2
Fore
SplineSet
176 414 m 0xe8
 174 395 173 375 171 354 c 1
 407 354 l 1
 407 383 408 407 409 419 c 0
 409 427 416 437 424 437 c 2
 495 437 l 2
 504 437 508 428 508 419 c 0xec
 508 386 499 286 506 199 c 0xe2
 511 134 518 76 527 36 c 0
 529 27 530 21 526 13 c 0
 523 7 520 0 513 0 c 2
 444 0 l 2
 435 0 429 9 426 17 c 0
 421 30 416 73 412 119 c 1
 379 71 349 33 313 14 c 0
 295 4 261 -8 235 7 c 0
 224 14 216 44 216 58 c 0
 216 127 240 150 277 192 c 0
 306 225 328 245 358 281 c 0
 368 293 377 304 385 314 c 1
 169 314 l 1
 163 216 158 109 163 49 c 0
 164 37 166 26 163 12 c 0
 161 5 158 0 151 0 c 2
 78 0 l 2
 70 0 63 9 63 16 c 0xf4
 58 116 68 309 75 423 c 0
 75 429 80 437 87 437 c 2
 159 437 l 2
 168 437 177 426 176 414 c 0xe8
359 133 m 0
 381 159 395 185 406 212 c 1
 405 229 406 249 406 268 c 1xe2
 378 235 353 206 324 166 c 0
 306 141 286 99 297 90 c 0
 311 78 340 110 359 133 c 0
EndSplineSet
Validated: 33
EndChar

StartChar: afii10053
Encoding: 1028 1028 143
Width: 540
Flags: W
HStem: -2 47<206 290.844> 384 53<247.406 347.276> 491 40<346 380 489 513> 645 39<223.858 340.834>
VStem: 40 112<334.127 519.545> 150 56<45 112.085> 374 114<264 355.241 531 602.047>
AnchorPoint: "Yerok" 420 754 basechar 0
AnchorPoint: "Diacritic" 290 754 basechar 0
LayerCount: 2
Fore
SplineSet
97 184 m 0xf6
 61 260 40 309 40 397 c 0
 40 551 134 684 284 684 c 0
 424 684 489 604 489 531 c 1
 513 531 l 1
 513 491 l 1
 346 491 l 1
 346 531 l 1
 380 531 l 1
 380 574 363 645 283 645 c 0
 183 645 152 530 152 430 c 0xfa
 152 393 159 362 168 333 c 1
 201 397 257 437 330 437 c 0
 445 437 493 363 493 264 c 1
 378 264 l 1
 379 326 356 384 297 384 c 0
 251 384 209 327 185 271 c 1
 205 187 207 101 206 45 c 1
 298 45 366 116 374 175 c 1
 488 175 l 1
 472 67 364 -2 150 -2 c 1
 151 70 125 124 97 184 c 0xf6
EndSplineSet
Validated: 33
EndChar

StartChar: periodcentered
Encoding: 183 183 144
Width: 159
Flags: W
LayerCount: 2
Fore
SplineSet
37 215 m 0
 37 240 57 260 81 260 c 0
 105 260 125 240 125 215 c 0
 125 190 105 170 81 170 c 0
 57 170 37 190 37 215 c 0
EndSplineSet
Validated: 1
EndChar

StartChar: quotedbl
Encoding: 34 34 145
Width: 422
Flags: W
LayerCount: 2
Fore
SplineSet
-1 691 m 0
 -2 737 54 801 99 801 c 0
 153 801 181 742 181 688 c 0
 181 628 141 562 93 529 c 0
 85 524 77 519 70 524 c 0
 62 530 67 545 72 551 c 0
 95 584 112 615 113 651 c 0
 114 688 103 721 72 721 c 0
 53 721 36 704 28 686 c 0
 25 680 16 672 9 674 c 0
 2 675 -1 685 -1 691 c 0
229 691 m 0
 228 737 284 801 329 801 c 0
 383 801 411 742 411 688 c 0
 411 628 371 562 323 529 c 0
 315 524 307 519 300 524 c 0
 292 530 297 545 302 551 c 0
 325 584 342 615 343 651 c 0
 344 688 333 721 302 721 c 0
 283 721 266 704 258 686 c 0
 255 680 246 672 239 674 c 0
 232 675 229 685 229 691 c 0
EndSplineSet
Validated: 33
EndChar

StartChar: exclam
Encoding: 33 33 146
Width: 187
Flags: W
LayerCount: 2
Fore
SplineSet
116 225 m 0
 115 218 110 214 103 214 c 0
 97 214 92 221 91 226 c 0
 76 356 46 551 24 680 c 0
 22 689 31 700 40 700 c 2
 136 698 l 2
 145 698 152 691 152 682 c 0
 149 545 135 364 116 225 c 0
93 140 m 0
 132 140 165 107 165 68 c 0
 165 29 132 -3 93 -3 c 0
 54 -3 21 29 21 68 c 0
 21 107 54 140 93 140 c 0
EndSplineSet
Validated: 1
EndChar

StartChar: uni2DEA0487
Encoding: 62698 62698 147
Width: 1
GlyphClass: 4
Flags: W
HStem: 660 57<137.742 219.228> 675 21G<-411.5 -337> 828 58<-256.475 -98.7281>
VStem: -418 88<675 773.575>
AnchorPoint: "Diacritic" -147 520 mark 0
LayerCount: 2
Fore
SplineSet
-418 686 m 0x70
 -418 700 -416 724 -413 743 c 0
 -412 747 -412 750 -410 754 c 0
 -399 776 -366 813 -348 827 c 0
 -344 830 -343 832 -338 834 c 0
 -298 850 -268 862 -208 879 c 0
 -193 883 -173 886 -150 886 c 0
 -68 886 -24 850 38 802 c 0
 85 766 141 726 206 717 c 0
 235 713 226 682 210 672 c 0
 192 661 177 660 153 660 c 0xb0
 100 660 33 709 -27 759 c 0
 -82 805 -128 827 -201 828 c 0
 -215 828 -228 823 -243 819 c 0
 -268 813 -298 796 -320 774 c 0
 -329 765 -329 752 -330 737 c 0
 -331 719 -330 702 -330 687 c 0
 -330 682 -334 675 -340 675 c 2
 -409 675 l 2
 -414 675 -418 681 -418 686 c 0x70
-146 519 m 1
 -183 525 -210 540 -234 571 c 0
 -261 605 -263 644 -239 684 c 0
 -222 712 -198 733 -171 748 c 1
 -135 744 -109 728 -84 700 c 0
 -60 673 -54 619 -77 585 c 0
 -97 554 -122 530 -146 519 c 1
-195 674 m 0
 -212 655 -204 623 -186 602 c 0
 -167 580 -137 575 -119 593 c 0
 -100 612 -108 647 -122 663 c 0
 -140 684 -179 692 -195 674 c 0
EndSplineSet
Validated: 33
LCarets2: 1 0
Ligature2: "'ccmp' Precomposed Glyphs for Cyrillic-1" uni2DEA uni0487
EndChar

StartChar: uniE904
Encoding: 59652 59652 148
Width: 597
GlyphClass: 3
Flags: W
HStem: 0 40<338 423> 397 40<141 242 342 427.206> 884 60<248.918 371.449>
VStem: 41 100<188 397> 147 60<756 838.169> 244 94<40 158 196 397 437 692.723> 415 60<756 836.021>
AnchorPoint: "Yerok" 311 1010 basechar 0
AnchorPoint: "Diacritic" 313 1010 basechar 0
LayerCount: 2
Fore
SplineSet
56 437 m 2
 242 437 l 1
 244 585 253 723 258 767 c 0
 259 779 271 784 282 787 c 0
 312 796 328 802 355 800 c 0
 364 799 373 798 369 781 c 0
 359 736 347 590 342 437 c 1
 527 437 l 2
 541 437 540 419 535 407 c 0
 522 377 511 329 502 303 c 0
 499 294 493 282 480 282 c 0
 470 282 463 294 458 305 c 0
 443 336 429 380 416 397 c 1
 341 397 l 1
 340 331 339 259 339 196 c 1
 359 202 375 208 400 215 c 0
 418 220 434 230 444 215 c 0
 484 155 520 87 548 21 c 0
 553 9 545 0 531 0 c 2
 270 0 l 2
 259 0 244 1 244 13 c 0
 241 84 241 240 242 397 c 1
 154 397 l 2
 148 397 141 393 141 387 c 2
 141 202 l 2
 141 196 138 188 132 188 c 2
 49 188 l 2
 44 188 41 194 41 199 c 2
 41 416 l 2
 41 426 46 437 56 437 c 2
475 756 m 1
 415 756 l 1
 414 830 377 884 311 884 c 0
 248 884 206 833 207 756 c 1
 147 756 l 1
 146 871 218 944 311 944 c 0
 409 944 474 866 475 756 c 1
425 50 m 0
 413 87 390 126 338 158 c 1
 338 40 l 1
 423 40 l 2
 427 40 426 46 425 50 c 0
EndSplineSet
Validated: 33
LCarets2: 1 0
Ligature2: "'ccmp' Precomposed Glyphs for Cyrillic-1" uni0463 uni0311
EndChar

StartChar: uni04860301.upper
Encoding: 57346 57346 149
Width: 1
GlyphClass: 4
Flags: W
HStem: 941 90<-360.441 -273.175>
VStem: -422 36<760.288 807.537> -257 80<825.842 926.451>
DStem2: -185 761 -112 759 0.365976 0.930624<8.91674 302.922>
AnchorPoint: "Diacritic" -225 750 mark 0
LayerCount: 2
Fore
SplineSet
-177 908 m 0
 -177 843 -208 799 -261 762 c 0
 -271 755 -283 752 -291 761 c 0
 -299 769 -293 779 -286 787 c 0
 -270 805 -257 835 -257 871 c 0
 -257 898 -277 941 -307 941 c 0
 -346 941 -379 913 -391 861 c 0
 -397 835 -395 809 -386 790 c 0
 -382 781 -383 766 -392 760 c 0
 -403 753 -416 766 -422 775 c 0
 -443 806 -449 829 -449 868 c 0
 -449 954 -393 1031 -303 1031 c 0
 -238 1031 -177 972 -177 908 c 0
-185 761 m 2
 -85 1028 l 2
 -83 1033 -80 1035 -75 1035 c 2
 -14 1035 l 2
 -10 1035 -6 1030 -7 1026 c 2
 -112 759 l 2
 -114 754 -117 752 -122 752 c 2
 -178 752 l 2
 -182 752 -187 757 -185 761 c 2
EndSplineSet
Validated: 33
EndChar

StartChar: uni0486.upper
Encoding: 57344 57344 150
Width: 1
GlyphClass: 4
Flags: W
HStem: 955 90<-295.223 -197.758>
VStem: -375 56<812.539 930.806> -177 72<826.617 934.589>
AnchorPoint: "Diacritic" -245 773 mark 0
LayerCount: 2
Fore
SplineSet
-105 922 m 0
 -105 858 -124 818 -161 783 c 0
 -170 775 -180 774 -189 781 c 0
 -198 788 -191 801 -189 810 c 0
 -183 832 -177 848 -177 885 c 0
 -177 912 -201 955 -242 955 c 0
 -281 955 -317 928 -319 875 c 0
 -320 849 -319 840 -307 821 c 0
 -302 813 -304 797 -313 791 c 0
 -324 784 -342 797 -348 805 c 0
 -365 827 -375 858 -375 896 c 0
 -375 982 -321 1045 -231 1045 c 0
 -166 1045 -105 986 -105 922 c 0
EndSplineSet
Validated: 33
EndChar

StartChar: uni2DE5
Encoding: 11749 11749 151
Width: 1
Flags: W
HStem: 555 18<-451.35 -412.362> 614 64<-114.762 2.9556> 790 25<-287.282 -210.5>
VStem: -497 35<577.098 636.366>
AnchorPoint: "Diacritic" -245 490 mark 0
LayerCount: 2
Fore
SplineSet
-352 773 m 1
 -312 798 -266 815 -223 815 c 0
 -198 815 -151 805 -149 794 c 0
 -142 759 -133 724 -115 690 c 0
 -110 683 -100 678 -87 678 c 0
 -24 683 67 689 47 582 c 0
 37 529 8 495 -72 492 c 0
 -113 490 -141 491 -168 513 c 0
 -190 530 -180 563 -148 543 c 0
 -138 537 -126 515 -110 514 c 0
 -42 510 8 528 5 590 c 0
 4 623 -98 615 -157 614 c 0
 -165 614 -170 619 -173 623 c 0
 -200 666 -218 719 -226 783 c 0
 -228 787 -232 790 -235 790 c 0
 -268 790 -302 773 -334 752 c 1
 -330 730 -334 703 -354 688 c 0
 -372 672 -398 668 -415 677 c 1
 -446 640 -466 607 -462 593 c 0
 -462 587 -459 579 -452 577 c 0
 -438 572 -433 573 -421 573 c 0
 -411 573 -406 556 -424 555 c 0
 -441 553 -471 559 -487 567 c 0
 -497 571 -497 582 -497 591 c 0
 -493 618 -472 656 -438 695 c 1
 -451 718 -444 751 -422 768 c 0
 -400 785 -370 788 -352 773 c 1
EndSplineSet
Validated: 33
EndChar

StartChar: uni2DE10487
Encoding: 62689 62689 152
Width: 1
GlyphClass: 4
Flags: W
HStem: 491 34<-291.608 -268.609 -198 -102 -31.9041 12.5761> 663 54<146.887 235.023> 694 37<-297.104 -260 -194 -113 -51 -24.8071> 834 61<-258.484 -119.986>
VStem: -400 81<674 782.439> -262 67<525.988 694> -113 62<533.922 694>
AnchorPoint: "Diacritic" -145 490 mark 0
LayerCount: 2
Fore
SplineSet
6 491 m 2xbe
 -282 491 l 2
 -297 491 -300 525 -282 525 c 2
 -272 525 l 1
 -267 546 -264 572 -262 601 c 0
 -260 637 -260 673 -260 694 c 1
 -287 694 l 2
 -304 694 -305 731 -287 731 c 2
 -33 731 l 2
 -19 731 -19 694 -33 694 c 2
 -51 694 l 1
 -50 672 -50 632 -44 593 c 0
 -40 565 -34 543 -25 525 c 1
 6 525 l 2
 16 525 19 491 6 491 c 2xbe
-102 525 m 1
 -105 544 -107 563 -110 586 c 0
 -114 629 -113 673 -113 694 c 1
 -194 694 l 1
 -194 672 -194 635 -195 597 c 0
 -195 569 -196 545 -198 525 c 1
 -102 525 l 1
-400 685 m 0
 -400 701 -396 725 -395 752 c 0
 -395 756 -394 759 -392 763 c 0
 -382 788 -372 809 -356 827 c 0
 -353 831 -351 832 -346 834 c 0
 -307 853 -271 869 -229 885 c 0
 -226 886 -224 887 -220 888 c 0
 -204 891 -191 895 -168 895 c 0
 -86 895 -23 845 45 800 c 0
 99 764 153 725 221 717 c 0
 250 714 242 686 226 676 c 0
 208 665 194 663 170 663 c 0xde
 97 663 37 706 -26 754 c 0
 -83 797 -141 833 -214 834 c 0
 -228 834 -241 830 -256 822 c 0
 -280 809 -294 802 -309 783 c 0
 -318 771 -318 761 -319 746 c 0
 -320 722 -319 707 -319 686 c 0
 -319 681 -323 674 -329 674 c 2
 -391 674 l 2
 -396 674 -400 680 -400 685 c 0
EndSplineSet
Validated: 33
LCarets2: 1 0
Ligature2: "'ccmp' Precomposed Glyphs for Cyrillic-1" uni2DE1 uni0487
EndChar

StartChar: uni0483.long
Encoding: 1114113 -1 153
Width: 1
Flags: W
HStem: 745 116<-527 -430> 821 118<-169 -73> 821 40<-565 -527 -430 -169 -73 -34>
VStem: -527 97<745 821> -169 96<861 939>
AnchorPoint: "Diacritic" -275 732 mark 0
LayerCount: 2
Fore
SplineSet
-34 821 m 1x38
 -430 821 l 1x38
 -430 745 l 1
 -527 745 l 1x98
 -527 821 l 1
 -565 821 l 1
 -565 861 l 1
 -169 861 l 1x38
 -169 939 l 1
 -73 939 l 1x58
 -73 861 l 1
 -34 861 l 1
 -34 821 l 1x38
EndSplineSet
Validated: 1
EndChar

StartChar: uni04860300.upper
Encoding: 57348 57348 154
Width: 1
GlyphClass: 4
Flags: W
HStem: 815 91<-329.3 -236.383>
VStem: -389 39<732.472 790.609> -212 44<722.445 790.013>
DStem2: -396 1042 -413 989 0.955983 -0.293421<-8.39293 324.644>
AnchorPoint: "Diacritic" -285 711 mark 0
LayerCount: 2
Fore
SplineSet
-168 803 m 0
 -168 772 -181 731 -189 722 c 0
 -196 714 -212 713 -212 722 c 0
 -213 771 -238 815 -282 815 c 0
 -323 815 -350 778 -350 732 c 0
 -350 724 -364 727 -371 732 c 0
 -384 742 -389 756 -389 773 c 0
 -389 835 -359 906 -284 906 c 0
 -216 906 -168 849 -168 803 c 0
-396 1042 m 2
 -93 949 l 2
 -89 948 -86 943 -87 939 c 2
 -100 900 l 2
 -101 896 -106 895 -110 896 c 2
 -413 989 l 2
 -417 990 -420 995 -419 999 c 2
 -406 1038 l 2
 -405 1042 -400 1043 -396 1042 c 2
EndSplineSet
Validated: 1
EndChar

StartChar: parenleft
Encoding: 40 40 155
Width: 319
Flags: W
LayerCount: 2
Fore
SplineSet
363 -289 m 1
 176 -267 51 31 51 286 c 0
 48 536 171 842 363 877 c 1
 363 858 l 1
 185 813 164 518 166 286 c 0
 168 63 203 -223 363 -265 c 1
 363 -289 l 1
EndSplineSet
Validated: 33
EndChar

StartChar: quotesingle
Encoding: 39 39 156
Width: 254
Flags: W
LayerCount: 2
Fore
SplineSet
204 750 m 0
 204 742 203 739 198 732 c 2
 48 548 l 2
 44 543 40 541 33 541 c 2
 17 541 l 2
 8 541 -3 543 6 558 c 2
 105 724 l 2
 110 730 113 736 119 742 c 0
 140 762 151 767 177 767 c 0
 198 767 204 756 204 750 c 0
EndSplineSet
Validated: 1
EndChar

StartChar: hyphen
Encoding: 45 45 158
Width: 360
Flags: W
HStem: 165 70<27 333>
VStem: 27 306<165 235>
LayerCount: 2
Fore
SplineSet
333 165 m 1
 27 165 l 1
 27 235 l 1
 333 235 l 1
 333 165 l 1
EndSplineSet
Validated: 1
Substitution2: "Hyphen Replacement-1" underscore
EndChar

StartChar: comma
Encoding: 44 44 159
Width: 305
Flags: W
LayerCount: 2
Fore
SplineSet
29 40 m 0
 28 103 105 190 167 190 c 0
 241 190 279 109 279 36 c 0
 279 -47 224 -137 158 -183 c 0
 148 -190 137 -196 127 -189 c 0
 116 -181 123 -161 129 -153 c 0
 161 -107 185 -65 186 -15 c 0
 187 35 172 81 130 81 c 0
 103 81 80 57 69 32 c 0
 65 24 53 14 44 16 c 0
 34 18 29 31 29 40 c 0
EndSplineSet
Validated: 33
EndChar

StartChar: uni2027
Encoding: 8231 8231 160
Width: 159
Flags: W
LayerCount: 2
Fore
SplineSet
37 215 m 0
 37 240 57 260 81 260 c 0
 105 260 125 240 125 215 c 0
 125 190 105 170 81 170 c 0
 57 170 37 190 37 215 c 0
EndSplineSet
Validated: 1
EndChar

StartChar: parenright
Encoding: 41 41 161
Width: 319
Flags: W
LayerCount: 2
Fore
SplineSet
268 286 m 0
 266 42 144 -267 -44 -289 c 1
 -44 -265 l 1
 116 -223 151 63 153 286 c 0
 156 518 134 813 -44 858 c 1
 -44 877 l 1
 148 842 271 536 268 286 c 0
EndSplineSet
Validated: 33
EndChar

StartChar: asterisk
Encoding: 42 42 162
Width: 387
Flags: W
LayerCount: 2
Fore
SplineSet
376 539 m 1
 280 505 l 1
 326 412 l 1
 233 457 l 1
 198 361 l 1
 164 457 l 1
 73 412 l 1
 117 505 l 1
 21 539 l 1
 115 573 l 1
 71 665 l 1
 164 620 l 1
 198 716 l 1
 233 620 l 1
 326 665 l 1
 280 573 l 1
 376 539 l 1
290 539 m 1
 240 556 l 1
 264 604 l 1
 215 581 l 1
 198 630 l 1
 181 581 l 1
 133 603 l 1
 155 556 l 1
 107 539 l 1
 156 521 l 1
 133 473 l 1
 181 496 l 1
 198 447 l 1
 215 496 l 1
 264 473 l 1
 240 521 l 1
 290 539 l 1
EndSplineSet
Validated: 1
EndChar

StartChar: uni0001
Encoding: 1 1 163
Width: 427
Flags: W
HStem: 0 19<29 398> 748 22<29 398>
VStem: 0 22<34 733> 405 22<34 733>
DStem2: 29 748 22 733 0.465951 -0.884811<10.0105 395.419 421.078 806.952> 22 34 29 19 0.465951 0.884811<0 385.408 411.068 796.942>
LayerCount: 2
Fore
SplineSet
0 0 m 1
 0 770 l 1
 427 770 l 1
 427 0 l 1
 0 0 l 1
398 748 m 1
 29 748 l 1
 213 398 l 1
 398 748 l 1
405 733 m 1
 221 383 l 1
 405 34 l 1
 405 733 l 1
29 19 m 1
 398 19 l 1
 213 369 l 1
 29 19 l 1
206 383 m 1
 22 733 l 1
 22 34 l 1
 206 383 l 1
EndSplineSet
Validated: 1
EndChar

StartChar: uni0002
Encoding: 2 2 164
Width: 427
Flags: W
HStem: 0 19<29 398> 748 22<29 398>
VStem: 0 22<34 733> 405 22<34 733>
DStem2: 29 748 22 733 0.465951 -0.884811<10.0105 395.419 421.078 806.952> 22 34 29 19 0.465951 0.884811<0 385.408 411.068 796.942>
LayerCount: 2
Fore
SplineSet
0 0 m 1
 0 770 l 1
 427 770 l 1
 427 0 l 1
 0 0 l 1
398 748 m 1
 29 748 l 1
 213 398 l 1
 398 748 l 1
405 733 m 1
 221 383 l 1
 405 34 l 1
 405 733 l 1
29 19 m 1
 398 19 l 1
 213 369 l 1
 29 19 l 1
206 383 m 1
 22 733 l 1
 22 34 l 1
 206 383 l 1
EndSplineSet
Validated: 1
EndChar

StartChar: uni0003
Encoding: 3 3 165
Width: 427
Flags: W
HStem: 0 19<29 398> 748 22<29 398>
VStem: 0 22<34 733> 405 22<34 733>
DStem2: 29 748 22 733 0.465951 -0.884811<10.0105 395.419 421.078 806.952> 22 34 29 19 0.465951 0.884811<0 385.408 411.068 796.942>
LayerCount: 2
Fore
SplineSet
0 0 m 1
 0 770 l 1
 427 770 l 1
 427 0 l 1
 0 0 l 1
398 748 m 1
 29 748 l 1
 213 398 l 1
 398 748 l 1
405 733 m 1
 221 383 l 1
 405 34 l 1
 405 733 l 1
29 19 m 1
 398 19 l 1
 213 369 l 1
 29 19 l 1
206 383 m 1
 22 733 l 1
 22 34 l 1
 206 383 l 1
EndSplineSet
Validated: 1
EndChar

StartChar: uni0004
Encoding: 4 4 166
Width: 427
Flags: W
HStem: 0 19<29 398> 748 22<29 398>
VStem: 0 22<34 733> 405 22<34 733>
DStem2: 29 748 22 733 0.465951 -0.884811<10.0105 395.419 421.078 806.952> 22 34 29 19 0.465951 0.884811<0 385.408 411.068 796.942>
LayerCount: 2
Fore
SplineSet
0 0 m 1
 0 770 l 1
 427 770 l 1
 427 0 l 1
 0 0 l 1
398 748 m 1
 29 748 l 1
 213 398 l 1
 398 748 l 1
405 733 m 1
 221 383 l 1
 405 34 l 1
 405 733 l 1
29 19 m 1
 398 19 l 1
 213 369 l 1
 29 19 l 1
206 383 m 1
 22 733 l 1
 22 34 l 1
 206 383 l 1
EndSplineSet
Validated: 1
EndChar

StartChar: uni0005
Encoding: 5 5 167
Width: 427
Flags: W
HStem: 0 19<29 398> 748 22<29 398>
VStem: 0 22<34 733> 405 22<34 733>
DStem2: 29 748 22 733 0.465951 -0.884811<10.0105 395.419 421.078 806.952> 22 34 29 19 0.465951 0.884811<0 385.408 411.068 796.942>
LayerCount: 2
Fore
SplineSet
0 0 m 1
 0 770 l 1
 427 770 l 1
 427 0 l 1
 0 0 l 1
398 748 m 1
 29 748 l 1
 213 398 l 1
 398 748 l 1
405 733 m 1
 221 383 l 1
 405 34 l 1
 405 733 l 1
29 19 m 1
 398 19 l 1
 213 369 l 1
 29 19 l 1
206 383 m 1
 22 733 l 1
 22 34 l 1
 206 383 l 1
EndSplineSet
Validated: 1
EndChar

StartChar: uni0006
Encoding: 6 6 168
Width: 427
Flags: W
HStem: 0 19<29 398> 748 22<29 398>
VStem: 0 22<34 733> 405 22<34 733>
DStem2: 29 748 22 733 0.465951 -0.884811<10.0105 395.419 421.078 806.952> 22 34 29 19 0.465951 0.884811<0 385.408 411.068 796.942>
LayerCount: 2
Fore
SplineSet
0 0 m 1
 0 770 l 1
 427 770 l 1
 427 0 l 1
 0 0 l 1
398 748 m 1
 29 748 l 1
 213 398 l 1
 398 748 l 1
405 733 m 1
 221 383 l 1
 405 34 l 1
 405 733 l 1
29 19 m 1
 398 19 l 1
 213 369 l 1
 29 19 l 1
206 383 m 1
 22 733 l 1
 22 34 l 1
 206 383 l 1
EndSplineSet
Validated: 1
EndChar

StartChar: uni0007
Encoding: 7 7 169
Width: 427
Flags: W
HStem: 0 19<29 398> 748 22<29 398>
VStem: 0 22<34 733> 405 22<34 733>
DStem2: 29 748 22 733 0.465951 -0.884811<10.0105 395.419 421.078 806.952> 22 34 29 19 0.465951 0.884811<0 385.408 411.068 796.942>
LayerCount: 2
Fore
SplineSet
0 0 m 1
 0 770 l 1
 427 770 l 1
 427 0 l 1
 0 0 l 1
398 748 m 1
 29 748 l 1
 213 398 l 1
 398 748 l 1
405 733 m 1
 221 383 l 1
 405 34 l 1
 405 733 l 1
29 19 m 1
 398 19 l 1
 213 369 l 1
 29 19 l 1
206 383 m 1
 22 733 l 1
 22 34 l 1
 206 383 l 1
EndSplineSet
Validated: 1
EndChar

StartChar: uni000B
Encoding: 11 11 173
Width: 427
Flags: W
HStem: 0 19<29 398> 748 22<29 398>
VStem: 0 22<34 733> 405 22<34 733>
DStem2: 29 748 22 733 0.465951 -0.884811<10.0105 395.419 421.078 806.952> 22 34 29 19 0.465951 0.884811<0 385.408 411.068 796.942>
LayerCount: 2
Fore
SplineSet
0 0 m 1
 0 770 l 1
 427 770 l 1
 427 0 l 1
 0 0 l 1
398 748 m 1
 29 748 l 1
 213 398 l 1
 398 748 l 1
405 733 m 1
 221 383 l 1
 405 34 l 1
 405 733 l 1
29 19 m 1
 398 19 l 1
 213 369 l 1
 29 19 l 1
206 383 m 1
 22 733 l 1
 22 34 l 1
 206 383 l 1
EndSplineSet
Validated: 1
EndChar

StartChar: uni000C
Encoding: 12 12 174
Width: 427
Flags: W
HStem: 0 19<29 398> 748 22<29 398>
VStem: 0 22<34 733> 405 22<34 733>
DStem2: 29 748 22 733 0.465951 -0.884811<10.0105 395.419 421.078 806.952> 22 34 29 19 0.465951 0.884811<0 385.408 411.068 796.942>
LayerCount: 2
Fore
SplineSet
0 0 m 1
 0 770 l 1
 427 770 l 1
 427 0 l 1
 0 0 l 1
398 748 m 1
 29 748 l 1
 213 398 l 1
 398 748 l 1
405 733 m 1
 221 383 l 1
 405 34 l 1
 405 733 l 1
29 19 m 1
 398 19 l 1
 213 369 l 1
 29 19 l 1
206 383 m 1
 22 733 l 1
 22 34 l 1
 206 383 l 1
EndSplineSet
Validated: 1
EndChar

StartChar: uni000E
Encoding: 14 14 176
Width: 427
Flags: W
HStem: 0 19<29 398> 748 22<29 398>
VStem: 0 22<34 733> 405 22<34 733>
DStem2: 29 748 22 733 0.465951 -0.884811<10.0105 395.419 421.078 806.952> 22 34 29 19 0.465951 0.884811<0 385.408 411.068 796.942>
LayerCount: 2
Fore
SplineSet
0 0 m 1
 0 770 l 1
 427 770 l 1
 427 0 l 1
 0 0 l 1
398 748 m 1
 29 748 l 1
 213 398 l 1
 398 748 l 1
405 733 m 1
 221 383 l 1
 405 34 l 1
 405 733 l 1
29 19 m 1
 398 19 l 1
 213 369 l 1
 29 19 l 1
206 383 m 1
 22 733 l 1
 22 34 l 1
 206 383 l 1
EndSplineSet
Validated: 1
EndChar

StartChar: uni000F
Encoding: 15 15 177
Width: 427
Flags: W
HStem: 0 19<29 398> 748 22<29 398>
VStem: 0 22<34 733> 405 22<34 733>
DStem2: 29 748 22 733 0.465951 -0.884811<10.0105 395.419 421.078 806.952> 22 34 29 19 0.465951 0.884811<0 385.408 411.068 796.942>
LayerCount: 2
Fore
SplineSet
0 0 m 1
 0 770 l 1
 427 770 l 1
 427 0 l 1
 0 0 l 1
398 748 m 1
 29 748 l 1
 213 398 l 1
 398 748 l 1
405 733 m 1
 221 383 l 1
 405 34 l 1
 405 733 l 1
29 19 m 1
 398 19 l 1
 213 369 l 1
 29 19 l 1
206 383 m 1
 22 733 l 1
 22 34 l 1
 206 383 l 1
EndSplineSet
Validated: 1
EndChar

StartChar: uni0010
Encoding: 16 16 178
Width: 427
Flags: W
HStem: 0 19<29 398> 748 22<29 398>
VStem: 0 22<34 733> 405 22<34 733>
DStem2: 29 748 22 733 0.465951 -0.884811<10.0105 395.419 421.078 806.952> 22 34 29 19 0.465951 0.884811<0 385.408 411.068 796.942>
LayerCount: 2
Fore
SplineSet
0 0 m 1
 0 770 l 1
 427 770 l 1
 427 0 l 1
 0 0 l 1
398 748 m 1
 29 748 l 1
 213 398 l 1
 398 748 l 1
405 733 m 1
 221 383 l 1
 405 34 l 1
 405 733 l 1
29 19 m 1
 398 19 l 1
 213 369 l 1
 29 19 l 1
206 383 m 1
 22 733 l 1
 22 34 l 1
 206 383 l 1
EndSplineSet
Validated: 1
EndChar

StartChar: uni0011
Encoding: 17 17 179
Width: 427
Flags: W
HStem: 0 19<29 398> 748 22<29 398>
VStem: 0 22<34 733> 405 22<34 733>
DStem2: 29 748 22 733 0.465951 -0.884811<10.0105 395.419 421.078 806.952> 22 34 29 19 0.465951 0.884811<0 385.408 411.068 796.942>
LayerCount: 2
Fore
SplineSet
0 0 m 1
 0 770 l 1
 427 770 l 1
 427 0 l 1
 0 0 l 1
398 748 m 1
 29 748 l 1
 213 398 l 1
 398 748 l 1
405 733 m 1
 221 383 l 1
 405 34 l 1
 405 733 l 1
29 19 m 1
 398 19 l 1
 213 369 l 1
 29 19 l 1
206 383 m 1
 22 733 l 1
 22 34 l 1
 206 383 l 1
EndSplineSet
Validated: 1
EndChar

StartChar: uni0012
Encoding: 18 18 180
Width: 427
Flags: W
HStem: 0 19<29 398> 748 22<29 398>
VStem: 0 22<34 733> 405 22<34 733>
DStem2: 29 748 22 733 0.465951 -0.884811<10.0105 395.419 421.078 806.952> 22 34 29 19 0.465951 0.884811<0 385.408 411.068 796.942>
LayerCount: 2
Fore
SplineSet
0 0 m 1
 0 770 l 1
 427 770 l 1
 427 0 l 1
 0 0 l 1
398 748 m 1
 29 748 l 1
 213 398 l 1
 398 748 l 1
405 733 m 1
 221 383 l 1
 405 34 l 1
 405 733 l 1
29 19 m 1
 398 19 l 1
 213 369 l 1
 29 19 l 1
206 383 m 1
 22 733 l 1
 22 34 l 1
 206 383 l 1
EndSplineSet
Validated: 1
EndChar

StartChar: uni0013
Encoding: 19 19 181
Width: 427
Flags: W
HStem: 0 19<29 398> 748 22<29 398>
VStem: 0 22<34 733> 405 22<34 733>
DStem2: 29 748 22 733 0.465951 -0.884811<10.0105 395.419 421.078 806.952> 22 34 29 19 0.465951 0.884811<0 385.408 411.068 796.942>
LayerCount: 2
Fore
SplineSet
0 0 m 1
 0 770 l 1
 427 770 l 1
 427 0 l 1
 0 0 l 1
398 748 m 1
 29 748 l 1
 213 398 l 1
 398 748 l 1
405 733 m 1
 221 383 l 1
 405 34 l 1
 405 733 l 1
29 19 m 1
 398 19 l 1
 213 369 l 1
 29 19 l 1
206 383 m 1
 22 733 l 1
 22 34 l 1
 206 383 l 1
EndSplineSet
Validated: 1
EndChar

StartChar: uni0014
Encoding: 20 20 182
Width: 427
Flags: W
HStem: 0 19<29 398> 748 22<29 398>
VStem: 0 22<34 733> 405 22<34 733>
DStem2: 29 748 22 733 0.465951 -0.884811<10.0105 395.419 421.078 806.952> 22 34 29 19 0.465951 0.884811<0 385.408 411.068 796.942>
LayerCount: 2
Fore
SplineSet
0 0 m 1
 0 770 l 1
 427 770 l 1
 427 0 l 1
 0 0 l 1
398 748 m 1
 29 748 l 1
 213 398 l 1
 398 748 l 1
405 733 m 1
 221 383 l 1
 405 34 l 1
 405 733 l 1
29 19 m 1
 398 19 l 1
 213 369 l 1
 29 19 l 1
206 383 m 1
 22 733 l 1
 22 34 l 1
 206 383 l 1
EndSplineSet
Validated: 1
EndChar

StartChar: uni0015
Encoding: 21 21 183
Width: 427
Flags: W
HStem: 0 19<29 398> 748 22<29 398>
VStem: 0 22<34 733> 405 22<34 733>
DStem2: 29 748 22 733 0.465951 -0.884811<10.0105 395.419 421.078 806.952> 22 34 29 19 0.465951 0.884811<0 385.408 411.068 796.942>
LayerCount: 2
Fore
SplineSet
0 0 m 1
 0 770 l 1
 427 770 l 1
 427 0 l 1
 0 0 l 1
398 748 m 1
 29 748 l 1
 213 398 l 1
 398 748 l 1
405 733 m 1
 221 383 l 1
 405 34 l 1
 405 733 l 1
29 19 m 1
 398 19 l 1
 213 369 l 1
 29 19 l 1
206 383 m 1
 22 733 l 1
 22 34 l 1
 206 383 l 1
EndSplineSet
Validated: 1
EndChar

StartChar: uni0016
Encoding: 22 22 184
Width: 427
Flags: W
HStem: 0 19<29 398> 748 22<29 398>
VStem: 0 22<34 733> 405 22<34 733>
DStem2: 29 748 22 733 0.465951 -0.884811<10.0105 395.419 421.078 806.952> 22 34 29 19 0.465951 0.884811<0 385.408 411.068 796.942>
LayerCount: 2
Fore
SplineSet
0 0 m 1
 0 770 l 1
 427 770 l 1
 427 0 l 1
 0 0 l 1
398 748 m 1
 29 748 l 1
 213 398 l 1
 398 748 l 1
405 733 m 1
 221 383 l 1
 405 34 l 1
 405 733 l 1
29 19 m 1
 398 19 l 1
 213 369 l 1
 29 19 l 1
206 383 m 1
 22 733 l 1
 22 34 l 1
 206 383 l 1
EndSplineSet
Validated: 1
EndChar

StartChar: uni0017
Encoding: 23 23 185
Width: 427
Flags: W
HStem: 0 19<29 398> 748 22<29 398>
VStem: 0 22<34 733> 405 22<34 733>
DStem2: 29 748 22 733 0.465951 -0.884811<10.0105 395.419 421.078 806.952> 22 34 29 19 0.465951 0.884811<0 385.408 411.068 796.942>
LayerCount: 2
Fore
SplineSet
0 0 m 1
 0 770 l 1
 427 770 l 1
 427 0 l 1
 0 0 l 1
398 748 m 1
 29 748 l 1
 213 398 l 1
 398 748 l 1
405 733 m 1
 221 383 l 1
 405 34 l 1
 405 733 l 1
29 19 m 1
 398 19 l 1
 213 369 l 1
 29 19 l 1
206 383 m 1
 22 733 l 1
 22 34 l 1
 206 383 l 1
EndSplineSet
Validated: 1
EndChar

StartChar: uni0018
Encoding: 24 24 186
Width: 427
Flags: W
HStem: 0 19<29 398> 748 22<29 398>
VStem: 0 22<34 733> 405 22<34 733>
DStem2: 29 748 22 733 0.465951 -0.884811<10.0105 395.419 421.078 806.952> 22 34 29 19 0.465951 0.884811<0 385.408 411.068 796.942>
LayerCount: 2
Fore
SplineSet
0 0 m 1
 0 770 l 1
 427 770 l 1
 427 0 l 1
 0 0 l 1
398 748 m 1
 29 748 l 1
 213 398 l 1
 398 748 l 1
405 733 m 1
 221 383 l 1
 405 34 l 1
 405 733 l 1
29 19 m 1
 398 19 l 1
 213 369 l 1
 29 19 l 1
206 383 m 1
 22 733 l 1
 22 34 l 1
 206 383 l 1
EndSplineSet
Validated: 1
EndChar

StartChar: uni0019
Encoding: 25 25 187
Width: 427
Flags: W
HStem: 0 19<29 398> 748 22<29 398>
VStem: 0 22<34 733> 405 22<34 733>
DStem2: 29 748 22 733 0.465951 -0.884811<10.0105 395.419 421.078 806.952> 22 34 29 19 0.465951 0.884811<0 385.408 411.068 796.942>
LayerCount: 2
Fore
SplineSet
0 0 m 1
 0 770 l 1
 427 770 l 1
 427 0 l 1
 0 0 l 1
398 748 m 1
 29 748 l 1
 213 398 l 1
 398 748 l 1
405 733 m 1
 221 383 l 1
 405 34 l 1
 405 733 l 1
29 19 m 1
 398 19 l 1
 213 369 l 1
 29 19 l 1
206 383 m 1
 22 733 l 1
 22 34 l 1
 206 383 l 1
EndSplineSet
Validated: 1
EndChar

StartChar: uni001A
Encoding: 26 26 188
Width: 427
Flags: W
HStem: 0 19<29 398> 748 22<29 398>
VStem: 0 22<34 733> 405 22<34 733>
DStem2: 29 748 22 733 0.465951 -0.884811<10.0105 395.419 421.078 806.952> 22 34 29 19 0.465951 0.884811<0 385.408 411.068 796.942>
LayerCount: 2
Fore
SplineSet
0 0 m 1
 0 770 l 1
 427 770 l 1
 427 0 l 1
 0 0 l 1
398 748 m 1
 29 748 l 1
 213 398 l 1
 398 748 l 1
405 733 m 1
 221 383 l 1
 405 34 l 1
 405 733 l 1
29 19 m 1
 398 19 l 1
 213 369 l 1
 29 19 l 1
206 383 m 1
 22 733 l 1
 22 34 l 1
 206 383 l 1
EndSplineSet
Validated: 1
EndChar

StartChar: uni001B
Encoding: 27 27 189
Width: 427
Flags: W
HStem: 0 19<29 398> 748 22<29 398>
VStem: 0 22<34 733> 405 22<34 733>
DStem2: 29 748 22 733 0.465951 -0.884811<10.0105 395.419 421.078 806.952> 22 34 29 19 0.465951 0.884811<0 385.408 411.068 796.942>
LayerCount: 2
Fore
SplineSet
0 0 m 1
 0 770 l 1
 427 770 l 1
 427 0 l 1
 0 0 l 1
398 748 m 1
 29 748 l 1
 213 398 l 1
 398 748 l 1
405 733 m 1
 221 383 l 1
 405 34 l 1
 405 733 l 1
29 19 m 1
 398 19 l 1
 213 369 l 1
 29 19 l 1
206 383 m 1
 22 733 l 1
 22 34 l 1
 206 383 l 1
EndSplineSet
Validated: 1
EndChar

StartChar: uni001C
Encoding: 28 28 190
Width: 427
Flags: W
HStem: 0 19<29 398> 748 22<29 398>
VStem: 0 22<34 733> 405 22<34 733>
DStem2: 29 748 22 733 0.465951 -0.884811<10.0105 395.419 421.078 806.952> 22 34 29 19 0.465951 0.884811<0 385.408 411.068 796.942>
LayerCount: 2
Fore
SplineSet
0 0 m 1
 0 770 l 1
 427 770 l 1
 427 0 l 1
 0 0 l 1
398 748 m 1
 29 748 l 1
 213 398 l 1
 398 748 l 1
405 733 m 1
 221 383 l 1
 405 34 l 1
 405 733 l 1
29 19 m 1
 398 19 l 1
 213 369 l 1
 29 19 l 1
206 383 m 1
 22 733 l 1
 22 34 l 1
 206 383 l 1
EndSplineSet
Validated: 1
EndChar

StartChar: uni001E
Encoding: 30 30 192
Width: 427
Flags: W
HStem: 0 19<29 398> 748 22<29 398>
VStem: 0 22<34 733> 405 22<34 733>
DStem2: 29 748 22 733 0.465951 -0.884811<10.0105 395.419 421.078 806.952> 22 34 29 19 0.465951 0.884811<0 385.408 411.068 796.942>
LayerCount: 2
Fore
SplineSet
0 0 m 1
 0 770 l 1
 427 770 l 1
 427 0 l 1
 0 0 l 1
398 748 m 1
 29 748 l 1
 213 398 l 1
 398 748 l 1
405 733 m 1
 221 383 l 1
 405 34 l 1
 405 733 l 1
29 19 m 1
 398 19 l 1
 213 369 l 1
 29 19 l 1
206 383 m 1
 22 733 l 1
 22 34 l 1
 206 383 l 1
EndSplineSet
Validated: 1
EndChar

StartChar: uni001F
Encoding: 31 31 193
Width: 427
Flags: W
HStem: 0 19<29 398> 748 22<29 398>
VStem: 0 22<34 733> 405 22<34 733>
DStem2: 29 748 22 733 0.465951 -0.884811<10.0105 395.419 421.078 806.952> 22 34 29 19 0.465951 0.884811<0 385.408 411.068 796.942>
LayerCount: 2
Fore
SplineSet
0 0 m 1
 0 770 l 1
 427 770 l 1
 427 0 l 1
 0 0 l 1
398 748 m 1
 29 748 l 1
 213 398 l 1
 398 748 l 1
405 733 m 1
 221 383 l 1
 405 34 l 1
 405 733 l 1
29 19 m 1
 398 19 l 1
 213 369 l 1
 29 19 l 1
206 383 m 1
 22 733 l 1
 22 34 l 1
 206 383 l 1
EndSplineSet
Validated: 1
EndChar

StartChar: uni0400
Encoding: 1024 1024 194
Width: 540
Flags: W
HStem: -2 47<206 290.844> 384 53<247.406 347.276> 491 40<346 380 489 513> 645 39<223.858 340.834>
VStem: 40 112<334.127 519.545> 150 56<45 112.085> 374 114<264 355.241 531 602.047>
AnchorPoint: "Yerok" 280 1034 basechar 0
AnchorPoint: "Diacritic" 280 1034 basechar 0
LayerCount: 2
Fore
SplineSet
326 774 m 2xf2
 332 762 325 743 312 739 c 0
 299 735 282 740 275 751 c 2
 138 965 l 2
 134 972 143 982 151 982 c 2
 208 982 l 2
 218 982 226 976 230 968 c 2
 326 774 l 2xf2
97 184 m 0
 61 260 40 309 40 397 c 0
 40 551 134 684 284 684 c 0
 424 684 489 604 489 531 c 1
 513 531 l 1
 513 491 l 1
 346 491 l 1
 346 531 l 1
 380 531 l 1
 380 574 363 645 283 645 c 0
 183 645 152 530 152 430 c 0xfa
 152 393 159 362 168 333 c 1
 201 397 257 437 330 437 c 0
 445 437 493 363 493 264 c 1
 378 264 l 1
 379 326 356 384 297 384 c 0
 251 384 209 327 185 271 c 1
 205 187 207 101 206 45 c 1
 298 45 366 116 374 175 c 1
 488 175 l 1
 472 67 364 -2 150 -2 c 1xf6
 151 70 125 124 97 184 c 0
EndSplineSet
Validated: 33
LCarets2: 1 0
Ligature2: "'ccmp' Precomposed Glyphs for Cyrillic-1" afii10022 gravecomb
EndChar

StartChar: uni0401
Encoding: 1025 1025 195
Width: 540
Flags: W
HStem: -2 47<206 290.844> 384 53<247.406 347.276> 491 40<346 380 489 513> 645 39<223.858 340.834> 741 135<183.734 225.266 309.734 351.266>
VStem: 40 112<334.127 519.545> 150 56<45 112.085> 374 114<264 355.241 531 602.047>
DStem2: 252 754 157 863 0.257111 -0.966382<-132.056 2.30449> 378 754 283 863 0.257111 -0.966382<-132.064 2.30449>
AnchorPoint: "Yerok" 260 924 basechar 0
AnchorPoint: "Diacritic" 260 924 basechar 0
LayerCount: 2
Fore
SplineSet
283 863 m 2xf9
 281 869 285 876 292 876 c 2
 338 876 l 2
 343 876 348 868 349 863 c 2
 378 754 l 2
 380 748 374 741 367 741 c 2
 325 741 l 2
 320 741 313 749 312 754 c 2
 283 863 l 2xf9
157 863 m 2
 155 869 159 876 166 876 c 2
 210 876 l 2
 215 876 222 868 223 863 c 2
 252 754 l 2
 254 748 248 741 241 741 c 2
 199 741 l 2
 194 741 187 749 186 754 c 2
 157 863 l 2
97 184 m 0
 61 260 40 309 40 397 c 0
 40 551 134 684 284 684 c 0
 424 684 489 604 489 531 c 1
 513 531 l 1
 513 491 l 1
 346 491 l 1
 346 531 l 1
 380 531 l 1
 380 574 363 645 283 645 c 0
 183 645 152 530 152 430 c 0xfd
 152 393 159 362 168 333 c 1
 201 397 257 437 330 437 c 0
 445 437 493 363 493 264 c 1
 378 264 l 1
 379 326 356 384 297 384 c 0
 251 384 209 327 185 271 c 1
 205 187 207 101 206 45 c 1
 298 45 366 116 374 175 c 1
 488 175 l 1
 472 67 364 -2 150 -2 c 1xfb
 151 70 125 124 97 184 c 0
EndSplineSet
Validated: 33
LCarets2: 1 0
Ligature2: "'ccmp' Precomposed Glyphs for Cyrillic-1" afii10022 uni0308
EndChar

StartChar: uni0403
Encoding: 1027 1027 196
Width: 490
Flags: W
HStem: 0 40<22 76 194 248> 636 40<22 76 194 341.698>
VStem: 76 118<40 636>
AnchorPoint: "Yerok" 210 1034 basechar 0
AnchorPoint: "Diacritic" 210 1034 basechar 0
LayerCount: 2
Fore
SplineSet
208 754 m 2
 202 744 188 736 175 740 c 0
 162 744 159 763 164 775 c 2
 251 971 l 2
 255 979 263 985 273 985 c 2
 330 985 l 2
 338 985 347 975 343 968 c 2
 208 754 l 2
304 636 m 2
 194 636 l 1
 194 40 l 1
 248 40 l 1
 248 0 l 1
 22 0 l 1
 22 40 l 1
 76 40 l 1
 76 636 l 1
 22 636 l 1
 22 676 l 1
 464 676 l 2
 481 676 478 648 465 641 c 0
 457 637 453 621 451 615 c 0
 443 585 438 547 436 517 c 0
 435 505 415 506 410 517 c 0
 390 559 368 586 339 620 c 0
 331 629 319 636 304 636 c 2
EndSplineSet
Validated: 33
LCarets2: 1 0
Ligature2: "'ccmp' Precomposed Glyphs for Cyrillic-1" afii10020 acutecomb
EndChar

StartChar: uni040C
Encoding: 1036 1036 197
Width: 556
Flags: W
HStem: 0 40<22 66 184 228 318 362 489 533> 335 39<184 268.671> 636 40<22 66 184 228 288 332 450 494>
VStem: 66 118<40 335 374 636> 332 118<497.531 636> 362 127<40 209.094>
AnchorPoint: "Yerok" 270 1034 basechar 0
AnchorPoint: "Diacritic" 270 1034 basechar 0
LayerCount: 2
Fore
SplineSet
248 754 m 2xf0
 242 744 228 736 215 740 c 0
 202 744 199 763 204 775 c 2
 291 971 l 2
 295 979 303 985 313 985 c 2
 370 985 l 2
 378 985 387 975 383 968 c 2
 248 754 l 2xf0
460 230 m 0
 483 173 489 127 489 68 c 2
 489 40 l 1
 533 40 l 1
 533 0 l 1
 318 0 l 1
 318 40 l 1
 362 40 l 1
 362 82 l 2xf4
 362 142 360 194 330 257 c 0
 306 307 272 334 217 335 c 2
 215 335 l 1
 184 335 l 1
 184 40 l 1
 228 40 l 1
 228 0 l 1
 22 0 l 1
 22 40 l 1
 66 40 l 1
 66 636 l 1
 22 636 l 1
 22 676 l 1
 228 676 l 1
 228 636 l 1
 184 636 l 1
 184 374 l 1
 212 374 l 1
 216 374 l 2
 270 374 288 409 306 459 c 0
 325 510 332 564 332 603 c 2
 332 636 l 1
 288 636 l 1
 288 676 l 1
 494 676 l 1
 494 636 l 1
 450 636 l 1
 450 612 l 2xf8
 450 555 438 503 402 448 c 0
 376 410 346 380 310 360 c 1
 373 342 431 302 460 230 c 0
EndSplineSet
Validated: 33
LCarets2: 1 0
Ligature2: "'ccmp' Precomposed Glyphs for Cyrillic-1" afii10028 acutecomb
EndChar

StartChar: uni040D
Encoding: 1037 1037 198
Width: 542
Flags: W
HStem: 0 40<22 76 194 248 294 348 466 520> 636 40<22 76 194 248 294 348 466 520>
VStem: 76 118<40 295 340 636> 348 118<40 371 416 636>
DStem2: 194 340 194 295 0.896744 0.442549<0 151.818>
AnchorPoint: "Yerok" 280 1024 basechar 0
AnchorPoint: "Diacritic" 280 1024 basechar 0
LayerCount: 2
Fore
SplineSet
326 774 m 2
 332 762 325 743 312 739 c 0
 299 735 282 740 275 751 c 2
 138 965 l 2
 134 972 143 982 151 982 c 2
 208 982 l 2
 218 982 226 976 230 968 c 2
 326 774 l 2
248 0 m 1
 22 0 l 1
 22 40 l 1
 76 40 l 1
 76 636 l 1
 22 636 l 1
 22 676 l 1
 248 676 l 1
 248 636 l 1
 194 636 l 1
 194 340 l 1
 348 416 l 1
 348 636 l 1
 294 636 l 1
 294 676 l 1
 520 676 l 1
 520 636 l 1
 466 636 l 1
 466 40 l 1
 520 40 l 1
 520 0 l 1
 294 0 l 1
 294 40 l 1
 348 40 l 1
 348 371 l 1
 194 295 l 1
 194 40 l 1
 248 40 l 1
 248 0 l 1
EndSplineSet
Validated: 33
LCarets2: 1 0
Ligature2: "'ccmp' Precomposed Glyphs for Cyrillic-1" afii10026 gravecomb
EndChar

StartChar: uni0423
Encoding: 1059 1059 199
Width: 552
Flags: W
HStem: 636 40<79 87.2461>
DStem2: 280 41 321 41 0.0758046 0.997123<3.10799 291.906 331.943 457.251>
AnchorPoint: "Yerok" 460 754 basechar 0
AnchorPoint: "Diacritic" 340 754 basechar 0
LayerCount: 2
Fore
SplineSet
327 154 m 1
 346 381 l 2
 347.63725557 414.017987327 360 456 375 491 c 0
 387 519 409 537 436 537 c 0
 459 537 469 536 492 526 c 0
 501 522 506 530 506 538 c 0
 505 560 507 576 513 599 c 0
 519 621 527 635 537 653 c 0
 543 663 537 674 527 676 c 0
 462 687 417 660 381 612 c 0
 355 577 341 541 329 507 c 0
 316 471 308 420 306 383 c 2
 305 372 l 1
 281 372 l 1
 267 457 238 569 212 636 c 1
 266 636 l 1
 266 676 l 1
 25 676 l 1
 25 636 l 1
 79 636 l 1
 114 566 152 457 168 372 c 1
 114 372 l 1
 114 332 l 1
 303 332 l 1
 286 155 l 1
 280 41 l 1
 191 41 l 1
 191 1 l 1
 401 1 l 1
 401 41 l 1
 321 41 l 1
 327 154 l 1
EndSplineSet
Validated: 41
EndChar

StartChar: uni042D
Encoding: 1069 1069 200
Width: 540
Flags: W
HStem: -2 47<262.156 347> 384 53<205.724 305.594> 645 39<212.166 329.142>
VStem: 65 114<264 355.241 531 602.047> 347 56<45 112.085> 401 112<334.127 519.545>
AnchorPoint: "Yerok" 421 754 basechar 0
AnchorPoint: "Diacritic" 270 754 basechar 0
LayerCount: 2
Fore
SplineSet
456 184 m 0xf8
 492 260 513 309 513 397 c 0
 513 551 419 684 269 684 c 0
 129 684 64 604 64 531 c 1
 40 531 l 1
 40 491 l 1
 207 491 l 1
 207 531 l 1
 173 531 l 1
 173 574 190 645 270 645 c 0
 370 645 401 530 401 430 c 0xf4
 401 393 394 362 385 333 c 1
 352 397 296 437 223 437 c 0
 108 437 60 363 60 264 c 1
 175 264 l 1
 174 326 197 384 256 384 c 0
 302 384 344 327 368 271 c 1
 348 187 346 101 347 45 c 1
 255 45 187 116 179 175 c 1
 65 175 l 1
 81 67 189 -2 403 -2 c 1
 402 70 428 124 456 184 c 0xf8
EndSplineSet
Validated: 41
EndChar

StartChar: uni042F
Encoding: 1071 1071 201
Width: 427
Flags: W
HStem: 0 19<29 398> 748 22<29 398>
VStem: 0 22<34 733> 405 22<34 733>
DStem2: 29 748 22 733 0.465951 -0.884811<10.0105 395.419 421.078 806.952> 22 34 29 19 0.465951 0.884811<0 385.408 411.068 796.942>
LayerCount: 2
Fore
SplineSet
0 0 m 1
 0 770 l 1
 427 770 l 1
 427 0 l 1
 0 0 l 1
398 748 m 1
 29 748 l 1
 213 398 l 1
 398 748 l 1
405 733 m 1
 221 383 l 1
 405 34 l 1
 405 733 l 1
29 19 m 1
 398 19 l 1
 213 369 l 1
 29 19 l 1
206 383 m 1
 22 733 l 1
 22 34 l 1
 206 383 l 1
EndSplineSet
Validated: 1
EndChar

StartChar: uni044D
Encoding: 1101 1101 202
Width: 464
Flags: W
AnchorPoint: "Yerok" 338 502 basechar 0
AnchorPoint: "Diacritic" 217 502 basechar 0
LayerCount: 2
Fore
SplineSet
409 92 m 0
 418 202 410 251 383 331 c 1
 334 385 295 424 228 440 c 0
 220 442 215 444 208 440 c 0
 167 420 128 409 78 400 c 0
 62 397 51 378 59 368 c 0
 83 336 106 334 136 326 c 0
 149 323 158 322 170 326 c 0
 210 339 239 362 270 368 c 1
 283 355 300 324 306 310 c 1
 312 267 312 223 309 172 c 1
 291 178 274 187 251 199 c 0
 227 212 209 226 189 241 c 0
 182 246 170 248 163 241 c 0
 132 209 110 170 72 132 c 0
 66 126 63 113 72 110 c 0
 92 103 124 93 142 81 c 0
 153 74 162 77 169 84 c 0
 195 110 220 131 231 143 c 0
 236 148 245 149 251 146 c 0
 266 139 287 127 305 118 c 1
 300 53 294 -1 269 -51 c 1
 245 -46 220 -37 203 -22 c 1
 164 -26 139 -27 101 -28 c 0
 90 -28 79 -40 85 -50 c 0
 114 -101 197 -155 234 -162 c 0
 241 -163 242 -164 247 -162 c 0
 345 -119 400 -16 409 92 c 0
EndSplineSet
Validated: 41
EndChar

StartChar: uni044F
Encoding: 1103 1103 203
Width: 427
Flags: W
HStem: 0 19<29 398> 748 22<29 398>
VStem: 0 22<34 733> 405 22<34 733>
DStem2: 29 748 22 733 0.465951 -0.884811<10.0105 395.419 421.078 806.952> 22 34 29 19 0.465951 0.884811<0 385.408 411.068 796.942>
LayerCount: 2
Fore
SplineSet
0 0 m 1
 0 770 l 1
 427 770 l 1
 427 0 l 1
 0 0 l 1
398 748 m 1
 29 748 l 1
 213 398 l 1
 398 748 l 1
405 733 m 1
 221 383 l 1
 405 34 l 1
 405 733 l 1
29 19 m 1
 398 19 l 1
 213 369 l 1
 29 19 l 1
206 383 m 1
 22 733 l 1
 22 34 l 1
 206 383 l 1
EndSplineSet
Validated: 1
EndChar

StartChar: uni0451
Encoding: 1105 1105 204
Width: 280
Flags: W
HStem: -2 21G<65.5 132> 184 98<156.453 234.179> 352 89<171.262 239.972> 501 135<49.7344 91.2656 175.734 217.266>
VStem: 47 90<95.4314 163.249 258 321.16>
DStem2: 118 514 23 623 0.257111 -0.966382<-132.056 2.30449> 244 514 149 623 0.257111 -0.966382<-132.064 2.30449>
AnchorPoint: "Yerok" 137 702 basechar 0
AnchorPoint: "Diacritic" 137 702 basechar 0
LayerCount: 2
Fore
SplineSet
149 623 m 2
 147 629 151 636 158 636 c 2
 204 636 l 2
 209 636 214 628 215 623 c 2
 244 514 l 2
 246 508 240 501 233 501 c 2
 191 501 l 2
 186 501 179 509 178 514 c 2
 149 623 l 2
23 623 m 2
 21 629 25 636 32 636 c 2
 76 636 l 2
 81 636 88 628 89 623 c 2
 118 514 l 2
 120 508 114 501 107 501 c 2
 65 501 l 2
 60 501 53 509 52 514 c 2
 23 623 l 2
226 441 m 0
 237 442 238 437 239 429 c 0
 241 412 243 385 239 363 c 0
 238 355 237 353 227 352 c 0
 175 345 136 315 137 277 c 2
 137 258 l 1
 147 261 158 265 166 268 c 0
 180 273 202 281 217 282 c 0
 234 283 233 275 234 267 c 0
 236 252 235 218 234 202 c 0
 233 190 233 187 221 184 c 0
 194 178 160 166 138 152 c 1
 139 126 140 104 141 95 c 1
 163 100 187 114 209 121 c 0
 227 127 225 114 225 94 c 0
 225 58 192 -2 72 -2 c 0
 59 -2 51 1 51 13 c 0
 55 113 51 164 47 269 c 0
 43 380 124 433 226 441 c 0
EndSplineSet
Validated: 33
LCarets2: 1 0
Ligature2: "'ccmp' Precomposed Glyphs for Cyrillic-1" afii10070 uni0308
EndChar

StartChar: uni0453
Encoding: 1107 1107 205
Width: 379
Flags: W
HStem: 0 21G<72 157> 397 40<164 232.615>
VStem: 64 100<0 397>
AnchorPoint: "Yerok" 199 819 basechar 0
AnchorPoint: "Diacritic" 200 818 basechar 0
LayerCount: 2
Fore
SplineSet
182 532 m 2
 176 522 162 514 149 518 c 0
 136 522 133 541 138 553 c 2
 225 749 l 2
 229 757 237 763 247 763 c 2
 304 763 l 2
 312 763 321 753 317 746 c 2
 182 532 l 2
341 407 m 0
 319 377 310 354 301 323 c 0
 298 314 295 302 282 302 c 0
 272 302 265 314 260 325 c 0
 245 356 233 380 220 397 c 1
 174 397 l 2
 168 397 164 390 164 384 c 2
 164 16 l 2
 164 8 161 0 153 0 c 2
 76 0 l 2
 68 0 64 8 64 16 c 2
 64 418 l 2
 64 426 67 437 75 437 c 2
 333 437 l 2
 347 437 349 418 341 407 c 0
EndSplineSet
Validated: 33
LCarets2: 1 0
Ligature2: "'ccmp' Precomposed Glyphs for Cyrillic-1" afii10068 acutecomb
EndChar

StartChar: uni045C
Encoding: 1116 1116 206
Width: 442
Flags: W
HStem: 0 21G<73 158.5 303 390> 352 89<321.934 405.111>
VStem: 289 108<0 47.1429>
DStem2: 225 256 271 266 0.347314 0.937749<-19.1685 130.7>
AnchorPoint: "Yerok" 230 804 basechar 0
AnchorPoint: "Diacritic" 230 805 basechar 0
LayerCount: 2
Fore
SplineSet
232 532 m 2
 226 522 212 514 199 518 c 0
 186 522 183 541 188 553 c 2
 275 749 l 2
 279 757 287 763 297 763 c 2
 354 763 l 2
 362 763 371 753 367 746 c 2
 232 532 l 2
181 414 m 0
 173 302 160 131 169 50 c 0
 170 38 176 25 169 13 c 0
 165 7 162 0 155 0 c 2
 77 0 l 2
 69 0 62 9 62 16 c 0
 57 116 64 310 70 424 c 0
 70 430 75 437 82 437 c 2
 164 437 l 2
 173 437 182 426 181 414 c 0
225 256 m 2
 275 391 l 2
 280 403 311 438 365 441 c 0
 384 442 403 438 407 420 c 0
 409 410 410 389 407 379 c 0
 402 362 390 352 373 352 c 0
 356 352 341 360 321 360 c 0
 311 360 303 351 300 342 c 2
 271 266 l 2
 266 252 266 215 278 215 c 2
 332 215 l 2
 342 215 346 204 348 198 c 2
 397 22 l 2
 400 12 395 0 385 0 c 2
 309 0 l 2
 297 0 292 11 289 23 c 2
 259 164 l 2
 256 178 246 185 237 194 c 0
 220 211 215 229 225 256 c 2
EndSplineSet
Validated: 33
LCarets2: 1 0
Ligature2: "'ccmp' Precomposed Glyphs for Cyrillic-1" afii10076 acutecomb
EndChar

StartChar: uni045D
Encoding: 1117 1117 207
Width: 453
Flags: W
HStem: 0 21G<71 153.5 297 383.5> 417 20G<78.5 162.5 296.5 380.5>
VStem: 60 102<0 196> 70 94<242.415 437> 286 108<0 253 298 437>
DStem2: 164 242 162 196 0.904649 0.426157<0 112.341>
AnchorPoint: "Yerok" 228 802 basechar 0
AnchorPoint: "Diacritic" 227 802 basechar 0
LayerCount: 2
Fore
SplineSet
248 544 m 2xe8
 254 532 247 513 234 509 c 0
 221 505 204 510 197 521 c 2
 60 735 l 2
 56 742 65 752 73 752 c 2
 130 752 l 2
 140 752 148 746 152 738 c 2
 248 544 l 2xe8
175 414 m 0
 171 364 167 302 164 242 c 1xd8
 283 298 l 1
 284 344 286 388 288 424 c 0
 288 430 293 437 300 437 c 2
 376 437 l 2
 385 437 394 426 393 414 c 0
 385 302 385 131 394 50 c 0
 395 38 401 25 394 13 c 0
 390 7 387 0 380 0 c 2
 301 0 l 2
 293 0 286 9 286 16 c 0
 283 74 282 165 283 253 c 1
 162 196 l 1
 160 138 159 85 162 49 c 0
 163 37 165 26 162 12 c 0
 160 5 157 0 150 0 c 2
 75 0 l 2
 67 0 60 9 60 16 c 0xe8
 55 116 63 309 70 423 c 0xd8
 70 429 75 437 82 437 c 2
 158 437 l 2
 167 437 176 426 175 414 c 0
EndSplineSet
Validated: 33
LCarets2: 1 0
Ligature2: "'ccmp' Precomposed Glyphs for Cyrillic-1" afii10074 gravecomb
EndChar

StartChar: uni045E
Encoding: 1118 1118 208
Width: 484
Flags: W
HStem: 325 119<370.834 438.719> 417 20G<41 126.5>
VStem: 225 50<-181.243 -90.1141> 312 54<582.12 685.154>
AnchorPoint: "Yerok" 268 774 basechar 0
AnchorPoint: "Diacritic" 267 774 basechar 0
LayerCount: 2
Fore
SplineSet
312 664 m 0x30
 307 712 362 707 366 666 c 0
 376 558 336 475 237 476 c 0
 134 477 130 610 178 684 c 0
 195 711 241 702 222 661 c 0
 202 618 213 564 248 561 c 0
 298 557 316 626 312 664 c 0x30
122 437 m 2x70
 131 437 139 429 142 423 c 0
 179 343 203 185 214 101 c 1
 223 102 231 102 238 103 c 1
 246 152 252 232 272 314 c 0
 290 388 350 440 416 444 c 0
 443 446 469 442 464 418 c 0
 462 407 446 393 441 376 c 0
 437 360 442 344 439 338 c 0
 433 327 427 325 414 325 c 0xb0
 393 325 388 345 370 344 c 0
 346 343 323 321 319 301 c 0
 288 146 281 -116 275 -300 c 0
 273 -348 260 -389 230 -415 c 0
 192 -448 173 -418 183 -398 c 0
 203 -359 210 -335 213 -294 c 0
 217 -218 222 -78 225 32 c 1
 200 29 172 21 141 10 c 0
 132 7 124 14 123 25 c 0
 112 130 86 306 33 419 c 0
 30 426 37 437 45 437 c 2
 122 437 l 2x70
EndSplineSet
Validated: 33
LCarets2: 1 0
Ligature2: "'ccmp' Precomposed Glyphs for Cyrillic-1" uni0443 uni0308
EndChar

StartChar: uni0487
Encoding: 1159 1159 209
Width: 1
Flags: W
HStem: 663 54<126.887 215.023> 834 61<-258.484 -128.852>
VStem: -400 81<674 782.439>
AnchorPoint: "Diacritic" -145 662 mark 0
LayerCount: 2
Fore
SplineSet
-400 685 m 0
 -400 701 -396 725 -395 752 c 0
 -395 756 -394 759 -392 763 c 0
 -382 788 -372 809 -356 827 c 0
 -353 831 -351 832 -346 834 c 0
 -307 853 -271 869 -229 885 c 0
 -226 886 -224 887 -220 888 c 0
 -204 891 -191 895 -168 895 c 0
 -86 895 -43 845 25 800 c 0
 79 764 133 725 201 717 c 0
 230 714 222 686 206 676 c 0
 188 665 174 663 150 663 c 0
 77 663 17 706 -46 754 c 0
 -103 797 -141 833 -214 834 c 0
 -228 834 -241 830 -256 822 c 0
 -280 809 -294 802 -309 783 c 0
 -318 771 -318 761 -319 746 c 0
 -320 722 -319 707 -319 686 c 0
 -319 681 -323 674 -329 674 c 2
 -391 674 l 2
 -396 674 -400 680 -400 685 c 0
EndSplineSet
Validated: 33
EndChar

StartChar: uniA64C
Encoding: 42572 42572 210
Width: 870
Flags: W
HStem: -4 97<173.967 323.82 517.395 696.672> 338 89<575.677 704.685> 350 83<157.937 280.449>
VStem: 24 91<150.587 305.292> 299 88<284.128 329.948> 755 88<147.563 287.383>
AnchorPoint: "Yerok" 768 502 basechar 0
AnchorPoint: "Diacritic" 437 502 basechar 0
LayerCount: 2
Fore
SplineSet
486 138 m 0xbc
 512 115 544 92 602 92 c 0
 687 92 755 132 755 216 c 0
 755 285 710 338 629 338 c 0
 594 338 575 320 555 291 c 0
 542 272 516 271 498 277 c 0
 480 283 470 317 477 338 c 0
 496 395 559 427 629 427 c 0xdc
 753 427 843 344 843 210 c 0
 843 81 742 -2 601 -3 c 0
 523 -4 461 49 423 78 c 1
 381 46 311 -4 222 -4 c 0
 102 -4 24 106 24 222 c 0
 24 332 103 433 213 433 c 0
 296 433 387 399 387 319 c 0
 387 294 370 281 352 279 c 0
 333 277 308 285 299 304 c 0
 282 340 253 350 217 350 c 0
 153 350 115 292 115 230 c 0
 115 150 163 91 255 93 c 0
 301 94 347 99 392 129 c 0
 410 141 432 163 454 166 c 0
 459 167 473 149 486 138 c 0xbc
EndSplineSet
Validated: 33
EndChar

StartChar: uniA64D
Encoding: 42573 42573 211
Width: 870
Flags: W
HStem: -4 97<173.967 323.82 517.395 696.672> 338 89<575.677 704.685> 350 83<157.937 280.449>
VStem: 24 91<150.587 305.292> 299 88<284.128 329.948> 755 88<147.563 287.383>
AnchorPoint: "Yerok" 778 502 basechar 0
AnchorPoint: "Diacritic" 437 502 basechar 0
LayerCount: 2
Fore
SplineSet
486 138 m 0xbc
 512 115 544 92 602 92 c 0
 687 92 755 132 755 216 c 0
 755 285 710 338 629 338 c 0
 594 338 575 320 555 291 c 0
 542 272 516 271 498 277 c 0
 480 283 470 317 477 338 c 0
 496 395 559 427 629 427 c 0xdc
 753 427 843 344 843 210 c 0
 843 81 742 -2 601 -3 c 0
 523 -4 461 49 423 78 c 1
 381 46 311 -4 222 -4 c 0
 102 -4 24 106 24 222 c 0
 24 332 103 433 213 433 c 0
 296 433 387 399 387 319 c 0
 387 294 370 281 352 279 c 0
 333 277 308 285 299 304 c 0
 282 340 253 350 217 350 c 0
 153 350 115 292 115 230 c 0
 115 150 163 91 255 93 c 0
 301 94 347 99 392 129 c 0
 410 141 432 163 454 166 c 0
 459 167 473 149 486 138 c 0xbc
EndSplineSet
Validated: 33
EndChar

StartChar: uniA67C
Encoding: 42620 42620 212
Width: 0
Flags: W
HStem: 510 60<-243.118 -126.626>
VStem: -349 60<619.893 708> -81 60<621.877 708>
AnchorPoint: "Diacritic" -185 507 mark 0
LayerCount: 2
Fore
SplineSet
-21 708 m 1
 -22 598 -87 510 -185 510 c 0
 -278 510 -350 593 -349 708 c 1
 -289 708 l 1
 -290 631 -248 570 -185 570 c 0
 -119 570 -82 634 -81 708 c 1
 -21 708 l 1
EndSplineSet
Validated: 33
EndChar

StartChar: uniA673
Encoding: 42611 42611 213
Width: 387
Flags: W
LayerCount: 2
Fore
SplineSet
376 539 m 1
 280 505 l 1
 326 412 l 1
 233 457 l 1
 198 361 l 1
 164 457 l 1
 73 412 l 1
 117 505 l 1
 21 539 l 1
 115 573 l 1
 71 665 l 1
 164 620 l 1
 198 716 l 1
 233 620 l 1
 326 665 l 1
 280 573 l 1
 376 539 l 1
290 539 m 1
 240 556 l 1
 264 604 l 1
 215 581 l 1
 198 630 l 1
 181 581 l 1
 133 603 l 1
 155 556 l 1
 107 539 l 1
 156 521 l 1
 133 473 l 1
 181 496 l 1
 198 447 l 1
 215 496 l 1
 264 473 l 1
 240 521 l 1
 290 539 l 1
EndSplineSet
Validated: 1
EndChar

StartChar: backslash
Encoding: 92 92 214
Width: 405
Flags: W
DStem2: 44 768 -15 768 0.337416 -0.941356<0 1094.44>
LayerCount: 2
Fore
SplineSet
420 -281 m 1
 44 768 l 1
 -15 768 l 1
 361 -281 l 1
 420 -281 l 1
EndSplineSet
Validated: 9
EndChar

StartChar: underscore
Encoding: 95 95 215
Width: 465
Flags: W
HStem: 0 70<27 438>
LayerCount: 2
Fore
SplineSet
438 0 m 1
 27 0 l 1
 27 70 l 1
 438 70 l 1
 438 0 l 1
EndSplineSet
Validated: 1
EndChar

StartChar: uni0306
Encoding: 774 774 216
Width: 1
Flags: W
VStem: -159 54<627.12 730.154>
AnchorPoint: "Diacritic" -232 516 mark 0
LayerCount: 2
Fore
SplineSet
-159 709 m 0
 -164 757 -109 752 -105 711 c 0
 -95 603 -135 520 -234 521 c 0
 -337 522 -341 655 -293 729 c 0
 -276 756 -230 747 -249 706 c 0
 -269 663 -258 609 -223 606 c 0
 -173 602 -155 671 -159 709 c 0
EndSplineSet
Validated: 33
EndChar

StartChar: uni0307
Encoding: 775 775 217
Width: 1
Flags: W
HStem: 521 135<-177.266 -135.734>
VStem: -204 95
DStem2: -109 534 -204 643 0.257111 -0.966382<-132.064 2.30449>
AnchorPoint: "Diacritic" -145 519 mark 0
LayerCount: 2
Fore
SplineSet
-204 643 m 2
 -206 649 -202 656 -195 656 c 2
 -149 656 l 2
 -144 656 -139 648 -138 643 c 2
 -109 534 l 2
 -107 528 -113 521 -120 521 c 2
 -162 521 l 2
 -167 521 -174 529 -175 534 c 2
 -204 643 l 2
EndSplineSet
Validated: 1
EndChar

StartChar: uni0308
Encoding: 776 776 218
Width: 1
Flags: W
HStem: 521 135<-303.266 -261.734 -177.266 -135.734>
VStem: -330 221
DStem2: -235 534 -330 643 0.257111 -0.966382<-132.056 2.30449> -109 534 -204 643 0.257111 -0.966382<-132.064 2.30449>
AnchorPoint: "Diacritic" -205 518 mark 0
LayerCount: 2
Fore
SplineSet
-204 643 m 2
 -206 649 -202 656 -195 656 c 2
 -149 656 l 2
 -144 656 -139 648 -138 643 c 2
 -109 534 l 2
 -107 528 -113 521 -120 521 c 2
 -162 521 l 2
 -167 521 -174 529 -175 534 c 2
 -204 643 l 2
-330 643 m 2
 -332 649 -328 656 -321 656 c 2
 -277 656 l 2
 -272 656 -265 648 -264 643 c 2
 -235 534 l 2
 -233 528 -239 521 -246 521 c 2
 -288 521 l 2
 -293 521 -300 529 -301 534 c 2
 -330 643 l 2
EndSplineSet
Validated: 1
EndChar

StartChar: uni030F
Encoding: 783 783 219
Width: 1
Flags: W
HStem: 521 135<-333.266 -286.734 -207.266 -160.734>
VStem: -360 226
DStem2: -260 534 -360 643 0.257111 -0.966382<-131.93 0.879898> -134 534 -234 643 0.257111 -0.966382<-131.93 0.879898>
AnchorPoint: "Diacritic" -233 521 mark 0
LayerCount: 2
Fore
SplineSet
-234 643 m 2
 -236 649 -232 656 -225 656 c 2
 -176 656 l 2
 -171 656 -164 648 -163 643 c 2
 -134 534 l 2
 -132 528 -138 521 -145 521 c 2
 -192 521 l 2
 -197 521 -204 529 -205 534 c 2
 -234 643 l 2
-360 643 m 2
 -362 649 -358 656 -351 656 c 2
 -302 656 l 2
 -297 656 -290 648 -289 643 c 2
 -260 534 l 2
 -258 528 -264 521 -271 521 c 2
 -318 521 l 2
 -323 521 -330 529 -331 534 c 2
 -360 643 l 2
EndSplineSet
Validated: 1
EndChar

StartChar: uni040E
Encoding: 1038 1038 221
Width: 552
Flags: W
HStem: 636 40<79 87.2461> 713 74<264.275 355.435>
VStem: 419 22<901.104 927.353>
DStem2: 280 41 321 41 0.0758046 0.997123<3.10799 291.906 331.943 457.251>
AnchorPoint: "Yerok" 320 994 basechar 0
AnchorPoint: "Diacritic" 320 994 basechar 0
LayerCount: 2
Fore
SplineSet
210 765 m 0
 220 737 247 713 287 713 c 0
 346 713 407 762 429 828 c 0
 440 861 444 894 441 921 c 0
 440 928 423 932 419 925 c 0
 408 905 401 878 386 849 c 0
 368 815 345 787 306 787 c 0
 264 787 248 826 260 864 c 0
 270 895 279 912 287 933 c 0
 289 939 273 944 267 940 c 0
 246 924 225 896 211 863 c 0
 201 839 197 802 210 765 c 0
327 154 m 1
 346 381 l 2
 347.63725557 414.017987327 360 456 375 491 c 0
 387 519 409 537 436 537 c 0
 459 537 469 536 492 526 c 0
 501 522 506 530 506 538 c 0
 505 560 507 576 513 599 c 0
 519 621 527 635 537 653 c 0
 543 663 537 674 527 676 c 0
 462 687 417 660 381 612 c 0
 355 577 341 541 329 507 c 0
 316 471 308 420 306 383 c 2
 305 372 l 1
 281 372 l 1
 267 457 238 569 212 636 c 1
 266 636 l 1
 266 676 l 1
 25 676 l 1
 25 636 l 1
 79 636 l 1
 114 566 152 457 168 372 c 1
 114 372 l 1
 114 332 l 1
 303 332 l 1
 286 155 l 1
 280 41 l 1
 191 41 l 1
 191 1 l 1
 401 1 l 1
 401 41 l 1
 321 41 l 1
 327 154 l 1
EndSplineSet
Validated: 41
LCarets2: 1 0
Ligature2: "'ccmp' Precomposed Glyphs for Cyrillic-1" uni0423 uni0306
EndChar

StartChar: uni040F
Encoding: 1039 1039 222
Width: 427
Flags: W
HStem: 0 19<29 398> 748 22<29 398>
VStem: 0 22<34 733> 405 22<34 733>
DStem2: 29 748 22 733 0.465951 -0.884811<10.0105 395.419 421.078 806.952> 22 34 29 19 0.465951 0.884811<0 385.408 411.068 796.942>
LayerCount: 2
Fore
SplineSet
0 0 m 1
 0 770 l 1
 427 770 l 1
 427 0 l 1
 0 0 l 1
398 748 m 1
 29 748 l 1
 213 398 l 1
 398 748 l 1
405 733 m 1
 221 383 l 1
 405 34 l 1
 405 733 l 1
29 19 m 1
 398 19 l 1
 213 369 l 1
 29 19 l 1
206 383 m 1
 22 733 l 1
 22 34 l 1
 206 383 l 1
EndSplineSet
Validated: 1
EndChar

StartChar: uni040B
Encoding: 1035 1035 223
Width: 427
Flags: W
HStem: 0 19<29 398> 748 22<29 398>
VStem: 0 22<34 733> 405 22<34 733>
DStem2: 29 748 22 733 0.465951 -0.884811<10.0105 395.419 421.078 806.952> 22 34 29 19 0.465951 0.884811<0 385.408 411.068 796.942>
LayerCount: 2
Fore
SplineSet
0 0 m 1
 0 770 l 1
 427 770 l 1
 427 0 l 1
 0 0 l 1
398 748 m 1
 29 748 l 1
 213 398 l 1
 398 748 l 1
405 733 m 1
 221 383 l 1
 405 34 l 1
 405 733 l 1
29 19 m 1
 398 19 l 1
 213 369 l 1
 29 19 l 1
206 383 m 1
 22 733 l 1
 22 34 l 1
 206 383 l 1
EndSplineSet
Validated: 1
EndChar

StartChar: uni040A
Encoding: 1034 1034 224
Width: 427
Flags: W
HStem: 0 19<29 398> 748 22<29 398>
VStem: 0 22<34 733> 405 22<34 733>
DStem2: 29 748 22 733 0.465951 -0.884811<10.0105 395.419 421.078 806.952> 22 34 29 19 0.465951 0.884811<0 385.408 411.068 796.942>
LayerCount: 2
Fore
SplineSet
0 0 m 1
 0 770 l 1
 427 770 l 1
 427 0 l 1
 0 0 l 1
398 748 m 1
 29 748 l 1
 213 398 l 1
 398 748 l 1
405 733 m 1
 221 383 l 1
 405 34 l 1
 405 733 l 1
29 19 m 1
 398 19 l 1
 213 369 l 1
 29 19 l 1
206 383 m 1
 22 733 l 1
 22 34 l 1
 206 383 l 1
EndSplineSet
Validated: 1
EndChar

StartChar: uni0409
Encoding: 1033 1033 225
Width: 427
Flags: W
HStem: 0 19<29 398> 748 22<29 398>
VStem: 0 22<34 733> 405 22<34 733>
DStem2: 29 748 22 733 0.465951 -0.884811<10.0105 395.419 421.078 806.952> 22 34 29 19 0.465951 0.884811<0 385.408 411.068 796.942>
LayerCount: 2
Fore
SplineSet
0 0 m 1
 0 770 l 1
 427 770 l 1
 427 0 l 1
 0 0 l 1
398 748 m 1
 29 748 l 1
 213 398 l 1
 398 748 l 1
405 733 m 1
 221 383 l 1
 405 34 l 1
 405 733 l 1
29 19 m 1
 398 19 l 1
 213 369 l 1
 29 19 l 1
206 383 m 1
 22 733 l 1
 22 34 l 1
 206 383 l 1
EndSplineSet
Validated: 1
EndChar

StartChar: uni0402
Encoding: 1026 1026 226
Width: 427
Flags: W
HStem: 0 19<29 398> 748 22<29 398>
VStem: 0 22<34 733> 405 22<34 733>
DStem2: 29 748 22 733 0.465951 -0.884811<10.0105 395.419 421.078 806.952> 22 34 29 19 0.465951 0.884811<0 385.408 411.068 796.942>
LayerCount: 2
Fore
SplineSet
0 0 m 1
 0 770 l 1
 427 770 l 1
 427 0 l 1
 0 0 l 1
398 748 m 1
 29 748 l 1
 213 398 l 1
 398 748 l 1
405 733 m 1
 221 383 l 1
 405 34 l 1
 405 733 l 1
29 19 m 1
 398 19 l 1
 213 369 l 1
 29 19 l 1
206 383 m 1
 22 733 l 1
 22 34 l 1
 206 383 l 1
EndSplineSet
Validated: 1
EndChar

StartChar: uni0458
Encoding: 1112 1112 227
Width: 427
Flags: W
HStem: 0 19<29 398> 748 22<29 398>
VStem: 0 22<34 733> 405 22<34 733>
DStem2: 29 748 22 733 0.465951 -0.884811<10.0105 395.419 421.078 806.952> 22 34 29 19 0.465951 0.884811<0 385.408 411.068 796.942>
LayerCount: 2
Fore
SplineSet
0 0 m 1
 0 770 l 1
 427 770 l 1
 427 0 l 1
 0 0 l 1
398 748 m 1
 29 748 l 1
 213 398 l 1
 398 748 l 1
405 733 m 1
 221 383 l 1
 405 34 l 1
 405 733 l 1
29 19 m 1
 398 19 l 1
 213 369 l 1
 29 19 l 1
206 383 m 1
 22 733 l 1
 22 34 l 1
 206 383 l 1
EndSplineSet
Validated: 1
EndChar

StartChar: uni0459
Encoding: 1113 1113 228
Width: 427
Flags: W
HStem: 0 19<29 398> 748 22<29 398>
VStem: 0 22<34 733> 405 22<34 733>
DStem2: 29 748 22 733 0.465951 -0.884811<10.0105 395.419 421.078 806.952> 22 34 29 19 0.465951 0.884811<0 385.408 411.068 796.942>
LayerCount: 2
Fore
SplineSet
0 0 m 1
 0 770 l 1
 427 770 l 1
 427 0 l 1
 0 0 l 1
398 748 m 1
 29 748 l 1
 213 398 l 1
 398 748 l 1
405 733 m 1
 221 383 l 1
 405 34 l 1
 405 733 l 1
29 19 m 1
 398 19 l 1
 213 369 l 1
 29 19 l 1
206 383 m 1
 22 733 l 1
 22 34 l 1
 206 383 l 1
EndSplineSet
Validated: 1
EndChar

StartChar: uni045A
Encoding: 1114 1114 229
Width: 427
Flags: W
HStem: 0 19<29 398> 748 22<29 398>
VStem: 0 22<34 733> 405 22<34 733>
DStem2: 29 748 22 733 0.465951 -0.884811<10.0105 395.419 421.078 806.952> 22 34 29 19 0.465951 0.884811<0 385.408 411.068 796.942>
LayerCount: 2
Fore
SplineSet
0 0 m 1
 0 770 l 1
 427 770 l 1
 427 0 l 1
 0 0 l 1
398 748 m 1
 29 748 l 1
 213 398 l 1
 398 748 l 1
405 733 m 1
 221 383 l 1
 405 34 l 1
 405 733 l 1
29 19 m 1
 398 19 l 1
 213 369 l 1
 29 19 l 1
206 383 m 1
 22 733 l 1
 22 34 l 1
 206 383 l 1
EndSplineSet
Validated: 1
EndChar

StartChar: uni045B
Encoding: 1115 1115 230
Width: 427
Flags: W
HStem: 0 19<29 398> 748 22<29 398>
VStem: 0 22<34 733> 405 22<34 733>
DStem2: 29 748 22 733 0.465951 -0.884811<10.0105 395.419 421.078 806.952> 22 34 29 19 0.465951 0.884811<0 385.408 411.068 796.942>
LayerCount: 2
Fore
SplineSet
0 0 m 1
 0 770 l 1
 427 770 l 1
 427 0 l 1
 0 0 l 1
398 748 m 1
 29 748 l 1
 213 398 l 1
 398 748 l 1
405 733 m 1
 221 383 l 1
 405 34 l 1
 405 733 l 1
29 19 m 1
 398 19 l 1
 213 369 l 1
 29 19 l 1
206 383 m 1
 22 733 l 1
 22 34 l 1
 206 383 l 1
EndSplineSet
Validated: 1
EndChar

StartChar: uni045F
Encoding: 1119 1119 231
Width: 427
Flags: W
HStem: 0 19<29 398> 748 22<29 398>
VStem: 0 22<34 733> 405 22<34 733>
DStem2: 29 748 22 733 0.465951 -0.884811<10.0105 395.419 421.078 806.952> 22 34 29 19 0.465951 0.884811<0 385.408 411.068 796.942>
LayerCount: 2
Fore
SplineSet
0 0 m 1
 0 770 l 1
 427 770 l 1
 427 0 l 1
 0 0 l 1
398 748 m 1
 29 748 l 1
 213 398 l 1
 398 748 l 1
405 733 m 1
 221 383 l 1
 405 34 l 1
 405 733 l 1
29 19 m 1
 398 19 l 1
 213 369 l 1
 29 19 l 1
206 383 m 1
 22 733 l 1
 22 34 l 1
 206 383 l 1
EndSplineSet
Validated: 1
EndChar

StartChar: uni0452
Encoding: 1106 1106 232
Width: 427
Flags: W
HStem: 0 19<29 398> 748 22<29 398>
VStem: 0 22<34 733> 405 22<34 733>
DStem2: 29 748 22 733 0.465951 -0.884811<10.0105 395.419 421.078 806.952> 22 34 29 19 0.465951 0.884811<0 385.408 411.068 796.942>
LayerCount: 2
Fore
SplineSet
0 0 m 1
 0 770 l 1
 427 770 l 1
 427 0 l 1
 0 0 l 1
398 748 m 1
 29 748 l 1
 213 398 l 1
 398 748 l 1
405 733 m 1
 221 383 l 1
 405 34 l 1
 405 733 l 1
29 19 m 1
 398 19 l 1
 213 369 l 1
 29 19 l 1
206 383 m 1
 22 733 l 1
 22 34 l 1
 206 383 l 1
EndSplineSet
Validated: 1
EndChar

StartChar: uni0484
Encoding: 1156 1156 233
Width: 427
Flags: W
HStem: 0 19<29 398> 748 22<29 398>
VStem: 0 22<34 733> 405 22<34 733>
DStem2: 29 748 22 733 0.465951 -0.884811<10.0105 395.419 421.078 806.952> 22 34 29 19 0.465951 0.884811<0 385.408 411.068 796.942>
LayerCount: 2
Fore
SplineSet
0 0 m 1
 0 770 l 1
 427 770 l 1
 427 0 l 1
 0 0 l 1
398 748 m 1
 29 748 l 1
 213 398 l 1
 398 748 l 1
405 733 m 1
 221 383 l 1
 405 34 l 1
 405 733 l 1
29 19 m 1
 398 19 l 1
 213 369 l 1
 29 19 l 1
206 383 m 1
 22 733 l 1
 22 34 l 1
 206 383 l 1
EndSplineSet
Validated: 1
EndChar

StartChar: uni0485
Encoding: 1157 1157 234
Width: 1
Flags: W
HStem: 513 29<-183.155 -161.354> 676 70<-210.982 -135.367>
VStem: -285 69<576.922 670.717> -129 43<622.609 670.453>
AnchorPoint: "Diacritic" -175 508 mark 0
LayerCount: 2
Fore
SplineSet
-188 513 m 0
 -166 507 -145 523 -168 542 c 0
 -200 569 -217 595 -216 635 c 0
 -215 657 -199 676 -177 676 c 0
 -149 676 -129 665 -129 623 c 0
 -129 609 -106 615 -100 622 c 0
 -88 635 -86 648 -86 666 c 0
 -86 714 -133 746 -181 746 c 0
 -236 746 -285 704 -285 648 c 0
 -285 582 -231 525 -188 513 c 0
EndSplineSet
Validated: 41
EndChar

StartChar: figuredash
Encoding: 8210 8210 235
Width: 465
Flags: W
HStem: 165 70<25 436>
LayerCount: 2
Fore
SplineSet
436 165 m 1
 25 165 l 1
 25 235 l 1
 436 235 l 1
 436 165 l 1
EndSplineSet
Validated: 1
EndChar

StartChar: uni2011
Encoding: 8209 8209 236
Width: 360
Flags: W
HStem: 165 70<27 333>
VStem: 27 306<165 235>
LayerCount: 2
Fore
SplineSet
333 165 m 1
 27 165 l 1
 27 235 l 1
 333 235 l 1
 333 165 l 1
EndSplineSet
Validated: 1
EndChar

StartChar: uni2010
Encoding: 8208 8208 237
Width: 360
Flags: W
HStem: 165 70<27 333>
VStem: 27 306<165 235>
LayerCount: 2
Fore
SplineSet
333 165 m 1
 27 165 l 1
 27 235 l 1
 333 235 l 1
 333 165 l 1
EndSplineSet
Validated: 1
Substitution2: "Hyphen Replacement-1" underscore
EndChar

StartChar: uni2DE1
Encoding: 11745 11745 255
Width: 1
Flags: W
HStem: 491 34<-291.608 -268.609 -198 -102 -31.9041 12.5761> 694 37<-297.104 -260 -194 -113 -51 -24.8071>
VStem: -262 67<525.988 694> -113 62<533.922 694>
AnchorPoint: "Diacritic" -145 490 mark 0
LayerCount: 2
Fore
SplineSet
6 491 m 2
 -282 491 l 2
 -297 491 -300 525 -282 525 c 2
 -272 525 l 1
 -267 546 -264 572 -262 601 c 0
 -260 637 -260 673 -260 694 c 1
 -287 694 l 2
 -304 694 -305 731 -287 731 c 2
 -33 731 l 2
 -19 731 -19 694 -33 694 c 2
 -51 694 l 1
 -50 672 -50 632 -44 593 c 0
 -40 565 -34 543 -25 525 c 1
 6 525 l 2
 16 525 19 491 6 491 c 2
-102 525 m 1
 -105 544 -107 563 -110 586 c 0
 -114 629 -113 673 -113 694 c 1
 -194 694 l 1
 -194 672 -194 635 -195 597 c 0
 -195 569 -196 545 -198 525 c 1
 -102 525 l 1
EndSplineSet
Validated: 33
EndChar

StartChar: uni2DE2
Encoding: 11746 11746 256
Width: 1
Flags: W
HStem: 686 40<-211 -132.732>
VStem: -281 70<506 686>
AnchorPoint: "Diacritic" -171 503 mark 0
LayerCount: 2
Fore
SplineSet
-51 694 m 0
 -68 677 -89 643 -98 624 c 0
 -101 619 -105 607 -112 607 c 0
 -117 607 -120 616 -122 623 c 0
 -127 641 -134 671 -137 686 c 1
 -206 686 l 2
 -209 686 -211 681 -211 678 c 2
 -211 514 l 2
 -211 510 -212 506 -216 506 c 2
 -275 506 l 2
 -279 506 -281 510 -281 514 c 2
 -281 715 l 2
 -281 719 -279 726 -275 726 c 2
 -58 726 l 2
 -38 726 -44 701 -51 694 c 0
EndSplineSet
Validated: 33
EndChar

StartChar: uni2DE9
Encoding: 11753 11753 257
Width: 1
Flags: W
AnchorPoint: "Diacritic" -159 506 mark 0
LayerCount: 2
Fore
SplineSet
-281 725 m 1
 -281 507 l 1
 -210 507 l 1
 -210 602 l 1
 -114 602 l 1
 -114 507 l 1
 -49 507 l 1
 -49 728 l 1
 -114 728 l 1
 -114 643 l 1
 -210 643 l 1
 -210 725 l 1
 -281 725 l 1
EndSplineSet
Validated: 9
EndChar

StartChar: uni2DEA
Encoding: 11754 11754 258
Width: 1
Flags: W
HStem: 519 229
AnchorPoint: "Diacritic" -147 519 mark 0
LayerCount: 2
Fore
SplineSet
-146 519 m 1
 -183 525 -210 540 -234 571 c 0
 -261 605 -263 644 -239 684 c 0
 -222 712 -198 733 -171 748 c 1
 -135 744 -109 728 -84 700 c 0
 -60 673 -54 619 -77 585 c 0
 -97 554 -122 530 -146 519 c 1
-195 674 m 0
 -212 655 -204 623 -186 602 c 0
 -167 580 -137 575 -119 593 c 0
 -100 612 -108 647 -122 663 c 0
 -140 684 -179 692 -195 674 c 0
EndSplineSet
Validated: 33
EndChar

StartChar: uni2DEC
Encoding: 11756 11756 259
Width: 1
Flags: W
HStem: 711 24<-190.714 -145.932>
VStem: -266 61<550.444 629 644.534 706.092> -258 62<506.062 606.556 641.592 679.431>
AnchorPoint: "Diacritic" -169 495 mark 0
LayerCount: 2
Fore
SplineSet
-266 492 m 1xc0
 -262 506 -258 516 -258 546 c 0xa0
 -258 585 -266 648 -266 681 c 0
 -266 721 -208 735 -168 735 c 0
 -126 735 -75 714 -77 671 c 0
 -78 630 -131 609 -168 615 c 0
 -184 616 -192 619 -205 629 c 1xc0
 -196 528 l 2xa0
 -195 504 -266 492 -266 492 c 1xc0
-201 671 m 0
 -196 654 -187 641 -168 641 c 0
 -152 641 -139 654 -136 671 c 0
 -135 690 -150 711 -168 711 c 0
 -188 710 -203 690 -201 671 c 0
EndSplineSet
Validated: 33
EndChar

StartChar: uni2DED
Encoding: 11757 11757 260
Width: 1
Flags: W
HStem: 538 46<-268.333 -218.563> 694 67<-272.877 -216.38>
VStem: -349 70<595.472 691.227>
AnchorPoint: "Diacritic" -262 535 mark 0
LayerCount: 2
Fore
SplineSet
-216 740 m 0
 -208 727 -210 702 -218 694 c 0
 -227 684 -240 695 -249 694 c 0
 -269 692 -280 668 -279 635 c 0
 -278 603 -251 583 -224 584 c 0
 -213 584 -210 560 -218 552 c 0
 -230 541 -243 538 -261 538 c 0
 -314 538 -349 588 -349 640 c 0
 -349 704 -303 761 -261 761 c 0
 -239 761 -224 754 -216 740 c 0
EndSplineSet
Validated: 33
EndChar

